<svg width="54" height="60" viewBox="0 0 54 60" fill="none" xmlns="http://www.w3.org/2000/svg">
<path fill-rule="evenodd" clip-rule="evenodd" d="M23.7456 15.6665L30.0342 21.9277L23.7456 28.189L17.457 21.9277L23.7456 15.6665Z" fill="#06B6D4"/>
<path fill-rule="evenodd" clip-rule="evenodd" d="M7.85464 14.1438L20.8917 27.1238H8.3145L1.56604 20.405L7.85464 14.1438Z" fill="#06B6D4"/>
<path d="M33.1716 11.5943C29.4582 7.88255 25.8911 4.31982 24.1825 0.443905C23.9216 -0.147968 23.0792 -0.147968 22.8184 0.443905C21.1097 4.31982 17.5422 7.88255 13.8293 11.5943C12.619 12.8039 11.3781 14.0439 10.1607 15.3319L14.6419 19.8132C15.1997 19.2439 15.7579 18.6857 16.3078 18.1363C18.9543 15.4905 21.5014 12.9466 22.8275 10.2021C23.1002 9.63795 23.901 9.63795 24.1734 10.2021C25.4994 12.9466 28.0461 15.4905 30.6931 18.1363C35.5145 22.9533 40.9789 28.413 40.9789 36.6001C40.9789 36.6385 40.9789 36.6766 40.9789 36.715C40.9765 37.429 40.9309 38.1327 40.8457 38.8237C43.4166 39.7696 44.6245 41.4952 46.121 42.8938C46.6879 40.8843 46.9948 38.7658 47.0019 36.5759C47.0019 36.5244 47.0019 36.4728 47.0019 36.4213C47.0019 25.4124 39.6544 18.0712 33.1716 11.5943Z" fill="#10B981"/>
<path d="M36.1297 48.7396C37.8178 49.9963 38.9654 51.5682 40.5833 52.6377C41.4844 51.6843 42.3066 50.656 43.0392 49.5622C40.4187 48.7804 39.0193 47.6625 37.9089 46.5541C37.3745 47.3303 36.7791 48.0609 36.1297 48.7396Z" fill="#10B981"/>
<path d="M23.4435 54.1354C13.7908 54.1037 5.99141 46.2528 6.02312 36.6001C6.02312 33.389 6.86356 30.5977 8.17614 28.1002L3.67545 23.5995C1.4705 27.3069 0.00013063 31.4972 0.00013063 36.4217C-0.042684 49.4009 10.4445 59.9571 23.4237 59.9999C27.2838 60.0126 30.929 59.0936 34.1476 57.4548C31.8328 56.3115 30.3807 54.5592 28.8984 53.2859C27.1811 53.8433 25.3472 54.1418 23.4435 54.1358V54.1354Z" fill="#10B981"/>
<path d="M28.6796 45.6062C29.7956 41.1424 32.5856 38.9101 37.0495 38.9101C43.7456 38.9101 44.5825 43.9321 47.9303 44.769C50.1623 45.3271 52.1155 44.4899 53.7892 42.258C52.6733 46.7218 49.8832 48.9541 45.4193 48.9541C38.7232 48.9541 37.8863 43.9321 34.5385 43.0952C32.3066 42.537 30.3533 43.3743 28.6796 45.6062ZM21.6949 54.2651C22.8108 49.8013 25.6009 47.569 30.0647 47.569C36.7609 47.569 37.5977 52.591 40.9456 53.4278C43.1775 53.986 45.1307 53.1487 46.8045 50.9168C45.6885 55.3806 42.8984 57.613 38.4346 57.613C31.7385 57.613 30.9016 52.591 27.5537 51.7541C25.3218 51.1959 23.3686 52.0332 21.6949 54.2651Z" fill="#06B6D4"/>
</svg>
