<svg width="464" height="121" viewBox="0 0 464 121" fill="none" xmlns="http://www.w3.org/2000/svg">
<path fill-rule="evenodd" clip-rule="evenodd" d="M48.2816 31.4635L60.9112 44.0382L48.2816 56.6129L35.652 44.0382L48.2816 31.4635Z" fill="#06B6D4"/>
<path fill-rule="evenodd" clip-rule="evenodd" d="M16.3673 28.4055L42.55 54.4736H17.2908L3.73765 40.9801L16.3673 28.4055Z" fill="#06B6D4"/>
<path d="M67.2121 23.2853C59.7544 15.8308 52.5905 8.67564 49.159 0.891509C48.6351 -0.29717 46.9433 -0.29717 46.4194 0.891509C42.9879 8.67564 35.8232 15.8308 28.3663 23.2853C25.9356 25.7144 23.4436 28.2048 20.9986 30.7916L29.9984 39.7915C31.1186 38.6482 32.2396 37.5272 33.3439 36.4237C38.6591 31.11 43.7745 26.001 46.4377 20.4892C46.9855 19.3562 48.5937 19.3562 49.1407 20.4892C51.8039 26.001 56.9185 31.11 62.2345 36.4237C71.9175 46.0979 82.8918 57.0627 82.8918 73.5052C82.8918 73.5824 82.8918 73.6588 82.8918 73.7361C82.887 75.17 82.7955 76.5832 82.6243 77.9709C87.7875 79.8705 90.2134 83.3362 93.2189 86.1451C94.3574 82.1094 94.9737 77.8546 94.988 73.4566C94.988 73.3531 94.988 73.2496 94.988 73.1461C94.988 51.0365 80.2318 36.2931 67.2121 23.2853Z" fill="#10B981"/>
<path d="M73.1531 97.8854C76.5432 100.409 78.8481 103.566 82.0972 105.714C83.9069 103.799 85.5582 101.734 87.0295 99.5375C81.7668 97.9674 78.9564 95.7222 76.7263 93.4961C75.6531 95.055 74.4572 96.5224 73.1531 97.8854Z" fill="#10B981"/>
<path d="M47.675 108.722C28.2891 108.658 12.6253 92.891 12.689 73.5052C12.689 67.0562 14.3768 61.4504 17.0129 56.4345L7.97406 47.3956C3.54578 54.8414 0.592792 63.2569 0.592792 73.1469C0.506806 99.2134 21.5686 120.414 47.6351 120.5C55.3874 120.525 62.7082 118.68 69.1723 115.388C64.5234 113.092 61.6071 109.573 58.6302 107.016C55.1812 108.135 51.4981 108.734 47.675 108.722Z" fill="#10B981"/>
<path d="M58.1907 91.5925C60.4319 82.6276 66.0354 78.1444 75.0002 78.1444C88.4483 78.1444 90.129 88.2303 96.8526 89.911C101.335 91.032 105.258 89.3505 108.619 84.8681C106.378 93.8329 100.775 98.3161 91.8097 98.3161C78.3616 98.3161 76.6809 88.2303 69.9573 86.5496C65.4749 85.4286 61.5522 87.1101 58.1907 91.5925ZM44.1631 108.982C46.4043 100.018 52.0077 95.5343 60.9725 95.5343C74.4206 95.5343 76.1013 105.62 82.8249 107.301C87.3074 108.422 91.2301 106.74 94.5915 102.258C92.3503 111.223 86.7469 115.706 77.782 115.706C64.334 115.706 62.6532 105.62 55.9296 103.939C51.4472 102.818 47.5245 104.5 44.1631 108.982Z" fill="#06B6D4"/>
<path d="M277.17 120.498V51.1439H290.521V59.2542H291.114C291.812 57.8257 292.77 56.4378 293.985 55.0844C295.2 53.733 296.757 52.617 298.656 51.7344C300.555 50.8537 302.856 50.4134 305.559 50.4134C309.416 50.4134 312.902 51.4097 316.017 53.3982C319.129 55.3888 321.613 58.3045 323.468 62.1476C325.32 65.9907 326.247 70.7225 326.247 76.3431C326.247 81.9636 325.342 86.5656 323.537 90.4229C321.729 94.2802 319.259 97.2284 316.132 99.2636C313.004 101.299 309.449 102.317 305.47 102.317C302.856 102.317 300.608 101.885 298.725 101.019C296.842 100.152 295.284 99.0526 294.054 97.7154C292.824 96.3783 291.844 94.9823 291.116 93.5233H290.751V120.5H277.172L277.17 120.498ZM301.411 91.3786C303.781 91.3786 305.77 90.7476 307.381 89.4875C308.99 88.2274 310.214 86.4642 311.05 84.2017C311.886 81.9393 312.304 79.3035 312.304 76.2964C312.304 73.2893 311.886 70.7063 311.05 68.4581C310.214 66.2099 308.992 64.4628 307.381 63.2169C305.77 61.9711 303.781 61.3482 301.411 61.3482C299.042 61.3482 297.12 61.963 295.464 63.1926C293.809 64.4222 292.548 66.1551 291.682 68.3871C290.816 70.6191 290.383 73.2548 290.383 76.2924C290.383 79.3299 290.824 81.9738 291.704 84.222C292.585 86.4702 293.853 88.2254 295.509 89.4855C297.165 90.7455 299.131 91.3766 301.409 91.3766L301.411 91.3786Z" fill="#10B981"/>
<path d="M342.105 44.6265C340.009 44.6265 338.223 43.9427 336.75 42.5751C335.277 41.2075 334.54 39.5375 334.54 37.5633C334.54 35.589 335.277 33.917 336.75 32.5514C338.223 31.1838 339.992 30.5 342.058 30.5C344.124 30.5 345.976 31.1838 347.435 32.5514C348.894 33.919 349.622 35.589 349.622 37.5633C349.622 39.5375 348.894 41.2095 347.435 42.5751C345.976 43.9427 344.201 44.6265 342.103 44.6265H342.105ZM335.313 101.451V51.1439H348.892V101.451H335.313Z" fill="#10B981"/>
<path d="M373.681 101.451H360.103V51.1439H373.044L373.227 63.8115H372.089C373.456 59.5585 375.514 56.2633 378.263 53.9237C381.012 51.5842 384.543 50.4155 388.857 50.4155C392.349 50.4155 395.403 51.1743 398.016 52.6941C400.63 54.2139 402.648 56.4013 404.077 59.2562C405.505 62.1111 406.218 65.5443 406.218 69.5538V101.451H392.639V71.9684C392.639 68.7787 391.834 66.2951 390.224 64.5176C388.613 62.7401 386.365 61.8514 383.48 61.8514C381.566 61.8514 379.872 62.2694 378.399 63.1033C376.926 63.9393 375.771 65.1466 374.935 66.7252C374.099 68.3059 373.681 70.2497 373.681 72.5588V101.451Z" fill="#10B981"/>
<path d="M440.211 102.453C435.077 102.453 430.65 101.39 426.929 99.2636C423.207 97.1371 420.336 94.13 418.317 90.2403C416.296 86.3526 415.288 81.781 415.288 76.5237C415.288 71.2663 416.29 66.78 418.295 62.8761C420.3 58.9721 423.124 55.9204 426.77 53.7168C430.417 51.5152 434.684 50.4134 439.576 50.4134C442.948 50.4134 446.077 50.9613 448.962 52.0529C451.848 53.1466 454.378 54.7638 456.549 56.9065C458.72 59.0472 460.406 61.7215 461.608 64.9254C462.807 68.1314 463.407 71.8284 463.407 76.0205V79.8027H420.711V71.2359H456.801L450.466 73.4679C450.466 70.8564 450.056 68.592 449.236 66.6786C448.417 64.7651 447.209 63.2839 445.614 62.2349C444.02 61.1858 442.051 60.6623 439.714 60.6623C437.376 60.6623 435.386 61.1939 433.744 62.2572C432.105 63.3204 430.851 64.7793 429.984 66.6319C429.118 68.4845 428.686 70.6109 428.686 73.0113V79.0255C428.686 81.85 429.171 84.2504 430.145 86.2247C431.117 88.199 432.492 89.6965 434.268 90.713C436.045 91.7316 438.119 92.2389 440.487 92.2389C442.096 92.2389 443.563 92.0036 444.884 91.5328C446.205 91.0621 447.329 90.3783 448.256 89.4814C449.184 88.5845 449.89 87.4848 450.375 86.1781L462.724 87.9555C461.932 90.8713 460.514 93.4158 458.463 95.5889C456.411 97.7621 453.844 99.4462 450.762 100.647C447.678 101.847 444.162 102.447 440.213 102.447L440.211 102.453Z" fill="#10B981"/>
<path d="M123.619 45.1743L125.579 33.5538H180.945L179.031 45.1743H158.298L149.003 101.451H135.057L144.352 45.1743H123.619Z" fill="#06B6D4"/>
<path d="M180.573 102.315C176.625 102.315 173.244 101.299 170.434 99.2616C167.624 97.2264 165.641 94.2721 164.487 90.3986C163.332 86.525 163.194 81.8399 164.077 76.3411C165.049 70.7205 166.774 65.9907 169.249 62.1476C171.725 58.3045 174.701 55.3888 178.181 53.3982C181.659 51.4097 185.313 50.4134 189.14 50.4134C191.843 50.4134 194.061 50.8456 195.794 51.712C197.524 52.5785 198.9 53.6945 199.917 55.0621C200.933 56.4297 201.672 57.8257 202.126 59.2542H202.536L203.857 51.1439H217.345L209.052 101.451H195.656L196.932 93.5213H196.431C195.489 95.0107 194.274 96.4229 192.785 97.758C191.295 99.0952 189.55 100.189 187.543 101.039C185.539 101.889 183.215 102.315 180.571 102.315H180.573ZM186.452 91.3806C188.791 91.3806 190.887 90.7496 192.74 89.4895C194.592 88.2295 196.143 86.4662 197.388 84.2038C198.634 81.9413 199.499 79.3056 199.986 76.2985C200.501 73.2609 200.509 70.6251 200.008 68.3931C199.507 66.1611 198.535 64.4283 197.092 63.1987C195.65 61.9691 193.758 61.3522 191.419 61.3522C189.079 61.3522 186.991 61.9833 185.153 63.2433C183.315 64.5034 181.789 66.2504 180.573 68.4845C179.358 70.7164 178.508 73.3218 178.021 76.2985C177.534 79.2751 177.526 81.9028 177.999 84.1814C178.469 86.4601 179.419 88.2295 180.847 89.4895C182.276 90.7496 184.143 91.3806 186.452 91.3806Z" fill="#06B6D4"/>
<path d="M220.262 101.451L228.555 51.1439H242.181L233.841 101.451H220.262ZM236.44 44.6265C234.344 44.6265 232.68 43.9427 231.451 42.5751C230.221 41.2075 229.756 39.5375 230.061 37.5633C230.396 35.589 231.412 33.917 233.115 32.5514C234.815 31.1838 236.698 30.5 238.766 30.5C240.833 30.5 242.57 31.1838 243.802 32.5514C245.033 33.919 245.48 35.589 245.145 37.5633C244.841 39.5375 243.838 41.2095 242.138 42.5751C240.435 43.9427 238.538 44.6265 236.442 44.6265H236.44Z" fill="#06B6D4"/>
<path d="M269.932 33.5538L258.677 101.449H245.052L256.307 33.5538H269.932Z" fill="#06B6D4"/>
</svg>
