<svg width="152" height="55" viewBox="0 0 152 55" fill="none" xmlns="http://www.w3.org/2000/svg">
<path fill-rule="evenodd" clip-rule="evenodd" d="M19.0119 47.778C21.68 47.778 23.2383 47.5147 25.508 46.3621C30.1115 44.0283 32.616 38.1014 32.616 32.9145C32.616 29.9475 32.3456 28.3039 30.887 25.7709C30.638 25.344 30.4672 25.0451 30.1897 24.6325C29.4925 23.6079 28.0125 21.9358 27.0662 21.1958L25.4937 19.9649C24.2059 19.0115 23.224 18.5917 21.9077 17.9513C20.8405 17.4319 18.6134 16.5995 17.4679 16.5995C16.5429 16.5995 15.9524 17.3821 15.6749 18.0865L13.1419 25.4863C12.0248 28.8517 10.9148 32.0678 9.79066 35.4475C9.45625 36.4578 7.42132 42.1499 7.3217 42.9255C7.19363 43.9287 8.04033 44.2275 8.85145 44.6118C10.8722 45.5794 16.7706 47.7638 19.019 47.7638L19.0119 47.778Z" fill="#ffcc65"/>
<path fill-rule="evenodd" clip-rule="evenodd" d="M12.6436 12.4586C13.5117 12.0459 16.1087 13.1843 16.9981 13.5045L23.2167 15.7743C26.6178 17.0692 29.414 18.6417 32.2032 20.9754C32.4735 21.2031 32.623 21.4237 32.8933 21.6371L34.3021 23.1242C34.5369 23.4373 34.7006 23.6578 34.9211 23.9495C35.3623 24.533 35.6327 25.031 36.0027 25.6643C36.7924 27.0375 37.3616 28.0479 37.6391 29.7199C37.7743 30.5168 37.9237 31.4133 37.9237 32.3241C37.9237 40.478 33.5835 48.3758 25.9561 50.368C18.4212 52.3389 11.1068 48.8241 3.94184 46.227C3.5434 46.0847 3.33704 45.9282 2.79629 45.9282C2.8461 46.5188 4.1553 48.205 4.65336 48.7031C4.80277 48.8525 4.89526 48.9308 5.04468 49.0873L5.81313 49.8629C7.14366 51.0226 6.89462 51.0226 8.87263 52.2109C11.0783 53.5272 14.9134 55 18.4283 55C22.3629 55 24.4477 54.751 27.8985 53.3778C29.4211 52.7659 31.0718 51.7626 32.2957 50.7309L34.0887 48.9521C34.786 48.1268 34.9211 48.0699 35.6611 46.9528C37.7885 43.7581 39.176 40.2219 39.176 36.2801C39.176 34.238 38.7562 32.1533 38.2297 30.2749C37.9878 29.414 37.6747 28.4321 37.3403 27.6921C36.9917 26.9237 36.5932 26.077 36.1876 25.3726C35.405 24.0136 34.9567 23.4444 34.1171 22.2348C30.9723 17.6811 25.1948 11.6048 22.7045 7.39974C22.2491 6.63131 21.8649 6.00518 21.4522 5.17982C20.5628 3.39392 20.0505 1.98512 19.588 0L19.403 0.391332C19.339 0.590556 19.339 0.626131 19.275 0.8467C18.7129 2.89586 17.8092 4.90233 16.6139 6.674C15.8384 7.82665 14.4722 9.80466 13.5757 10.8719C13.2342 11.2704 12.6579 11.7969 12.6436 12.4444V12.4586Z" fill="#ffcc65"/>
<path fill-rule="evenodd" clip-rule="evenodd" d="M7.15787e-06 35.1343C7.15787e-06 37.2547 -0.00710365 37.8452 0.42692 40.0153L1.03881 42.3918C1.15265 42.84 1.0744 42.9468 1.4515 43.0464C1.50842 42.406 9.28527 20.1072 10.3881 16.7631C10.4664 16.514 11.1921 14.5431 11.121 14.4008C10.8506 13.8245 9.022 16.4429 8.47414 17.069C7.40687 18.2857 5.59251 20.7689 4.67466 22.1492C3.47931 23.9422 2.44051 25.7068 1.58669 27.8484C0.832486 29.7411 7.15787e-06 32.5658 7.15787e-06 35.1415V35.1343Z" fill="#ffcc65"/>
<path d="M57.6279 42H52.9844L53.0137 38.5723H57.6279C58.7803 38.5723 59.752 38.3135 60.543 37.7959C61.334 37.2686 61.9297 36.502 62.3301 35.4961C62.7402 34.4902 62.9453 33.2744 62.9453 31.8486V30.8086C62.9453 29.7148 62.8281 28.7529 62.5938 27.9229C62.3691 27.0928 62.0322 26.3945 61.583 25.8281C61.1338 25.2617 60.582 24.8369 59.9277 24.5537C59.2734 24.2607 58.5215 24.1143 57.6719 24.1143H52.8965V20.6719H57.6719C59.0977 20.6719 60.4014 20.916 61.583 21.4043C62.7744 21.8828 63.8047 22.5713 64.6738 23.4697C65.543 24.3682 66.2119 25.4424 66.6807 26.6924C67.1592 27.9326 67.3984 29.3145 67.3984 30.8379V31.8486C67.3984 33.3623 67.1592 34.7441 66.6807 35.9941C66.2119 37.2441 65.543 38.3184 64.6738 39.2168C63.8145 40.1055 62.7842 40.7939 61.583 41.2822C60.3916 41.7607 59.0732 42 57.6279 42ZM55.4746 20.6719V42H51.0801V20.6719H55.4746ZM75.5469 29.6074V42H71.3281V26.1504H75.2979L75.5469 29.6074ZM80.3223 26.0479L80.249 29.959C80.0439 29.9297 79.7949 29.9053 79.502 29.8857C79.2188 29.8564 78.96 29.8418 78.7256 29.8418C78.1299 29.8418 77.6123 29.9199 77.1729 30.0762C76.7432 30.2227 76.3818 30.4424 76.0889 30.7354C75.8057 31.0283 75.5908 31.3848 75.4443 31.8047C75.3076 32.2246 75.2295 32.7031 75.21 33.2402L74.3604 32.9766C74.3604 31.9512 74.4629 31.0088 74.668 30.1494C74.873 29.2803 75.1709 28.5234 75.5615 27.8789C75.9619 27.2344 76.4502 26.7363 77.0264 26.3848C77.6025 26.0332 78.2617 25.8574 79.0039 25.8574C79.2383 25.8574 79.4775 25.877 79.7217 25.916C79.9658 25.9453 80.166 25.9893 80.3223 26.0479ZM92.6895 38.2061V26.1504H96.9082V42H92.9385L92.6895 38.2061ZM93.1582 34.9541L94.4033 34.9248C94.4033 35.9795 94.2812 36.9609 94.0371 37.8691C93.793 38.7676 93.4268 39.5488 92.9385 40.2129C92.4502 40.8672 91.835 41.3799 91.0928 41.751C90.3506 42.1123 89.4766 42.293 88.4707 42.293C87.6992 42.293 86.9863 42.1855 86.332 41.9707C85.6875 41.7461 85.1309 41.3994 84.6621 40.9307C84.2031 40.4521 83.8418 39.8418 83.5781 39.0996C83.3242 38.3477 83.1973 37.4443 83.1973 36.3896V26.1504H87.416V36.4189C87.416 36.8877 87.4697 37.2832 87.5771 37.6055C87.6943 37.9277 87.8555 38.1914 88.0605 38.3965C88.2656 38.6016 88.5049 38.748 88.7783 38.8359C89.0615 38.9238 89.374 38.9678 89.7158 38.9678C90.585 38.9678 91.2686 38.792 91.7666 38.4404C92.2744 38.0889 92.6309 37.6104 92.8359 37.0049C93.0508 36.3896 93.1582 35.7061 93.1582 34.9541ZM105.35 29.1973V48.0938H101.131V26.1504H105.042L105.35 29.1973ZM115.384 33.8994V34.207C115.384 35.3594 115.247 36.4287 114.974 37.415C114.71 38.4014 114.319 39.2607 113.802 39.9932C113.284 40.7158 112.64 41.2822 111.868 41.6924C111.106 42.0928 110.228 42.293 109.231 42.293C108.265 42.293 107.425 42.0977 106.712 41.707C105.999 41.3164 105.398 40.7695 104.91 40.0664C104.432 39.3535 104.046 38.5283 103.753 37.5908C103.46 36.6533 103.235 35.6475 103.079 34.5732V33.7676C103.235 32.6152 103.46 31.5605 103.753 30.6035C104.046 29.6367 104.432 28.8018 104.91 28.0986C105.398 27.3857 105.994 26.834 106.697 26.4434C107.41 26.0527 108.245 25.8574 109.202 25.8574C110.208 25.8574 111.092 26.0479 111.854 26.4287C112.625 26.8096 113.27 27.3564 113.787 28.0693C114.314 28.7822 114.71 29.6318 114.974 30.6182C115.247 31.6045 115.384 32.6982 115.384 33.8994ZM111.15 34.207V33.8994C111.15 33.2256 111.092 32.6055 110.975 32.0391C110.867 31.4629 110.691 30.96 110.447 30.5303C110.213 30.1006 109.9 29.7686 109.51 29.5342C109.129 29.29 108.665 29.168 108.118 29.168C107.542 29.168 107.049 29.2607 106.639 29.4463C106.238 29.6318 105.911 29.9004 105.657 30.252C105.403 30.6035 105.213 31.0234 105.086 31.5117C104.959 32 104.881 32.5518 104.852 33.167V35.2031C104.9 35.9258 105.037 36.5752 105.262 37.1514C105.486 37.7178 105.833 38.167 106.302 38.499C106.771 38.8311 107.386 38.9971 108.147 38.9971C108.704 38.9971 109.173 38.875 109.554 38.6309C109.935 38.377 110.242 38.0303 110.477 37.5908C110.721 37.1514 110.892 36.6436 110.989 36.0674C111.097 35.4912 111.15 34.8711 111.15 34.207ZM127.561 38.4258V31.3652C127.561 30.8574 127.478 30.4229 127.312 30.0615C127.146 29.6904 126.887 29.4023 126.535 29.1973C126.193 28.9922 125.749 28.8896 125.202 28.8896C124.733 28.8896 124.328 28.9727 123.986 29.1387C123.645 29.2949 123.381 29.5244 123.195 29.8271C123.01 30.1201 122.917 30.4668 122.917 30.8672H118.698C118.698 30.1934 118.854 29.5537 119.167 28.9482C119.479 28.3428 119.934 27.8105 120.529 27.3516C121.125 26.8828 121.833 26.5166 122.653 26.2529C123.483 25.9893 124.411 25.8574 125.437 25.8574C126.667 25.8574 127.761 26.0625 128.718 26.4727C129.675 26.8828 130.427 27.498 130.974 28.3184C131.53 29.1387 131.809 30.1641 131.809 31.3945V38.1768C131.809 39.0459 131.862 39.7588 131.97 40.3154C132.077 40.8623 132.233 41.3408 132.438 41.751V42H128.176C127.971 41.5703 127.814 41.0332 127.707 40.3887C127.609 39.7344 127.561 39.0801 127.561 38.4258ZM128.117 32.3467L128.146 34.7344H125.788C125.231 34.7344 124.748 34.7979 124.338 34.9248C123.928 35.0518 123.591 35.2324 123.327 35.4668C123.063 35.6914 122.868 35.9551 122.741 36.2578C122.624 36.5605 122.565 36.8926 122.565 37.2539C122.565 37.6152 122.648 37.9424 122.814 38.2354C122.98 38.5186 123.22 38.7432 123.532 38.9092C123.845 39.0654 124.211 39.1436 124.631 39.1436C125.266 39.1436 125.817 39.0166 126.286 38.7627C126.755 38.5088 127.116 38.1963 127.37 37.8252C127.634 37.4541 127.771 37.1025 127.78 36.7705L128.894 38.5576C128.737 38.958 128.522 39.373 128.249 39.8027C127.985 40.2324 127.648 40.6377 127.238 41.0186C126.828 41.3896 126.335 41.6973 125.759 41.9414C125.183 42.1758 124.499 42.293 123.708 42.293C122.702 42.293 121.789 42.0928 120.969 41.6924C120.158 41.2822 119.514 40.7207 119.035 40.0078C118.566 39.2852 118.332 38.4648 118.332 37.5469C118.332 36.7168 118.488 35.9795 118.801 35.335C119.113 34.6904 119.572 34.1484 120.178 33.709C120.793 33.2598 121.56 32.9229 122.478 32.6982C123.396 32.4639 124.46 32.3467 125.671 32.3467H128.117ZM140.279 19.4854V42H136.061V19.4854H140.279ZM150.27 26.1504L143.385 34.002L139.693 37.7373L138.155 34.6904L141.085 30.9697L145.201 26.1504H150.27ZM145.89 42L141.202 34.6758L144.117 32.127L150.753 42H145.89Z" fill="#111111"/>
</svg>
