<svg width="292" height="480" viewBox="0 0 292 480" fill="none" xmlns="http://www.w3.org/2000/svg">
<path d="M287.24 81.6052C260.833 55.1322 235.283 29.5322 218.796 2.58232C213.434 -6.18302 193.554 -6.18327 188.192 2.58186C171.704 29.5319 146.152 55.132 119.749 81.6052C63.6283 137.856 0.0010911 201.607 0.0010911 297.225C-0.0866002 324.085 5.11233 350.698 15.2998 375.538C25.4873 400.379 40.463 422.958 59.3684 441.982C78.2737 461.006 100.737 476.1 125.47 486.399C150.203 496.698 176.72 502 203.5 502C230.28 502 256.797 496.698 281.53 486.399C306.263 476.1 328.726 461.006 347.632 441.982C366.537 422.958 381.513 400.379 391.7 375.538C401.888 350.698 407.087 324.085 406.999 297.225C406.999 201.614 343.376 137.856 287.24 81.6052ZM86.4956 344.786C74.3862 344.374 30.6632 269.395 106.151 187.499C110.004 183.318 116.593 183.485 120.426 187.685L169.931 241.92C170.417 242.401 170.795 242.979 171.042 243.617C171.288 244.255 171.397 244.939 171.362 245.622C171.326 246.306 171.146 246.974 170.835 247.583C170.523 248.192 170.086 248.727 169.554 249.155C156.062 263.03 98.5643 320.861 91.416 340.857C89.9432 344.985 87.7896 344.83 86.4956 344.786ZM203.501 449.709C194.31 449.71 185.209 447.894 176.717 444.366C168.226 440.839 160.51 435.668 154.011 429.15C147.512 422.632 142.356 414.893 138.839 406.376C135.322 397.86 133.511 388.731 133.511 379.513C133.77 362.492 139.939 346.094 150.956 333.145C160.158 321.861 183.87 295.662 196.042 282.296C200.03 277.916 206.9 277.966 210.838 282.391C222.859 295.897 246.352 322.285 255.932 332.999C267.376 345.757 273.639 362.352 273.489 379.513C273.488 398.13 266.114 415.984 252.989 429.149C239.864 442.313 222.063 449.709 203.501 449.709ZM337.459 335.874C335.951 339.183 332.527 344.707 327.91 344.876C319.677 345.178 318.798 340.945 312.712 331.913C299.354 312.085 182.772 189.879 160.965 166.246C141.785 145.459 158.264 130.803 165.91 123.123C172.476 116.526 187.669 101.29 196.598 92.3383C200.433 88.493 206.583 88.3811 210.467 92.1773C231.244 112.485 293.056 174.368 321.735 219.135C356.505 273.41 344.524 320.375 337.459 335.874Z" fill="#ffcc65"/>
</svg>
