<svg width="25" height="25" viewBox="0 0 25 25" fill="none" xmlns="http://www.w3.org/2000/svg">
<path d="M16.6477 0.728727L16.6982 0.845839C16.4189 1.08219 16.1744 1.33558 15.9661 1.60671L15.8482 1.63368C7.80587 -0.788753 0.291633 5.73613 1.18996 13.9836C0.91705 14.2498 0.644141 14.533 0.370521 14.8332L0.230513 14.8353C-1.57182 5.35569 7.50454 -2.47303 16.6477 0.728727Z" fill="#111111"/>
<path d="M7.18676 14.4627C7.23153 14.4627 7.48952 14.5976 7.535 14.6472C7.85553 14.995 7.64658 15.5423 7.17396 15.621C6.65018 15.7083 4.47899 15.7055 3.93956 15.6296C3.09667 15.511 3.39375 14.4883 3.74839 14.0106C4.3141 13.2497 6.28132 12.3313 6.48387 11.6322C6.77171 10.6406 5.66088 10.2474 4.93597 10.6718C4.47614 10.9416 4.42711 11.6705 3.74483 11.4576C3.16064 11.2751 3.44065 10.6129 3.69579 10.285C5.1705 8.39207 8.4049 9.6952 7.55845 12.0133C7.13345 13.1766 5.74546 13.66 4.92033 14.4627H7.18676Z" fill="#111111"/>
<path d="M16.6477 0.728727C17.5162 1.03322 18.3533 1.39517 19.1272 1.8984L20.4321 2.80477V0.861428C20.4321 0.816713 20.5671 0.559068 20.6169 0.513643C20.9459 0.211282 21.4875 0.383755 21.5813 0.832328C21.6858 1.33342 21.668 3.55073 21.6054 4.10932C21.5671 4.45001 21.4057 4.67926 21.0468 4.72256C20.0256 4.84535 18.7484 4.6388 17.6994 4.70907C17.2567 4.58983 17.0662 4.06389 17.413 3.72817C17.4343 3.70759 17.5701 3.60325 17.5807 3.60325H19.4726C19.4947 3.50389 19.4399 3.50034 19.3838 3.45207C18.5253 2.71747 16.9306 1.95946 15.8482 1.63368C15.9313 1.24118 16.4395 1.07722 16.6477 0.728727Z" fill="#111111"/>
<path d="M18.1138 10.5235C17.4166 10.4206 17.3804 9.48727 18.0726 9.36448C18.5353 9.28286 20.5579 9.28854 21.0405 9.35667C21.3141 9.395 21.5565 9.59019 21.5955 9.87196C21.6218 10.0601 21.3916 10.5278 21.3098 10.735C20.715 12.2497 20.0157 13.726 19.4279 15.2442C19.1365 15.873 18.3014 15.6644 18.31 14.983L20.1656 10.5242C19.5338 10.4575 18.7222 10.6137 18.1131 10.5242L18.1138 10.5235Z" fill="#111111"/>
<path d="M1.18996 13.9836C1.46145 16.4777 2.85147 18.9165 4.57208 20.6931C4.72204 21.1579 4.38801 21.5902 3.89336 21.4781C3.46978 21.3822 2.13793 19.5312 1.86075 19.089C1.02213 17.7489 0.525347 16.3841 0.230406 14.8346C0.425138 14.5947 0.707286 14.2817 0.948214 14.0873C1.0271 14.0234 1.06832 13.9623 1.18985 13.9829L1.18996 13.9836Z" fill="#111111"/>
<path d="M15.7827 8.72287C16.1431 8.67603 16.4785 9.00749 16.4309 9.37018L15.141 15.8042C14.9071 16.5289 13.9562 16.4047 14.0436 15.4529C14.2249 13.4769 15.0521 11.2496 15.2888 9.24384C15.3371 9.00891 15.5333 8.75481 15.7834 8.72216L15.7827 8.72287Z" fill="#111111"/>
<path d="M23.6687 15.5919C24.1029 15.4926 24.4767 15.7935 24.427 16.2407C24.4085 16.4075 24.0226 17.4103 23.921 17.5473C23.5784 18.0087 22.8464 17.7099 22.8869 17.1577C22.8926 17.0789 23.2984 15.9638 23.3538 15.8631C23.4178 15.7459 23.5358 15.6232 23.6687 15.5926V15.5919Z" fill="#111111"/>
<path d="M17.1153 22.8827C17.6654 22.8181 17.9923 23.5073 17.5822 23.8856C17.4749 23.9849 16.4003 24.3959 16.2433 24.4129C15.5183 24.4924 15.3172 23.6194 15.9021 23.3249C16.0173 23.2667 17.0272 22.8926 17.116 22.8827H17.1153Z" fill="#111111"/>
<path d="M22.2301 18.6248C22.6722 18.5283 23.0346 18.9229 22.9124 19.3622C22.869 19.5184 22.196 20.424 22.0588 20.5326C21.6097 20.8882 20.9672 20.4652 21.1484 19.8896C21.2032 19.715 22.0439 18.6659 22.2294 18.6255L22.2301 18.6248Z" fill="#111111"/>
<path d="M19.9929 21.1282C20.4755 21.0466 20.8038 21.5626 20.5856 21.9884C20.5103 22.1353 19.5757 22.8295 19.4059 22.8856C18.7271 23.1098 18.3142 22.3887 18.9148 21.8635C19.0725 21.7258 19.8394 21.1544 19.9929 21.1282Z" fill="#111111"/>
<path d="M24.255 12.2376C24.6516 12.1496 24.9771 12.3902 24.9977 12.7934C25.0112 13.0546 24.9643 13.8013 24.8968 14.0504C24.7305 14.6636 23.8755 14.5756 23.793 14.0603C23.7269 13.6444 23.8989 13.1263 23.8556 12.6912C23.9167 12.5109 24.056 12.2816 24.255 12.2376Z" fill="#111111"/>
<path d="M6.07885 22.1395C6.21033 22.1097 6.33967 22.1197 6.46902 22.153C6.56994 22.1793 7.56848 22.7215 7.64239 22.7904C8.09368 23.2134 7.71986 23.8955 7.09231 23.7656C6.91747 23.7294 6.03692 23.2226 5.90544 23.0878C5.61618 22.7904 5.65172 22.2368 6.07814 22.1388L6.07885 22.1395Z" fill="#111111"/>
<path d="M22.5494 5.74325C22.8109 5.68363 22.9552 5.7617 23.125 5.94411C23.2558 6.08465 23.7192 6.88597 23.7654 7.06129C23.9345 7.70788 23.2402 8.16071 22.8031 7.65039C22.7157 7.54818 22.1947 6.59852 22.1634 6.47928C22.0874 6.18543 22.2267 5.81636 22.5494 5.74325Z" fill="#111111"/>
<path d="M23.8286 8.88472C24.0439 8.83574 24.3012 8.85987 24.4526 9.03732C24.5919 9.20056 24.8378 10.2716 24.8364 10.5058C24.8335 10.997 24.2451 11.2937 23.8684 10.9508C23.7241 10.8202 23.4526 9.59519 23.4668 9.37942C23.4796 9.18637 23.6282 8.93014 23.8279 8.88472H23.8286Z" fill="#111111"/>
<path d="M13.4922 23.794C13.6613 23.7883 13.8354 23.755 14.006 23.7819C14.6115 23.8763 14.6272 24.7337 14.0046 24.8913C13.7821 24.9474 13.0181 25.0077 12.7872 24.9992C12.2257 24.9772 11.994 24.2468 12.4631 23.9381C12.6607 23.8075 13.2264 23.8032 13.4922 23.7947V23.794Z" fill="#111111"/>
<path d="M9.22366 23.4703C9.42265 23.4256 10.5953 23.6527 10.7808 23.7557C11.1845 23.9792 11.1234 24.6691 10.7474 24.7784C10.4816 24.8558 9.32813 24.6379 9.08294 24.4931C8.69063 24.261 8.79439 23.5676 9.22366 23.4703Z" fill="#111111"/>
<path d="M12.9414 12.8679C12.6713 12.4782 12.0878 12.7777 12.0182 12.5655L12.0075 9.48868C11.8839 9.03514 11.343 8.90738 11.0225 9.24381L8.12853 12.848C7.84852 13.1135 8.12569 13.7707 8.46611 13.7707H10.891V15.5011C10.891 15.7027 11.2506 15.9532 11.4496 15.9554C11.6287 15.9575 12.0104 15.7162 12.0104 15.5543V13.7714C12.5953 13.9176 13.387 13.5116 12.9407 12.8686L12.9414 12.8679ZM10.891 12.6528H9.77167L10.891 11.2688V12.6528Z" fill="#111111"/>
</svg>
