<svg width="25" height="28" viewBox="0 0 25 28" fill="none" xmlns="http://www.w3.org/2000/svg">
<path d="M9.03613 16.4998C8.51123 16.416 8.03865 16.3832 7.58398 16.4646C7.27077 16.5209 7.04593 16.6273 6.88477 16.7644C6.72699 16.8986 6.59618 17.0907 6.51465 17.3796C6.26628 18.2593 6.33768 19.1062 6.73047 19.9265C7.01785 20.5262 7.45886 20.9249 8.08105 21.1189C8.56867 21.2707 9.08552 21.2591 9.6543 21.1453C10.3248 21.0111 10.9575 20.7337 11.5938 20.3728C12.2461 20.0026 12.8577 19.5686 13.5137 19.1169C13.829 18.8997 14.2106 18.6372 14.6562 18.4636C14.7602 18.4232 14.8661 18.3934 14.9717 18.3708C14.7304 18.3457 14.4863 18.2951 14.2402 18.2136C13.807 18.0704 13.3906 17.8978 12.9951 17.7302C11.689 17.1768 10.3918 16.7179 9.03613 16.5007V16.4998ZM21.1875 16.2312C20.9657 16.2353 20.7345 16.2962 20.4395 16.3953L20.4385 16.3943C19.8136 16.6046 19.2099 16.8863 18.584 17.1931C18.167 17.3974 17.7125 17.6384 17.249 17.8591L16.7832 18.072C16.4297 18.2242 16.0664 18.3219 15.6963 18.364C15.86 18.3964 16.0233 18.4499 16.1836 18.531L16.3584 18.6257C16.5292 18.725 16.6863 18.8357 16.832 18.9509C17.0678 19.1371 17.2889 19.3338 17.4971 19.5212C17.7094 19.7124 17.9045 19.8907 18.1074 20.0623C18.4592 20.3595 18.7501 20.5954 19.0791 20.7507C19.4591 20.9302 19.736 20.9419 20.0049 20.7986L20.1396 20.7156C20.2711 20.6238 20.3914 20.5055 20.5029 20.3611C21.2246 19.4261 21.5397 18.3335 21.6104 17.1072C21.6063 16.8881 21.5917 16.6976 21.5518 16.5212L21.5186 16.406C21.4856 16.3157 21.4537 16.2864 21.4434 16.2781C21.4312 16.2685 21.3738 16.2281 21.1875 16.2312ZM23.542 14.9568C23.542 15.167 23.5414 15.3786 23.541 15.5896V15.7136C23.4895 17.0546 23.2107 18.3485 22.7266 19.5916C22.1188 21.1523 21.2117 22.5238 20.0039 23.6892L20.0029 23.6882C18.8547 24.7962 17.5489 25.7008 16.0293 26.2927C15.3415 26.5606 14.636 26.7212 13.9512 26.8445C13.5663 26.9139 13.1828 26.9624 12.8076 27.0037C12.4748 27.0407 12.108 27.0058 11.8955 26.9978C11.0484 26.9658 10.1789 26.8827 9.31738 26.6541L8.94824 26.5466C8.06429 26.2663 7.236 25.878 6.4541 25.4109L6.12207 25.2058C5.35909 24.7209 4.65094 24.1593 4.01074 23.5105C3.36674 22.8578 2.81498 22.137 2.34082 21.363V21.3621C1.56847 20.1009 1.05879 18.7398 0.800781 17.2888C0.676778 16.5917 0.611196 15.8805 0.626953 15.1609C0.669803 13.2115 1.10801 11.3401 2.09277 9.60815C2.82142 8.32701 3.74982 7.20845 4.87305 6.25171C5.9355 5.34666 7.08415 4.55464 8.33301 3.91382L8.48633 3.82983C9.23053 3.39934 9.67866 2.75861 9.93164 1.89233L10.0195 1.5603C10.0465 1.44753 10.0715 1.33227 10.0957 1.2146V1.21362C10.0982 1.19799 10.1062 1.14485 10.127 1.08374C10.1482 1.02122 10.1941 0.913745 10.2949 0.815186C10.4057 0.706904 10.5439 0.647382 10.6816 0.630615H10.6836C11.0226 0.590379 11.2257 0.806423 11.2842 0.878662C11.3166 0.91876 11.339 0.956001 11.3467 0.968506C11.362 0.993678 11.3524 0.977652 11.3477 0.970459L11.3467 0.971436C11.5642 1.2948 11.8084 1.60273 12.0703 1.90503L12.3389 2.20581L12.5449 2.41675C13.041 2.89069 13.6349 3.23568 14.3145 3.49194C15.753 4.03456 17.1243 4.72516 18.4023 5.60815C19.5114 6.3742 20.4723 7.29524 21.2812 8.37378H21.2822C22.2395 9.64966 22.8626 11.0749 23.2354 12.5964C23.4145 13.3278 23.51 14.0678 23.541 14.8103L23.542 14.823V14.9568Z" stroke="#111111" stroke-width="1.25"/>
</svg>
