<svg width="25" height="25" viewBox="0 0 25 25" fill="none" xmlns="http://www.w3.org/2000/svg">
<path d="M24.8365 4.97112C24.7701 4.89141 24.6869 4.82728 24.593 4.78327C24.499 4.73925 24.3966 4.71644 24.2928 4.71643H5.07083L4.31964 0.5813C4.29009 0.418285 4.20426 0.270808 4.07712 0.164579C3.94997 0.0583496 3.78957 0.000105505 3.62388 0H0.707558C0.519902 0 0.339932 0.0745362 0.207239 0.207212C0.074546 0.339887 0 0.519833 0 0.707465C0 0.895096 0.074546 1.07504 0.207239 1.20772C0.339932 1.34039 0.519902 1.41493 0.707558 1.41493H3.03306L6.07674 18.1512C6.17217 18.6789 6.42932 19.1639 6.8126 19.539C6.34942 19.9089 6.00342 20.4052 5.8165 20.9677C5.62959 21.5302 5.60976 22.1348 5.75942 22.7083C5.90909 23.2818 6.22183 23.7997 6.65978 24.1992C7.09773 24.5986 7.64211 24.8626 8.22701 24.9591C8.81191 25.0556 9.41225 24.9805 9.95534 24.7429C10.4984 24.5053 10.961 24.1153 11.287 23.6203C11.613 23.1252 11.7885 22.5463 11.7922 21.9536C11.7959 21.3608 11.6277 20.7798 11.308 20.2807H17.4661C17.0994 20.8544 16.9342 21.5338 16.9965 22.2118C17.0588 22.8899 17.345 23.5278 17.8101 24.0252C18.2752 24.5225 18.8926 24.8509 19.565 24.9585C20.2374 25.0662 20.9265 24.9469 21.5236 24.6196C22.1207 24.2924 22.5919 23.7756 22.8627 23.1509C23.1336 22.5263 23.1888 21.8292 23.0196 21.1697C22.8504 20.5102 22.4665 19.9258 21.9283 19.5086C21.3902 19.0914 20.7284 18.8652 20.0475 18.8657H8.62867C8.35249 18.8658 8.08506 18.7689 7.873 18.592C7.66094 18.4151 7.51771 18.1694 7.46827 17.8977L7.04374 15.5642H21.0027C21.6103 15.5644 22.1986 15.3513 22.6652 14.9622C23.1318 14.573 23.447 14.0324 23.5558 13.4348L24.9886 5.55006C25.0071 5.44831 25.0031 5.34374 24.9768 5.24371C24.9505 5.14368 24.9026 5.05064 24.8365 4.97112ZM10.3775 21.9314C10.3775 22.2579 10.2807 22.577 10.0993 22.8485C9.91786 23.12 9.66002 23.3316 9.35834 23.4565C9.05667 23.5814 8.72472 23.6141 8.40446 23.5504C8.0842 23.4867 7.79003 23.3295 7.55913 23.0987C7.32824 22.8678 7.171 22.5737 7.1073 22.2535C7.0436 21.9332 7.07629 21.6013 7.20125 21.2997C7.32621 20.9981 7.53782 20.7402 7.80932 20.5589C8.08082 20.3775 8.40002 20.2807 8.72655 20.2807C9.16441 20.2807 9.58434 20.4546 9.89396 20.7641C10.2036 21.0737 10.3775 21.4936 10.3775 21.9314ZM21.6984 21.9314C21.6984 22.2579 21.6016 22.577 21.4202 22.8485C21.2388 23.12 20.9809 23.3316 20.6793 23.4565C20.3776 23.5814 20.0456 23.6141 19.7254 23.5504C19.4051 23.4867 19.111 23.3295 18.8801 23.0987C18.6492 22.8678 18.4919 22.5737 18.4282 22.2535C18.3645 21.9332 18.3972 21.6013 18.5222 21.2997C18.6471 20.9981 18.8587 20.7402 19.1302 20.5589C19.4017 20.3775 19.7209 20.2807 20.0475 20.2807C20.4853 20.2807 20.9053 20.4546 21.2149 20.7641C21.5245 21.0737 21.6984 21.4936 21.6984 21.9314ZM22.1631 13.1812C22.1136 13.4529 21.9704 13.6986 21.7583 13.8755C21.5463 14.0525 21.2789 14.1493 21.0027 14.1493H6.78666L5.32909 6.13136H23.4449L22.1631 13.1812Z" fill="#111111"/>
</svg>
