<svg width="11" height="12" viewBox="0 0 11 12" fill="none"
                                xmlns="http://www.w3.org/2000/svg">
                                <path
                                    d="M5.61708 12H5.37917C4.68083 12 3.98929 11.865 3.34477 11.6027C2.70025 11.3405 2.11549 10.9562 1.62415 10.4721C0.610474 9.48252 0.0282413 8.14868 0 6.74996C0.0116177 5.66744 0.364311 4.61457 1.00971 3.73391C1.6551 2.85326 2.56175 2.1874 3.60797 1.82647C4.21816 1.39079 4.70576 0.811296 5.02418 0.14221C5.04116 0.104574 5.06743 0.0717183 5.10099 0.0468377C5.13455 0.021957 5.17448 0.00589116 5.2162 8.22145e-06H5.24711C5.2837 -0.00028646 5.31977 0.00734368 5.35295 0.022395C5.38613 0.0374463 5.41577 0.0595576 5.43912 0.0870425C6.0695 0.791115 6.80093 1.40221 7.61121 1.90128C8.60587 2.27688 9.45995 2.93992 10.0577 3.80165C10.6648 4.67179 10.9924 5.69834 11 6.75087C10.9704 8.1495 10.389 9.48297 9.37585 10.473C8.88392 10.9573 8.29762 11.3417 7.65242 11.6038C7.00722 11.8659 6.31599 12.0005 5.61708 12ZM6.16315 11.098C6.22837 11.098 6.28448 11.1045 6.34298 11.1045C6.82052 11.1033 7.28492 10.9528 7.66834 10.6751C7.7148 10.6266 7.73984 10.5623 7.73859 10.496C7.73734 10.4296 7.71004 10.3663 7.66178 10.3195C7.61514 10.2757 7.55231 10.2513 7.48757 10.2513C7.42283 10.2513 7.36093 10.2757 7.31429 10.3195C6.97534 10.5398 6.56851 10.6391 6.16315 10.6003C5.72926 10.6351 5.29512 10.5369 4.92115 10.3195C4.89863 10.2975 4.87194 10.2801 4.84247 10.2682C4.81301 10.2563 4.78163 10.2502 4.74974 10.2503C4.71614 10.2504 4.68317 10.2571 4.65233 10.2702C4.6215 10.2832 4.59296 10.3023 4.56991 10.3261C4.52474 10.3736 4.49966 10.4359 4.49966 10.5007C4.49966 10.5654 4.52474 10.6276 4.56991 10.6751C4.9841 10.9549 5.47667 11.1047 5.9805 11.1045C6.04125 11.1052 6.10206 11.1033 6.16408 11.0989L6.16315 11.098ZM4.24489 5.50087C3.95947 5.47483 3.67191 5.5071 3.40003 5.59579C3.12816 5.68447 2.8786 5.82759 2.66664 6.01588C2.45468 6.20417 2.28519 6.43353 2.16928 6.68931C2.05337 6.94509 1.99328 7.22163 1.99319 7.50129C1.9873 8.02435 2.19468 8.5283 2.56923 8.90263C2.94377 9.27696 3.4549 9.49114 3.99106 9.49805C4.90895 9.49805 6.37044 8.3528 6.95743 7.8597C7.29216 8.27701 8.13176 9.24723 8.7408 9.24723C9.51674 9.24723 9.9931 8.23018 9.9931 7.50129C9.9931 6.14549 9.29208 5.99863 8.98995 5.99863C8.49356 6.04328 8.03347 6.27074 7.703 6.63483C7.49007 6.80699 7.27839 6.97822 7.01175 7.17565C5.76009 5.98921 4.95837 5.50178 4.24957 5.50178L4.24489 5.50087Z"
                                    fill="#111111" />
                            </svg>