<svg width="26" height="26" viewBox="0 0 26 26" fill="none" xmlns="http://www.w3.org/2000/svg">
<path d="M3.19509 4.66574C3.25278 4.58932 3.47291 4.34896 3.68343 4.13186L4.06702 3.73715L4.33168 3.98005C4.47742 4.11365 4.59331 4.23661 4.58926 4.25382C4.58572 4.27052 4.35901 4.52101 3.5888 5.33624L3.08984 4.8049L3.19509 4.66574Z" fill="#111111"/>
<path d="M20.169 21.9147L20.7004 21.4081C20.9924 21.1298 21.2454 20.9011 21.2621 20.8996C21.2788 20.898 21.3982 21.022 21.7631 21.4537L21.3962 21.8018C21.1943 21.9931 20.9554 22.2092 20.7004 22.4152L20.169 21.9147Z" fill="#111111"/>
<path d="M0.793374 16.4565C0.726575 16.2409 0.656235 15.9904 0.636499 15.8999C0.616257 15.8093 0.619293 15.7354 0.643077 15.7349C0.666862 15.7349 0.879403 15.9272 1.11623 16.163C1.35307 16.3983 1.56358 16.5805 1.58433 16.5678C1.60508 16.5552 1.62228 16.5906 1.62228 16.6463C1.62228 16.7019 1.56662 16.8042 1.4983 16.874C1.42998 16.9438 1.32169 17.0005 1.25793 17.001C1.19366 17.001 1.09043 16.9671 1.02768 16.9251C0.952274 16.8745 0.87333 16.7171 0.793374 16.4565Z" fill="#111111"/>
<path d="M3.33324 20.8874C3.32565 20.724 3.35045 20.6491 3.44305 20.5585C3.55944 20.4446 3.58626 20.4416 4.54067 20.4416C5.07861 20.4416 5.50824 20.4588 5.49559 20.4795C5.48294 20.5003 5.60844 20.6541 5.77442 20.8211C5.94091 20.9881 6.07654 21.142 6.07603 21.1627C6.07552 21.1834 5.73951 21.2017 4.58268 21.2052L4.88631 21.4871C5.0533 21.6419 5.36048 21.8995 5.56947 22.0594C5.77797 22.2193 6.14283 22.4759 6.37915 22.6292C6.61599 22.7825 7.04815 23.034 7.34065 23.1884C7.63315 23.3422 8.11592 23.5669 8.41398 23.6878C8.71255 23.8088 8.94685 23.9196 8.93521 23.9333C8.92357 23.9469 9.09664 24.1408 9.32032 24.3634C9.54348 24.5861 9.74439 24.8027 9.76665 24.8442C9.80005 24.9064 9.73376 24.9003 9.39622 24.8092C9.17002 24.748 8.78036 24.6261 8.52987 24.5385C8.27937 24.4505 7.82393 24.2627 7.51777 24.121C7.21161 23.9793 6.80171 23.7729 6.60688 23.6631C6.41205 23.5527 6.0816 23.3483 5.8731 23.2086C5.66411 23.0685 5.32252 22.824 5.11403 22.6646C4.90503 22.5057 4.56345 22.2218 4.35495 22.0341C4.14596 21.8464 3.83322 21.5589 3.65914 21.396C3.37625 21.1308 3.34184 21.0772 3.33324 20.8874Z" fill="#111111"/>
<path d="M1.38089 7.51222C1.49526 7.26173 1.6238 7.00416 1.66732 6.93989L1.74626 6.82299L1.99929 7.0664C2.13896 7.2005 2.26446 7.31588 2.27913 7.32296C2.29381 7.33055 2.20879 7.5355 2.09088 7.7784C1.97297 8.02181 1.81357 8.39881 1.73665 8.6159C1.65973 8.8335 1.58078 9.01567 1.56054 9.02073C1.5408 9.0263 1.40012 8.90536 0.970486 8.4737L1.0717 8.22068C1.12787 8.08152 1.26653 7.76271 1.38089 7.51222Z" fill="#111111"/>
<path d="M16.9424 23.741C17.1864 23.6489 17.5451 23.4971 17.74 23.4035C17.9348 23.3098 18.1053 23.2314 18.1195 23.2284C18.1332 23.2258 18.2698 23.3468 18.7015 23.7719L18.575 23.8498C18.5051 23.8928 18.2207 24.0279 17.9424 24.1499C17.6641 24.2723 17.3453 24.4085 17.0315 24.535L16.7663 24.2718C16.6206 24.1276 16.5007 23.9864 16.5001 23.9586C16.4996 23.9307 16.6985 23.8326 16.9424 23.741Z" fill="#111111"/>
<path d="M0.332368 11.2063C0.376395 10.8723 0.424975 10.5424 0.440157 10.4726C0.46799 10.3501 0.477605 10.3552 0.754414 10.6385C0.911796 10.799 1.06057 10.9128 1.08486 10.8916C1.11017 10.8688 1.11472 10.9503 1.096 11.0798C1.07778 11.2048 1.04084 11.5697 1.01452 11.8895C0.987703 12.2093 0.965943 12.6536 0.965437 13.2811L0.673952 12.9916C0.513534 12.8322 0.359695 12.7072 0.331862 12.7133C0.302005 12.7199 0.275691 12.5392 0.267088 12.269C0.259497 12.0185 0.288848 11.5403 0.332368 11.2063Z" fill="#111111"/>
<path d="M13.0297 24.4849C13.4214 24.4823 13.8672 24.4626 14.0205 24.4413C14.1733 24.4201 14.3768 24.3999 14.4719 24.3958C14.567 24.3918 14.6288 24.4059 14.6096 24.4267C14.5903 24.4474 14.7062 24.5932 14.8666 24.7505C15.15 25.0273 15.1551 25.037 15.0326 25.0643C14.9628 25.08 14.6384 25.1275 14.3115 25.1706C13.9846 25.2136 13.5403 25.249 12.9325 25.25L12.5894 24.9079C12.4006 24.7197 12.2625 24.5486 12.2817 24.5279C12.301 24.5071 12.6375 24.4879 13.0297 24.4849Z" fill="#111111"/>
<path d="M3.44407 23.7815C3.34792 23.6853 3.34337 23.617 3.34893 22.4111C3.35197 21.7128 3.37322 21.149 3.39549 21.1587C3.41775 21.1678 3.58576 21.3176 4.10192 21.8079L4.10344 22.7061C4.10547 23.5315 4.09686 23.6155 4.00223 23.7435C3.9243 23.8493 3.857 23.8827 3.72239 23.8827C3.61258 23.8827 3.50682 23.8442 3.44407 23.7815Z" fill="#111111"/>
<path d="M0.586908 9.81471C0.656743 9.52222 0.772123 9.10119 0.843982 8.87854L0.974037 8.4737L1.23465 8.74089C1.37837 8.88764 1.51349 8.98986 1.53525 8.96861C1.55701 8.94685 1.57421 8.96355 1.57371 9.00505C1.57371 9.04654 1.52664 9.21758 1.46997 9.38458C1.41329 9.55157 1.31107 9.95033 1.24275 10.2702C1.17443 10.59 1.10055 10.8688 1.07929 10.8895C1.05804 10.9103 0.909768 10.7964 0.459384 10.3461L0.586908 9.81471Z" fill="#111111"/>
<path d="M15.0964 24.2728C15.3534 24.2232 15.7461 24.1276 15.9688 24.0613C16.1915 23.9945 16.3964 23.9414 16.4242 23.9424C16.4521 23.9439 16.5943 24.079 17.0062 24.5405L16.614 24.665C16.3984 24.7333 15.983 24.8482 15.1591 25.0511L14.8717 24.7576C14.7138 24.5967 14.5944 24.4419 14.6065 24.414C14.6192 24.3862 14.8393 24.3224 15.0964 24.2728Z" fill="#111111"/>
<path d="M0.334393 14.3058C0.291378 13.9789 0.253425 13.4855 0.250894 13.2097C0.24634 12.7842 0.257473 12.7093 0.324272 12.7164C0.367286 12.7209 0.523655 12.8444 0.670916 12.9916C0.818683 13.1384 0.956834 13.2406 0.978594 13.2194C1.00035 13.1976 1.01705 13.311 1.01655 13.4709C1.01554 13.6308 1.05045 14.0179 1.09448 14.3311C1.138 14.6444 1.22757 15.1282 1.29336 15.4065C1.35914 15.6848 1.45479 16.0547 1.50489 16.2288C1.55549 16.4029 1.58535 16.5567 1.57169 16.5709C1.55802 16.585 1.3303 16.3857 1.06563 16.1281C0.5859 15.6605 0.584888 15.6585 0.498859 15.28C0.451796 15.0715 0.377407 14.6327 0.334393 14.3058Z" fill="#111111"/>
<path d="M5.8139 20.8651C5.62818 20.6739 5.48699 20.5003 5.50015 20.4795C5.51331 20.4588 5.76178 20.4416 6.05276 20.4416C6.51428 20.4416 6.59474 20.4547 6.68279 20.5428C6.74149 20.6015 6.78451 20.7133 6.78552 20.8085C6.78653 20.9006 6.74756 21.0129 6.69696 21.0635C6.64737 21.1131 6.50415 21.1667 6.37916 21.1829C6.15194 21.2123 6.15093 21.2123 5.8139 20.8651Z" fill="#111111"/>
<path d="M9.39471 24.452C9.13258 24.1807 8.92459 23.9444 8.93269 23.9277C8.94028 23.9105 9.17154 23.9591 9.44683 24.0355C9.72162 24.1119 10.1857 24.2243 10.4782 24.2845C10.7702 24.3447 11.298 24.4216 11.6512 24.4545C12.0039 24.4879 12.2822 24.5269 12.2696 24.5405C12.2569 24.5547 12.4006 24.7197 12.9325 25.25L12.4012 25.249C12.1087 25.2485 11.6649 25.2252 11.4144 25.1979C11.1639 25.17 10.714 25.1017 9.8709 24.9454L9.39471 24.452Z" fill="#111111"/>
<path d="M17.1945 1.47818C16.8944 1.1786 16.6621 0.917991 16.6783 0.898762C16.6945 0.879532 16.8716 0.922039 17.072 0.993391C17.2724 1.06474 17.6757 1.23174 17.9677 1.36483C18.2597 1.49792 18.6701 1.70387 18.8786 1.82178C19.0876 1.9402 19.4631 2.17399 19.7136 2.34199C19.9641 2.50949 20.3173 2.76403 20.498 2.90775C20.6791 3.05146 20.9635 3.2974 21.1305 3.45427C21.2975 3.61115 21.4519 3.72349 21.4736 3.70324C21.4949 3.683 21.6543 3.80951 21.8279 3.9841C22.0009 4.15868 22.1603 4.28418 22.1821 4.26242C22.2039 4.24066 22.2216 4.33681 22.2216 4.47597C22.2221 4.65157 22.1907 4.7715 22.1188 4.86815C22.0161 5.00681 22.0151 5.00731 20.751 5.00731L20.3978 4.66574C20.2034 4.47799 20.0557 4.30695 20.0688 4.28621C20.082 4.26546 20.2697 4.24876 20.8775 4.25179L20.7763 4.14249C20.7206 4.08278 20.4474 3.85 20.169 3.62582C19.8907 3.40164 19.4469 3.07626 19.1822 2.90319C18.9176 2.73013 18.4621 2.46142 18.1701 2.30556C17.8781 2.1502 17.6615 2.02319 17.6894 2.02268C17.7172 2.02268 17.4945 1.77725 17.1945 1.47818Z" fill="#111111"/>
<path d="M24.434 8.71458C24.3586 8.63766 24.3085 8.5577 24.3232 8.53696C24.3379 8.5157 24.3945 8.52178 24.4482 8.54961C24.5023 8.57744 24.5686 8.64019 24.5954 8.68877C24.6228 8.73735 24.6283 8.79453 24.6081 8.81579C24.5884 8.83704 24.5099 8.7915 24.434 8.71458Z" fill="#111111"/>
<path d="M21.4498 2.72051C21.4402 1.81419 21.4417 1.7985 21.5596 1.68313C21.6361 1.60823 21.7393 1.56623 21.8476 1.56623C21.9726 1.56623 22.0424 1.60216 22.1188 1.70539C22.216 1.83646 22.2221 1.9154 22.22 3.0464C22.2195 3.70729 22.2013 4.25787 22.1806 4.26951C22.1598 4.28115 21.9888 4.14451 21.4595 3.641L21.4498 2.72051Z" fill="#111111"/>
<path d="M14.3661 0.771239C14.1521 0.554653 13.9881 0.359827 14.0013 0.339079C14.0144 0.318332 14.064 0.301126 14.1116 0.301126C14.1587 0.301126 14.4709 0.346164 14.8049 0.400816C15.1389 0.455469 15.5943 0.547569 15.817 0.605257C16.0397 0.662946 16.3357 0.744925 16.4749 0.787938C16.614 0.830446 16.7102 0.880544 16.6884 0.899774C16.6667 0.918497 16.8944 1.1786 17.1945 1.47818C17.4946 1.77725 17.7116 2.02217 17.6767 2.02217C17.6418 2.02167 17.3458 1.91641 17.0189 1.78838C16.692 1.65985 16.071 1.46603 15.6399 1.35774C15.2087 1.24945 14.8327 1.1619 14.8049 1.16342C14.7771 1.16443 14.5797 0.988331 14.3661 0.771239Z" fill="#111111"/>
<path d="M18.8077 4.47344C18.8523 4.40209 18.9378 4.32416 18.9975 4.29936C19.0572 4.27457 19.3285 4.25331 19.5997 4.25129C19.871 4.24977 20.0769 4.26799 20.0567 4.29177C20.0369 4.31606 20.1847 4.4866 20.751 5.00731L19.8527 5.00883C19.0542 5.01035 18.9454 5.00074 18.872 4.92028C18.8265 4.87068 18.7754 4.77909 18.7582 4.71634C18.7394 4.64954 18.7602 4.54935 18.8077 4.47344Z" fill="#111111"/>
<path d="M23.892 8.83805C23.8925 8.78846 23.9477 8.6913 24.015 8.62298C24.0818 8.55467 24.1835 8.499 24.2402 8.499C24.2974 8.499 24.3333 8.51621 24.3202 8.53696C24.307 8.5577 24.3586 8.63766 24.434 8.71458C24.5099 8.7915 24.5879 8.83704 24.6071 8.81579C24.6268 8.79453 24.687 8.9256 24.7412 9.10625C24.7948 9.28691 24.897 9.69731 24.9674 10.0171C25.0382 10.3369 25.1217 10.7813 25.1531 11.0039C25.1845 11.2266 25.1971 11.4432 25.1814 11.4847C25.1602 11.5403 25.0484 11.4593 24.3708 10.8015L24.2625 10.2955C24.2033 10.0171 24.0955 9.5961 24.0226 9.35927C23.9502 9.12245 23.891 8.88815 23.892 8.83805Z" fill="#111111"/>
<path d="M7.75612 1.26716C7.90338 1.20036 8.22877 1.07031 8.47927 0.978716C8.72976 0.887123 8.95192 0.811216 8.97267 0.809698C8.99342 0.80818 9.13005 0.93469 9.2763 1.09106C9.42255 1.24742 9.53286 1.38962 9.52224 1.40733C9.5111 1.42504 9.26061 1.5217 8.96558 1.62139C8.67005 1.72108 8.34314 1.84101 8.04913 1.97106L7.76877 1.70539C7.61493 1.55915 7.48893 1.42808 7.48842 1.41442C7.48842 1.40075 7.60886 1.33446 7.75612 1.26716Z" fill="#111111"/>
<path d="M23.6522 17.2029C23.7185 17.0501 23.8465 16.6969 23.9366 16.4186L24.1005 15.9125L24.3854 16.1908C24.5423 16.3437 24.6784 16.4692 24.6881 16.4692C24.6982 16.4692 24.6552 16.6286 24.5929 16.8234C24.5307 17.0182 24.4037 17.3654 24.3105 17.5951C24.2174 17.8248 24.1243 18.0131 24.1036 18.0131C24.0828 18.0136 23.9457 17.8942 23.5317 17.4812L23.6522 17.2029Z" fill="#111111"/>
<path d="M5.28761 2.74227C5.28963 2.70735 5.50774 2.53176 5.7719 2.35262C6.03606 2.17297 6.26378 2.02521 6.27795 2.02319C6.29212 2.02167 6.4247 2.14008 6.8427 2.55301L6.3326 2.89459C6.05225 3.08233 5.79417 3.23667 5.75925 3.23667C5.72433 3.23718 5.60339 3.14053 5.49003 3.02161C5.37668 2.90319 5.28559 2.77719 5.28761 2.74227Z" fill="#111111"/>
<path d="M22.2681 19.7458C22.2686 19.7109 22.4209 19.4548 22.6067 19.1765L22.9437 18.6699L23.2084 18.9108C23.3536 19.0429 23.4751 19.1684 23.4781 19.1891C23.4811 19.2099 23.3298 19.4528 23.1421 19.7286C22.9543 20.0044 22.7737 20.2265 22.7403 20.222C22.7074 20.2174 22.5874 20.1228 22.4741 20.0115C22.3602 19.9001 22.2681 19.7807 22.2681 19.7458Z" fill="#111111"/>
<path d="M4.20315 3.61216C4.27247 3.53676 4.53005 3.30752 4.77448 3.10257C5.0194 2.89763 5.23852 2.73013 5.2618 2.73013C5.28508 2.73013 5.29571 2.7529 5.28508 2.78073C5.27445 2.80856 5.37971 2.93406 5.7719 3.28677L5.55683 3.44871C5.43841 3.53726 5.17679 3.75385 4.60799 4.24825L4.07663 3.7493L4.20315 3.61216Z" fill="#111111"/>
<path d="M21.5758 20.5301C21.7514 20.3282 21.967 20.0681 22.0546 19.9517L22.214 19.7402L22.4437 19.9897C22.5702 20.1268 22.6967 20.228 22.7246 20.2139C22.7524 20.2002 22.7757 20.2058 22.7757 20.2265C22.7762 20.2473 22.6305 20.4467 22.4518 20.6693C22.2732 20.892 22.0439 21.1541 21.757 21.4284L21.257 20.897L21.5758 20.5301Z" fill="#111111"/>
<path d="M12.4897 0.676609C12.3156 0.493422 12.1653 0.322886 12.1547 0.297078C12.1441 0.269752 12.4604 0.250016 12.9138 0.250016C13.3414 0.24951 13.7655 0.261149 13.8561 0.275318C13.9466 0.289487 14.0079 0.31985 13.9922 0.343128C13.9765 0.365899 14.1248 0.542508 14.3216 0.73531C14.5185 0.927606 14.6789 1.09713 14.6784 1.11079C14.6784 1.12446 14.4674 1.10927 14.2103 1.07638C13.9527 1.04349 13.5317 1.01465 12.806 1.00958L12.4897 0.676609Z" fill="#111111"/>
<path d="M24.5074 12.0367C24.4715 11.636 24.4284 11.2109 24.4107 11.0925C24.3935 10.9741 24.3996 10.8774 24.4249 10.8769C24.4497 10.8769 24.6187 11.0236 24.7994 11.2038C24.98 11.3834 25.1455 11.5206 25.1663 11.5079C25.187 11.4948 25.2118 11.5358 25.2209 11.5985C25.23 11.6613 25.2412 12.0712 25.2462 12.5094C25.2508 12.9476 25.2376 13.316 25.2169 13.3277C25.1961 13.3393 25.0423 13.2178 24.5717 12.7665L24.5074 12.0367Z" fill="#111111"/>
<path d="M9.09918 0.754034C9.11993 0.753021 9.38763 0.686224 9.69379 0.605763C9.99995 0.525809 10.3016 0.458505 10.3643 0.456481C10.4397 0.453951 10.5677 0.548581 10.7438 0.735816C10.8901 0.891677 11.0151 1.03944 11.0222 1.06474C11.0293 1.09005 10.9038 1.13407 10.7438 1.16292C10.5839 1.19176 10.2707 1.25755 10.048 1.30916C9.82536 1.36078 9.60573 1.39974 9.55968 1.3962C9.51363 1.39215 9.48428 1.37748 9.4944 1.36381C9.50453 1.35015 9.41091 1.23629 9.28642 1.11079C9.16193 0.985295 9.06021 0.854736 9.06072 0.819819C9.06072 0.784902 9.07843 0.755552 9.09918 0.754034Z" fill="#111111"/>
<path d="M24.1613 15.6848C24.1982 15.5598 24.2716 15.2344 24.3237 14.9627C24.3758 14.6909 24.434 14.4743 24.4527 14.4819C24.471 14.4895 24.6137 14.615 24.7695 14.7613C24.9249 14.9075 25.0524 15.0553 25.0524 15.0902C25.0519 15.1251 24.9836 15.4439 24.9006 15.7987C24.8065 16.1989 24.725 16.4439 24.6855 16.4444C24.6506 16.4449 24.5033 16.3254 24.0934 15.9125L24.1613 15.6848Z" fill="#111111"/>
<path d="M10.6173 0.399298C10.6659 0.39778 10.9225 0.366406 11.1866 0.328958C11.4508 0.291511 11.764 0.258619 11.8825 0.256088C12.0844 0.251028 12.1173 0.27127 12.4138 0.583497C12.5879 0.766685 12.7357 0.937221 12.7427 0.963029C12.7498 0.988837 12.5676 1.00958 12.3379 1.01009C12.1082 1.01009 11.7327 1.03286 11.0854 1.11079L10.8081 0.819819C10.6558 0.65991 10.5303 0.500507 10.5298 0.46559C10.5293 0.430673 10.5687 0.401322 10.6173 0.399298Z" fill="#111111"/>
<path d="M24.4563 14.0599C24.4765 13.8539 24.5069 13.4866 24.5241 13.2431C24.5408 12.9997 24.5701 12.7999 24.5884 12.7999C24.6071 12.7993 24.7478 12.9238 24.9006 13.0762C25.0534 13.228 25.1997 13.3368 25.225 13.317C25.2523 13.2958 25.2579 13.4451 25.2386 13.6859C25.2204 13.9086 25.1769 14.2901 25.142 14.5341C25.1066 14.778 25.0549 14.9768 25.0271 14.9758C24.9993 14.9753 24.851 14.8529 24.4198 14.4339L24.4563 14.0599Z" fill="#111111"/>
<path d="M6.32855 1.99991C6.34272 1.98675 6.58158 1.84961 6.85991 1.69527C7.13824 1.54093 7.38873 1.41492 7.41656 1.41594C7.4444 1.41695 7.59216 1.5389 8.02382 1.95791L6.84118 2.55301L6.57247 2.28835C6.4242 2.14312 6.31439 2.01307 6.32855 1.99991Z" fill="#111111"/>
<path d="M22.9432 18.6451L23.5459 17.4812L24.101 18.0379L23.8176 18.6072C23.5742 19.0965 23.5216 19.1699 23.4457 19.1299C23.3971 19.1041 23.264 18.9847 22.9432 18.6451Z" fill="#111111"/>
<path d="M2.43197 5.71577C2.43248 5.67377 2.57366 5.45213 2.74522 5.22238C2.91727 4.99264 3.07314 4.8049 3.09135 4.8049C3.11008 4.8049 3.23102 4.92989 3.59589 5.36154L3.42585 5.57661C3.33223 5.69503 3.1956 5.88833 3.12222 6.00675C3.04885 6.12516 2.95573 6.21625 2.91575 6.20916C2.87578 6.20208 2.75028 6.10543 2.63692 5.9941C2.52306 5.88277 2.43096 5.75777 2.43197 5.71577Z" fill="#111111"/>
<path d="M19.2931 22.5852C19.3017 22.5533 19.4909 22.3899 19.7136 22.2218C19.9362 22.0543 20.1331 21.9213 20.1513 21.9258C20.1695 21.9304 20.3031 22.0483 20.713 22.4405L20.5926 22.53C20.5268 22.5796 20.3188 22.7335 19.7895 23.1236L19.5334 22.8832C19.3927 22.7512 19.285 22.6166 19.2931 22.5852Z" fill="#111111"/>
<path d="M1.80649 6.6646C1.85204 6.57402 1.9993 6.32555 2.13289 6.11251L2.37681 5.72438L2.60656 5.97335C2.73307 6.10998 2.85958 6.21068 2.88742 6.19651C2.91525 6.18234 2.93802 6.18842 2.93802 6.20916C2.93751 6.22991 2.88843 6.32657 2.8277 6.42423C2.76748 6.5219 2.62174 6.77188 2.28926 7.36041L1.7235 6.82907L1.80649 6.6646Z" fill="#111111"/>
<path d="M18.1949 23.1924C18.2228 23.1813 18.4621 23.0386 18.7263 22.8751C18.9909 22.7122 19.2171 22.5761 19.2298 22.573C19.2419 22.57 19.373 22.6925 19.789 23.1241L19.498 23.3083C19.3381 23.4095 19.0932 23.5573 18.701 23.7805L18.4226 23.4966C18.2698 23.3407 18.1671 23.2036 18.1949 23.1924Z" fill="#111111"/>
<path d="M9.26365 10.9786L9.78235 10.4736C10.0678 10.1963 10.3147 9.96855 10.3314 9.96754C10.3481 9.96703 10.4736 10.094 10.8577 10.5338L9.795 11.5322L9.26365 10.9786Z" fill="#111111"/>
<path d="M13.0084 13.8463C13.3282 13.7755 13.6471 13.7082 13.7169 13.6961C13.7867 13.6844 13.9061 13.6713 13.9826 13.6677C14.059 13.6637 14.1106 13.6778 14.0974 13.6986C14.0838 13.7193 14.2093 13.8676 14.3758 14.0275C14.5524 14.1975 14.6521 14.3276 14.6151 14.3397C14.5802 14.3514 14.4036 14.3757 14.2229 14.3939C14.0423 14.4116 13.6835 14.4703 13.4259 14.5239C13.1162 14.5892 12.928 14.6064 12.8693 14.5756C12.8207 14.5497 12.6845 14.4303 12.5676 14.3099C12.4442 14.1834 12.3693 14.0665 12.3905 14.0326C12.4103 14.0007 12.6886 13.9172 13.0084 13.8463Z" fill="#111111"/>
<path fill-rule="evenodd" clip-rule="evenodd" d="M7.16556 12.1967C7.19491 12.1946 7.21161 12.2159 7.20352 12.2437C7.19542 12.2715 7.3027 12.397 7.44187 12.522C7.62253 12.6845 7.67667 12.7619 7.63163 12.7918C7.59672 12.8145 7.3862 12.938 7.16354 13.065C6.94088 13.1925 6.68937 13.3732 6.60536 13.4663C6.52085 13.5594 6.4247 13.6809 6.39232 13.7365C6.33665 13.8322 6.31742 13.8226 5.76431 13.2811L6.03353 12.9835C6.19243 12.8085 6.46974 12.5863 6.70809 12.4431C6.93076 12.3095 7.13672 12.1987 7.16556 12.1967ZM10.6932 15.7754C11.3961 16.4793 11.9887 17.0369 12.0105 17.0152C12.0322 16.9929 12.0489 17.0035 12.0484 17.0385C12.0474 17.0734 12.1461 17.2328 12.2671 17.3927C12.388 17.5526 12.5929 17.8375 12.7225 18.0252C12.8925 18.2722 12.9578 18.4159 12.9578 18.5439C12.9578 18.6416 12.9269 18.7949 12.8895 18.8855C12.8526 18.9761 12.6815 19.181 12.51 19.341C12.2615 19.5732 12.181 19.6223 12.1102 19.5844C12.0616 19.5585 11.2281 18.7443 10.2585 17.7753C8.72723 16.245 8.50508 16.0036 8.5653 15.9378C8.60376 15.8963 8.89018 15.7197 9.7697 15.2294L9.59258 14.9257C9.49542 14.7587 9.41546 14.5938 9.41546 14.5589C9.41546 14.5239 9.99033 15.0715 10.6932 15.7754ZM9.64318 16.1569C9.61535 16.166 10.0708 16.8143 10.6553 17.5966L11.718 19.0196L12.2073 18.5945C10.6654 16.5162 10.1907 15.9075 10.1578 15.9009C10.1254 15.8943 10.0075 15.9454 9.89621 16.0142C9.78488 16.0831 9.67102 16.1473 9.64318 16.1569Z" fill="#111111"/>
<path d="M5.9394 16.0137C5.84629 15.9024 5.77038 15.7941 5.77089 15.7734C5.77139 15.7526 5.78911 15.7354 5.80985 15.7349C5.8306 15.7349 6.01834 15.9049 6.22734 16.1129C6.43583 16.3214 6.58966 16.5036 6.56892 16.5182C6.54817 16.5329 6.43633 16.4712 6.31994 16.3806C6.20406 16.29 6.03302 16.1251 5.9394 16.0137Z" fill="#111111"/>
<path d="M5.49307 14.0022C5.53507 13.8423 5.61705 13.6146 5.67524 13.4962L5.7805 13.2811L6.32653 13.8377L6.24809 14.0908C6.1985 14.2497 6.17725 14.4566 6.19091 14.6474C6.20305 14.8144 6.2572 15.0533 6.31186 15.1788C6.366 15.3043 6.49201 15.4976 6.5912 15.6089C6.69089 15.7202 6.87155 15.8619 6.993 15.9242C7.11445 15.9859 7.33914 16.0638 7.49247 16.0972C7.72272 16.1478 7.82292 16.1448 8.07443 16.081C8.24142 16.0385 8.4236 15.9839 8.47927 15.9591C8.54404 15.9307 8.56783 15.9328 8.54505 15.9641C8.52532 15.9915 9.32791 16.8335 10.3284 17.8355C11.5323 19.0419 12.1259 19.6699 12.0844 19.6947C12.05 19.7149 11.9422 19.7468 11.8445 19.765C11.7377 19.7853 11.5874 19.7706 11.465 19.7281C11.2838 19.6648 11.1401 19.4953 10.086 18.1011C9.43874 17.2454 8.89828 16.5678 8.88411 16.5957C8.86994 16.6235 8.71661 16.6903 8.54252 16.7439C8.36844 16.7981 8.11238 16.8563 7.97322 16.8745C7.83405 16.8922 7.57192 16.8806 7.39126 16.8482C7.2106 16.8158 6.95302 16.7404 6.81993 16.6802C6.68684 16.6195 6.57854 16.5476 6.58006 16.5198C6.58158 16.4919 6.41711 16.3042 6.2152 16.1028C6.01329 15.9009 5.82504 15.7369 5.7972 15.7379C5.76937 15.7389 5.697 15.6301 5.63628 15.4971C5.57555 15.364 5.50218 15.1524 5.47282 15.0269C5.44398 14.9014 5.41969 14.6854 5.41868 14.5462C5.41767 14.407 5.45157 14.1621 5.49307 14.0022Z" fill="#111111"/>
<path d="M12.4882 6.00928C12.5935 5.96171 12.725 5.91313 12.7807 5.90099C12.8364 5.88935 12.9391 5.8767 13.0084 5.87315C13.0783 5.86961 13.2604 5.90402 13.4133 5.95007C13.601 6.00624 13.7609 6.10087 13.9051 6.24155C14.0382 6.3711 14.3429 6.8402 15.3109 8.52886L15.5387 8.46004C15.6758 8.41905 15.8716 8.40285 16.0321 8.42006C16.1783 8.43575 16.406 8.50305 16.5381 8.57036C16.6702 8.63766 16.8514 8.76822 16.9404 8.86133C17.0295 8.95444 17.152 9.14421 17.2127 9.28337C17.2871 9.4534 17.3225 9.63608 17.322 9.84001C17.321 10.0293 17.281 10.2388 17.2152 10.3967C17.1575 10.5358 17.0619 10.6952 16.8969 10.8521L16.399 10.3208L16.4855 10.1816C16.5331 10.1052 16.572 9.95134 16.5715 9.84001C16.571 9.70743 16.528 9.57788 16.447 9.46403C16.3787 9.36838 16.2492 9.26009 16.1586 9.22365C16.068 9.18671 15.9374 9.15686 15.8676 9.15686C15.7983 9.15686 15.7411 9.1852 15.7411 9.22011C15.7411 9.25503 15.8236 9.42 15.9238 9.58699C16.0245 9.75399 16.1156 9.93616 16.1262 9.99183C16.1373 10.049 15.777 9.72363 15.2983 9.24339C14.8322 8.77631 14.439 8.4069 14.4254 8.42208C14.4117 8.43777 14.1911 8.09164 13.936 7.6524C13.6805 7.21366 13.4219 6.80882 13.3611 6.75316C13.2797 6.67827 13.1805 6.65195 12.9801 6.65195C12.7265 6.65195 12.6947 6.63728 12.4826 6.42423C12.3581 6.29924 12.2655 6.17374 12.2767 6.14591C12.2878 6.11808 12.3834 6.05634 12.4882 6.00928Z" fill="#111111"/>
<path d="M17.9662 10.7382C17.9672 10.6431 18.0102 10.5313 18.0689 10.4726C18.1458 10.3956 18.2339 10.3724 18.4358 10.3754C18.5821 10.3774 18.6767 10.3901 18.6468 10.4027C18.6165 10.4159 18.7243 10.5561 18.8862 10.715C19.0481 10.8739 19.1696 11.0211 19.1559 11.0419C19.1428 11.0626 19.16 11.0904 19.1949 11.1036C19.2298 11.1168 19.0157 11.1228 18.7192 11.1163C18.2597 11.1066 18.1646 11.0904 18.0725 11.0039C18.0041 10.9396 17.9652 10.8425 17.9662 10.7382Z" fill="#111111"/>
<path d="M11.7615 8.08152C11.843 7.93527 11.8835 7.80168 11.8652 7.73994C11.8485 7.68428 11.8541 7.63873 11.8779 7.63873C11.9012 7.63924 12.2949 8.00916 12.7518 8.46105C13.2093 8.91345 13.5524 9.23782 13.514 9.18216C13.4502 9.09006 13.4512 9.08753 13.5261 9.15686C13.5717 9.19835 14.1475 10.1664 14.8064 11.3075C15.4653 12.4487 16.0133 13.4279 16.0245 13.4835C16.0356 13.5402 15.6723 13.2118 15.1971 12.7351C14.731 12.268 14.3378 11.8971 14.3241 11.9107C14.3105 11.9249 13.9922 11.4077 13.6177 10.7615C13.2427 10.1153 12.8045 9.36484 12.3506 8.60021L12.1102 8.94786C11.9781 9.13915 11.8389 9.29248 11.8015 9.28944C11.764 9.2859 11.633 9.17508 11.2878 8.80263L11.4579 8.56226C11.5515 8.43018 11.6881 8.2136 11.7615 8.08152Z" fill="#111111"/>
<path d="M17.0568 13.0787C16.9177 12.8419 16.8038 12.6374 16.8038 12.6232C16.8038 12.6091 16.821 12.5979 16.8417 12.5974C16.8625 12.5974 17.1302 12.8469 17.4364 13.1516C17.7425 13.4567 18.0102 13.6961 18.031 13.6834C18.0517 13.6708 18.0684 13.7234 18.0679 13.7998C18.0674 13.8762 18.0203 14.0412 17.9637 14.1667C17.907 14.2922 17.7881 14.4703 17.699 14.5634C17.6104 14.656 17.4692 14.7668 17.3857 14.8099C17.3023 14.8529 17.2511 14.8736 17.2719 14.8564C17.2926 14.8387 17.1843 14.7051 17.0315 14.5589C16.8063 14.3443 16.7653 14.2805 16.8164 14.2279C16.8514 14.1915 16.9101 14.1631 16.947 14.1646C16.9839 14.1657 17.0806 14.0984 17.1621 14.0149C17.2683 13.9056 17.3098 13.8135 17.3098 13.6859C17.3098 13.5645 17.2304 13.3737 17.0568 13.0787Z" fill="#111111"/>
<path d="M10.544 9.72616C10.6634 9.59408 10.8785 9.33397 11.0222 9.14826L11.2833 8.81022L11.513 9.0597C11.6396 9.19633 11.7661 9.29703 11.7939 9.28337C11.8217 9.2692 11.8445 9.27527 11.845 9.29602C11.845 9.31677 11.7256 9.48427 11.5793 9.66745C11.4331 9.85115 11.2049 10.1188 10.8324 10.5232L10.3264 9.96653L10.544 9.72616Z" fill="#111111"/>
<path d="M14.7669 12.767C14.5235 12.3404 14.3241 11.9624 14.3241 11.9279C14.3236 11.893 14.7153 12.2518 15.1935 12.725C15.6718 13.1981 16.0305 13.5442 15.9906 13.4941C15.9506 13.444 15.9354 13.4046 15.9562 13.4056C15.9769 13.4071 16.0963 13.5675 16.2218 13.7623C16.404 14.0457 16.485 14.1267 16.6267 14.1672C16.7238 14.195 16.7927 14.2345 16.779 14.2557C16.7658 14.2765 16.8797 14.4131 17.032 14.5594C17.3043 14.82 17.3078 14.826 17.196 14.8842C17.1332 14.9171 16.9455 14.944 16.7785 14.9434C16.5781 14.9429 16.3974 14.907 16.2471 14.8367C16.1216 14.7785 15.9339 14.6383 15.6399 14.319H14.6784L14.3732 14.028C14.1293 13.7952 14.0807 13.7249 14.1329 13.6763C14.1683 13.6429 14.4254 13.5994 15.2097 13.5427L14.7669 12.767Z" fill="#111111"/>
<path d="M15.9744 7.29564C15.9779 7.21973 16.0801 6.991 16.2021 6.78656L16.4243 6.41563L16.9683 6.95558L16.8149 7.2339C16.7309 7.38723 16.6221 7.54663 16.5735 7.58813C16.5245 7.62962 16.4202 7.66403 16.3418 7.66403C16.2608 7.66403 16.1495 7.61444 16.0842 7.54866C16.0154 7.48034 15.9713 7.37761 15.9744 7.29564Z" fill="#111111"/>
<path d="M17.7526 8.41399C17.7734 8.36743 17.87 8.27635 17.9677 8.21157C18.0649 8.14629 18.1656 8.09366 18.1909 8.09366C18.2167 8.09366 18.2217 8.11087 18.2025 8.13162C18.1833 8.15287 18.2825 8.28343 18.6792 8.67561L18.4373 8.81326C18.3042 8.88916 18.1499 8.95242 18.0942 8.95444C18.0386 8.95596 17.9303 8.91143 17.8538 8.85475C17.7663 8.78998 17.7147 8.70446 17.7147 8.62501C17.7147 8.55568 17.7314 8.46054 17.7526 8.41399Z" fill="#111111"/>
<path d="M18.8776 10.7124C18.7005 10.5424 18.6008 10.4129 18.6382 10.4002C18.6726 10.3886 18.9687 10.3774 19.2961 10.3749C19.8877 10.3709 19.8907 10.3719 19.9934 10.51C20.0501 10.5869 20.0967 10.6947 20.0967 10.7504C20.0972 10.806 20.0562 10.9052 20.0066 10.9705C19.9398 11.0586 19.8492 11.097 19.663 11.1168C19.5238 11.1319 19.3472 11.1294 19.2708 11.1117C19.1939 11.094 19.1422 11.0626 19.1559 11.0414C19.1691 11.0206 19.0441 10.8728 18.8776 10.7124Z" fill="#111111"/>
<path d="M16.5619 6.14591C16.6469 6.00675 16.7618 5.85291 16.8169 5.80433C16.8721 5.75575 16.9718 5.71577 17.0376 5.71577C17.1039 5.71577 17.2152 5.77245 17.2845 5.84228C17.3544 5.91161 17.4105 6.01991 17.4095 6.08265C17.4085 6.1454 17.3174 6.36148 17.2071 6.56339C17.0968 6.7653 16.989 6.93027 16.9683 6.92977C16.9475 6.92926 16.8124 6.80984 16.4076 6.39893L16.5619 6.14591Z" fill="#111111"/>
<path d="M18.2101 8.10986C18.2298 8.07697 18.451 7.93477 18.7015 7.79358C18.952 7.6529 19.1913 7.53702 19.2328 7.53601C19.2743 7.53499 19.3715 7.58054 19.4479 7.63721C19.5537 7.71515 19.5871 7.78245 19.5871 7.91706C19.5871 8.02029 19.5501 8.12858 19.4985 8.17666C19.4499 8.2222 19.2561 8.3477 19.0684 8.45498C18.8806 8.56277 18.7096 8.65132 18.6888 8.65132C18.6681 8.65183 18.5436 8.54354 18.4125 8.41095C18.2698 8.26724 18.1883 8.14579 18.2101 8.10986Z" fill="#111111"/>
<path d="M11.8688 6.62665C11.9174 6.52898 12.0272 6.37565 12.1132 6.28507C12.1987 6.19449 12.2751 6.12061 12.2827 6.12061C12.2903 6.12061 12.2868 6.13781 12.2746 6.15856C12.263 6.17931 12.3652 6.31037 12.7503 6.70256L12.6263 6.84172C12.5489 6.92876 12.5024 7.04262 12.5024 7.14534C12.5019 7.26173 12.6517 7.56941 13.012 8.19538C13.2923 8.68219 13.5317 9.1265 13.5438 9.18216C13.556 9.23783 13.1749 8.89777 12.6937 8.4231C12.2139 7.94995 11.8015 7.51728 11.7777 7.46162C11.7539 7.40595 11.7448 7.23542 11.7575 7.08209C11.7701 6.92876 11.8202 6.72432 11.8688 6.62665Z" fill="#111111"/>
<path d="M15.6019 10.5475C14.9547 9.42101 14.4254 8.47067 14.4254 8.43575C14.4248 8.40083 14.8165 8.75962 15.2947 9.23277C15.773 9.70591 16.1434 10.0576 16.1171 10.0141C16.0913 9.97057 16.1156 9.99233 16.1712 10.0617C16.2269 10.1315 16.4131 10.338 16.5852 10.5201C16.8605 10.8121 16.8893 10.8612 16.8245 10.928C16.7603 10.9948 16.8286 11.139 17.3857 12.1172C17.7349 12.7295 18.0345 13.2988 18.0512 13.3823C18.0684 13.4658 18.0669 13.5797 18.0482 13.6353C18.0193 13.7224 17.9368 13.6581 17.447 13.1677C17.1353 12.8545 16.8569 12.5979 16.8291 12.5974C16.8013 12.5964 16.2492 11.6739 15.6019 10.5475Z" fill="#111111"/>
<path d="M8.44131 11.5833C8.48989 11.5823 8.68928 11.4467 8.88411 11.2822C9.07894 11.1178 9.25201 10.9822 9.26871 10.9811C9.28541 10.9796 9.40483 11.1036 9.7697 11.5353L9.38459 11.8515C9.17306 12.0256 8.96255 12.1749 8.9165 12.184C8.86893 12.1931 8.72116 12.0853 8.56985 11.931C8.42512 11.7827 8.31683 11.6446 8.32948 11.6238C8.34213 11.6031 8.39273 11.5848 8.44131 11.5833Z" fill="#111111"/>
<path d="M11.1249 14.4435C11.1193 14.4146 11.3643 14.3084 11.6694 14.2072C11.9746 14.1065 12.264 14.0214 12.3126 14.0194C12.3612 14.0169 12.39 14.0321 12.3764 14.0528C12.3632 14.0736 12.4771 14.2102 12.6294 14.3564C12.7939 14.5133 12.8814 14.6307 12.844 14.6439C12.809 14.6555 12.5474 14.7355 12.262 14.821C11.9766 14.9065 11.715 14.9758 11.68 14.9758C11.6451 14.9753 11.5085 14.867 11.3759 14.7355C11.2433 14.6034 11.13 14.4718 11.1249 14.4435Z" fill="#111111"/>
<path fill-rule="evenodd" clip-rule="evenodd" d="M8.2642 11.5884C8.31278 11.5869 8.34213 11.6031 8.32897 11.6238C8.31581 11.6446 8.44637 11.8004 8.61995 11.9694C8.87551 12.2199 9.0673 12.5053 10.3517 14.7117L11.0601 14.4151L11.3875 14.7334C11.5672 14.909 11.8703 15.2572 12.0601 15.5077C12.2504 15.7582 12.431 16.0426 12.4619 16.1402C12.5049 16.2753 12.5029 16.371 12.4523 16.5451C12.4128 16.6807 12.3227 16.8274 12.2291 16.9084C12.1431 16.9828 12.0444 17.04 12.01 17.0349C11.9761 17.0299 11.384 16.4616 10.6942 15.7713C10.005 15.0816 9.42963 14.529 9.41546 14.5437C9.40129 14.5578 9.11689 14.1024 8.7829 13.5311C8.4489 12.9598 8.17007 12.4932 8.16299 12.4947C8.1559 12.4957 8.04761 12.5534 7.69489 12.7498L7.44187 12.522C7.3027 12.3965 7.19441 12.266 7.20149 12.2311C7.20858 12.1967 7.43073 12.0383 7.69489 11.8794C7.95905 11.721 8.21562 11.5899 8.2642 11.5884ZM11.1487 15.9069C11.3643 16.2025 11.5591 16.4439 11.5814 16.4439C11.6036 16.4439 11.6476 16.4155 11.679 16.3806C11.722 16.3325 11.6487 16.1944 11.3678 15.7987C11.1659 15.5132 10.9797 15.2805 10.9544 15.281C10.9291 15.281 10.8739 15.3017 10.8324 15.326C10.7707 15.3619 10.8299 15.4707 11.1487 15.9069Z" fill="#111111"/>
<path d="M12.9325 25.25L12.5894 24.9079C12.4006 24.7197 12.2625 24.5486 12.2817 24.5279C12.301 24.5071 12.6375 24.4879 13.0297 24.4849C13.4214 24.4823 13.8672 24.4626 14.0205 24.4413C14.1733 24.4201 14.3768 24.3999 14.4719 24.3958C14.567 24.3918 14.6288 24.4059 14.6096 24.4267C14.5903 24.4474 14.7062 24.5932 14.8666 24.7505C15.15 25.0273 15.1551 25.037 15.0326 25.0643C14.9628 25.08 14.6384 25.1275 14.3115 25.1706C13.9846 25.2136 13.5403 25.249 12.9325 25.25ZM12.9325 25.25L12.4012 25.249C12.1087 25.2485 11.6649 25.2252 11.4144 25.1979C11.1639 25.17 10.714 25.1017 9.8709 24.9454L9.39471 24.452C9.13258 24.1807 8.92459 23.9444 8.93269 23.9277C8.94028 23.9105 9.17154 23.9591 9.44684 24.0355C9.72162 24.1119 10.1857 24.2243 10.4782 24.2845C10.7702 24.3447 11.298 24.4216 11.6512 24.4545C12.0039 24.4879 12.2822 24.5269 12.2696 24.5405C12.2569 24.5547 12.4006 24.7197 12.9325 25.25ZM17.1945 1.47818C16.8944 1.1786 16.6621 0.917991 16.6783 0.898761C16.6945 0.879532 16.8716 0.922039 17.072 0.993391C17.2724 1.06474 17.6757 1.23174 17.9677 1.36483C18.2597 1.49791 18.6701 1.70387 18.8786 1.82178C19.0876 1.9402 19.4631 2.17399 19.7136 2.34199C19.9641 2.50949 20.3173 2.76403 20.498 2.90775C20.6791 3.05146 20.9635 3.2974 21.1305 3.45427C21.2975 3.61115 21.4519 3.72349 21.4736 3.70325C21.4949 3.683 21.6543 3.80951 21.8279 3.9841C22.0009 4.15868 22.1603 4.28418 22.1821 4.26242C22.2039 4.24066 22.2216 4.33681 22.2216 4.47597C22.2221 4.65157 22.1907 4.7715 22.1188 4.86815C22.0161 5.00681 22.0151 5.00731 20.751 5.00731M17.1945 1.47818C17.4945 1.77725 17.7172 2.02268 17.6894 2.02268C17.6615 2.02319 17.8781 2.1502 18.1701 2.30556C18.4621 2.46142 18.9176 2.73013 19.1822 2.90319C19.4469 3.07626 19.8907 3.40164 20.169 3.62582C20.4474 3.85 20.7206 4.08278 20.7763 4.14249L20.8775 4.25179C20.2697 4.24876 20.082 4.26546 20.0688 4.28621C20.0557 4.30695 20.2034 4.478 20.3978 4.66574L20.751 5.00731M17.1945 1.47818C17.4945 1.77725 17.7116 2.02217 17.6767 2.02217C17.6418 2.02167 17.3458 1.91641 17.0189 1.78838C16.692 1.65985 16.071 1.46603 15.6399 1.35774C15.2087 1.24945 14.8327 1.1619 14.8049 1.16342C14.7771 1.16443 14.5797 0.988331 14.3661 0.771239C14.1521 0.554653 13.9881 0.359827 14.0013 0.339079C14.0144 0.318332 14.064 0.301126 14.1116 0.301126C14.1587 0.301126 14.4709 0.346164 14.8049 0.400816C15.1389 0.455469 15.5943 0.547569 15.817 0.605257C16.0397 0.662946 16.3357 0.744925 16.4749 0.787938C16.614 0.830446 16.7102 0.880544 16.6884 0.899774C16.6667 0.918497 16.8944 1.1786 17.1945 1.47818ZM20.751 5.00731L19.8527 5.00883C19.0542 5.01035 18.9454 5.00074 18.872 4.92028C18.8265 4.87068 18.7754 4.77909 18.7582 4.71634C18.7394 4.64954 18.7602 4.54935 18.8077 4.47344C18.8523 4.40209 18.9378 4.32416 18.9975 4.29936C19.0572 4.27457 19.3285 4.25331 19.5997 4.25129C19.871 4.24977 20.0769 4.26799 20.0567 4.29177C20.0369 4.31606 20.1847 4.4866 20.751 5.00731ZM24.434 8.71458C24.3586 8.63766 24.3085 8.5577 24.3232 8.53696C24.3379 8.5157 24.3945 8.52178 24.4482 8.54961C24.5023 8.57744 24.5686 8.64019 24.5954 8.68877C24.6228 8.73735 24.6283 8.79453 24.6081 8.81579C24.5884 8.83704 24.5099 8.7915 24.434 8.71458ZM24.434 8.71458C24.5099 8.7915 24.5879 8.83704 24.6071 8.81579C24.6268 8.79453 24.687 8.9256 24.7412 9.10625C24.7948 9.28691 24.897 9.69731 24.9674 10.0171C25.0382 10.3369 25.1217 10.7813 25.1531 11.0039C25.1845 11.2266 25.1971 11.4432 25.1815 11.4847C25.1602 11.5403 25.0484 11.4593 24.3708 10.8015L24.2625 10.2955C24.2033 10.0171 24.0955 9.5961 24.0226 9.35928C23.9502 9.12245 23.891 8.88815 23.892 8.83805C23.8925 8.78846 23.9477 8.6913 24.015 8.62298C24.0818 8.55467 24.1835 8.499 24.2402 8.499C24.2974 8.499 24.3333 8.51621 24.3202 8.53696C24.307 8.55771 24.3586 8.63766 24.434 8.71458ZM7.44187 12.522C7.3027 12.397 7.19542 12.2715 7.20352 12.2437C7.21161 12.2159 7.19491 12.1946 7.16556 12.1967C7.13672 12.1987 6.93076 12.3095 6.70809 12.4431C6.46974 12.5863 6.19243 12.8085 6.03353 12.9835L5.76431 13.2811C6.31742 13.8226 6.33665 13.8322 6.39232 13.7365C6.4247 13.6809 6.52085 13.5594 6.60536 13.4663C6.68937 13.3732 6.94088 13.1925 7.16354 13.065C7.3862 12.938 7.59672 12.8145 7.63163 12.7918C7.67667 12.7619 7.62253 12.6845 7.44187 12.522ZM7.44187 12.522L7.69489 12.7498C8.04761 12.5534 8.1559 12.4957 8.16299 12.4947C8.17007 12.4932 8.44891 12.9598 8.7829 13.5311C9.11689 14.1024 9.40129 14.5578 9.41546 14.5437C9.42963 14.529 10.005 15.0816 10.6942 15.7713C11.384 16.4616 11.9761 17.0299 12.01 17.0349C12.0444 17.04 12.1431 16.9828 12.2291 16.9084C12.3227 16.8274 12.4128 16.6807 12.4523 16.5451C12.5029 16.371 12.5049 16.2753 12.4619 16.1402C12.431 16.0426 12.2504 15.7582 12.0601 15.5077C11.8703 15.2572 11.5672 14.909 11.3875 14.7334L11.0601 14.4151L10.3517 14.7117C9.0673 12.5053 8.87551 12.2199 8.61995 11.9694C8.44638 11.8004 8.31581 11.6446 8.32897 11.6238C8.34213 11.6031 8.31278 11.5869 8.2642 11.5884C8.21562 11.5899 7.95905 11.721 7.69489 11.8794C7.43073 12.0383 7.20858 12.1967 7.20149 12.2311C7.19441 12.266 7.3027 12.3965 7.44187 12.522ZM3.68343 4.13186C3.47291 4.34896 3.25278 4.58932 3.19509 4.66574L3.08984 4.8049L3.5888 5.33624C4.35901 4.52101 4.58572 4.27052 4.58926 4.25382C4.59331 4.23661 4.47742 4.11365 4.33168 3.98005L4.06702 3.73715L3.68343 4.13186ZM20.7004 21.4081L20.169 21.9147L20.7004 22.4152C20.9554 22.2092 21.1943 21.9931 21.3962 21.8018L21.7631 21.4537C21.3982 21.022 21.2788 20.898 21.2621 20.8996C21.2454 20.9011 20.9924 21.1298 20.7004 21.4081ZM0.636499 15.8999C0.656234 15.9904 0.726575 16.2409 0.793374 16.4565C0.87333 16.7171 0.952274 16.8745 1.02768 16.9251C1.09043 16.9671 1.19366 17.001 1.25793 17.001C1.32169 17.0005 1.42998 16.9438 1.4983 16.874C1.56662 16.8042 1.62228 16.7019 1.62228 16.6463C1.62228 16.5906 1.60508 16.5552 1.58433 16.5678C1.56358 16.5805 1.35307 16.3983 1.11623 16.163C0.879403 15.9272 0.666862 15.7349 0.643077 15.7349C0.619293 15.7354 0.616257 15.8093 0.636499 15.8999ZM3.44305 20.5585C3.35044 20.6491 3.32565 20.724 3.33324 20.8874C3.34184 21.0772 3.37625 21.1308 3.65914 21.396C3.83322 21.5589 4.14596 21.8464 4.35495 22.0341C4.56345 22.2218 4.90503 22.5057 5.11403 22.6646C5.32252 22.824 5.66411 23.0685 5.8731 23.2086C6.0816 23.3483 6.41205 23.5527 6.60688 23.6631C6.80171 23.7729 7.21161 23.9793 7.51777 24.121C7.82393 24.2627 8.27937 24.4505 8.52987 24.5385C8.78036 24.6261 9.17002 24.748 9.39622 24.8092C9.73376 24.9003 9.80005 24.9064 9.76665 24.8442C9.74439 24.8027 9.54348 24.5861 9.32032 24.3634C9.09664 24.1408 8.92357 23.9469 8.93521 23.9333C8.94685 23.9196 8.71255 23.8088 8.41398 23.6878C8.11592 23.5669 7.63315 23.3422 7.34065 23.1884C7.04815 23.034 6.61599 22.7825 6.37915 22.6292C6.14283 22.4759 5.77797 22.2193 5.56947 22.0594C5.36048 21.8995 5.0533 21.6419 4.88631 21.4871L4.58268 21.2052C5.73951 21.2017 6.07552 21.1834 6.07603 21.1627C6.07654 21.142 5.94091 20.9881 5.77442 20.8211C5.60844 20.6541 5.48294 20.5003 5.49559 20.4795C5.50824 20.4588 5.07861 20.4416 4.54067 20.4416C3.58626 20.4416 3.55944 20.4446 3.44305 20.5585ZM1.66732 6.93989C1.6238 7.00416 1.49526 7.26173 1.38089 7.51222C1.26653 7.76271 1.12787 8.08152 1.0717 8.22068L0.970486 8.4737C1.40012 8.90536 1.5408 9.0263 1.56054 9.02073C1.58078 9.01567 1.65973 8.8335 1.73665 8.6159C1.81357 8.39881 1.97297 8.02181 2.09088 7.7784C2.20879 7.5355 2.29381 7.33055 2.27913 7.32296C2.26446 7.31588 2.13896 7.2005 1.99929 7.0664L1.74626 6.82299L1.66732 6.93989ZM17.74 23.4035C17.5451 23.4971 17.1864 23.6489 16.9424 23.741C16.6985 23.8326 16.4996 23.9307 16.5001 23.9586C16.5007 23.9864 16.6206 24.1276 16.7663 24.2718L17.0315 24.535C17.3453 24.4085 17.6641 24.2723 17.9424 24.1499C18.2207 24.0279 18.5051 23.8928 18.575 23.8498L18.7015 23.7719C18.2698 23.3468 18.1332 23.2258 18.1195 23.2284C18.1053 23.2314 17.9348 23.3098 17.74 23.4035ZM0.440157 10.4726C0.424975 10.5424 0.376395 10.8723 0.332368 11.2063C0.288848 11.5403 0.259497 12.0185 0.267088 12.269C0.275691 12.5392 0.302005 12.7199 0.331862 12.7133C0.359695 12.7072 0.513534 12.8322 0.673952 12.9916L0.965437 13.2811C0.965943 12.6536 0.987703 12.2093 1.01452 11.8895C1.04084 11.5697 1.07778 11.2048 1.096 11.0798C1.11472 10.9503 1.11017 10.8688 1.08486 10.8916C1.06057 10.9128 0.911796 10.799 0.754414 10.6385C0.477605 10.3552 0.46799 10.3501 0.440157 10.4726ZM3.34893 22.4111C3.34337 23.617 3.34792 23.6853 3.44407 23.7815C3.50682 23.8442 3.61258 23.8827 3.72239 23.8827C3.857 23.8827 3.9243 23.8493 4.00223 23.7435C4.09686 23.6155 4.10547 23.5315 4.10344 22.7061L4.10192 21.8079C3.58576 21.3176 3.41775 21.1678 3.39549 21.1587C3.37322 21.149 3.35197 21.7128 3.34893 22.4111ZM0.843982 8.87854C0.772123 9.10119 0.656743 9.52222 0.586908 9.81471L0.459384 10.3461C0.909768 10.7964 1.05804 10.9103 1.07929 10.8895C1.10055 10.8688 1.17443 10.59 1.24275 10.2702C1.31107 9.95033 1.41329 9.55157 1.46997 9.38458C1.52664 9.21758 1.57371 9.04654 1.57371 9.00505C1.57421 8.96355 1.55701 8.94685 1.53525 8.96861C1.51349 8.98986 1.37837 8.88764 1.23465 8.74089L0.974037 8.4737L0.843982 8.87854ZM15.9688 24.0613C15.7461 24.1276 15.3534 24.2232 15.0964 24.2728C14.8393 24.3224 14.6192 24.3862 14.6065 24.414C14.5944 24.4419 14.7138 24.5967 14.8717 24.7576L15.1591 25.0511C15.983 24.8482 16.3984 24.7333 16.614 24.665L17.0062 24.5405C16.5943 24.079 16.4521 23.9439 16.4242 23.9424C16.3964 23.9414 16.1915 23.9945 15.9688 24.0613ZM0.250894 13.2097C0.253425 13.4855 0.291378 13.9789 0.334393 14.3058C0.377407 14.6327 0.451796 15.0715 0.498859 15.28C0.584888 15.6585 0.5859 15.6605 1.06563 16.1281C1.3303 16.3857 1.55802 16.585 1.57169 16.5709C1.58535 16.5567 1.55549 16.4029 1.50489 16.2288C1.45479 16.0547 1.35914 15.6848 1.29336 15.4065C1.22757 15.1282 1.138 14.6444 1.09448 14.3311C1.05045 14.0179 1.01554 13.6308 1.01655 13.4709C1.01705 13.311 1.00035 13.1976 0.978594 13.2194C0.956834 13.2406 0.818683 13.1384 0.670916 12.9916C0.523655 12.8444 0.367286 12.7209 0.324272 12.7164C0.257473 12.7093 0.24634 12.7842 0.250894 13.2097ZM5.50015 20.4795C5.48699 20.5003 5.62818 20.6739 5.8139 20.8651C6.15093 21.2123 6.15194 21.2123 6.37916 21.1829C6.50415 21.1667 6.64737 21.1131 6.69696 21.0635C6.74756 21.0129 6.78653 20.9006 6.78552 20.8085C6.78451 20.7133 6.74149 20.6015 6.68279 20.5428C6.59474 20.4547 6.51428 20.4416 6.05276 20.4416C5.76178 20.4416 5.51331 20.4588 5.50015 20.4795ZM21.5596 1.68313C21.4417 1.7985 21.4402 1.81419 21.4498 2.72051L21.4595 3.641C21.9888 4.14451 22.1598 4.28115 22.1806 4.26951C22.2013 4.25787 22.2195 3.70729 22.22 3.0464C22.2221 1.9154 22.216 1.83646 22.1188 1.70539C22.0424 1.60216 21.9726 1.56623 21.8476 1.56623C21.7393 1.56623 21.6361 1.60823 21.5596 1.68313ZM8.47927 0.978716C8.22877 1.07031 7.90338 1.20036 7.75612 1.26716C7.60886 1.33446 7.48842 1.40075 7.48842 1.41442C7.48893 1.42808 7.61494 1.55915 7.76877 1.70539L8.04913 1.97106C8.34314 1.84101 8.67005 1.72108 8.96558 1.62139C9.26061 1.5217 9.5111 1.42504 9.52224 1.40733C9.53286 1.38962 9.42255 1.24742 9.2763 1.09106C9.13005 0.93469 8.99342 0.80818 8.97267 0.809698C8.95192 0.811216 8.72976 0.887122 8.47927 0.978716ZM23.9366 16.4186C23.8465 16.6969 23.7185 17.0501 23.6522 17.2029L23.5317 17.4812C23.9457 17.8942 24.0828 18.0136 24.1036 18.0131C24.1243 18.0131 24.2174 17.8248 24.3105 17.5951C24.4037 17.3654 24.5307 17.0182 24.5929 16.8234C24.6552 16.6286 24.6982 16.4692 24.6881 16.4692C24.6784 16.4692 24.5423 16.3437 24.3854 16.1908L24.1005 15.9125L23.9366 16.4186ZM5.7719 2.35262C5.50774 2.53176 5.28963 2.70735 5.28761 2.74227C5.28559 2.77719 5.37667 2.90319 5.49003 3.02161C5.60339 3.14053 5.72433 3.23718 5.75925 3.23667C5.79417 3.23667 6.05225 3.08233 6.3326 2.89459L6.8427 2.55301C6.4247 2.14008 6.29212 2.02167 6.27795 2.02319C6.26378 2.02521 6.03606 2.17297 5.7719 2.35262ZM22.6067 19.1765C22.4209 19.4548 22.2686 19.7109 22.2681 19.7458C22.2681 19.7807 22.3602 19.9001 22.4741 20.0115C22.5874 20.1228 22.7074 20.2174 22.7403 20.222C22.7737 20.2265 22.9543 20.0044 23.1421 19.7286C23.3298 19.4528 23.4811 19.2099 23.4781 19.1891C23.4751 19.1684 23.3536 19.0429 23.2084 18.9108L22.9437 18.6699L22.6067 19.1765ZM4.77448 3.10257C4.53005 3.30752 4.27247 3.53676 4.20315 3.61216L4.07663 3.7493L4.60799 4.24825C5.17679 3.75385 5.43841 3.53726 5.55683 3.44871L5.7719 3.28677C5.37971 2.93406 5.27445 2.80856 5.28508 2.78073C5.29571 2.7529 5.28508 2.73013 5.2618 2.73013C5.23852 2.73013 5.0194 2.89763 4.77448 3.10257ZM22.0546 19.9517C21.967 20.0681 21.7514 20.3282 21.5758 20.5301L21.257 20.897L21.757 21.4284C22.0439 21.1541 22.2732 20.892 22.4518 20.6693C22.6305 20.4467 22.7762 20.2473 22.7757 20.2265C22.7757 20.2058 22.7524 20.2002 22.7246 20.2139C22.6967 20.228 22.5702 20.1268 22.4437 19.9897L22.214 19.7402L22.0546 19.9517ZM12.1547 0.297078C12.1653 0.322886 12.3156 0.493422 12.4897 0.676609L12.806 1.00958C13.5317 1.01465 13.9527 1.04349 14.2103 1.07638C14.4674 1.10927 14.6784 1.12446 14.6784 1.11079C14.6789 1.09713 14.5185 0.927606 14.3216 0.73531C14.1248 0.542508 13.9765 0.365899 13.9922 0.343128C14.0079 0.31985 13.9466 0.289487 13.8561 0.275318C13.7655 0.261149 13.3414 0.24951 12.9138 0.250016C12.4604 0.250016 12.1441 0.269752 12.1547 0.297078ZM24.4107 11.0925C24.4284 11.2109 24.4715 11.636 24.5074 12.0367L24.5717 12.7665C25.0423 13.2178 25.1961 13.3393 25.2169 13.3277C25.2376 13.316 25.2508 12.9476 25.2462 12.5094C25.2412 12.0712 25.23 11.6613 25.2209 11.5985C25.2118 11.5358 25.187 11.4948 25.1663 11.5079C25.1455 11.5206 24.98 11.3834 24.7994 11.2038C24.6187 11.0236 24.4497 10.8769 24.4249 10.8769C24.3996 10.8774 24.3935 10.9741 24.4107 11.0925ZM9.69379 0.605763C9.38763 0.686224 9.11993 0.753021 9.09918 0.754034C9.07843 0.755552 9.06072 0.784902 9.06072 0.819819C9.06021 0.854736 9.16193 0.985295 9.28642 1.11079C9.41091 1.23629 9.50453 1.35015 9.4944 1.36381C9.48428 1.37748 9.51363 1.39215 9.55968 1.3962C9.60574 1.39974 9.82536 1.36078 10.048 1.30916C10.2707 1.25755 10.5839 1.19176 10.7438 1.16292C10.9038 1.13407 11.0293 1.09005 11.0222 1.06474C11.0151 1.03944 10.8901 0.891677 10.7438 0.735816C10.5677 0.548581 10.4397 0.453951 10.3643 0.456481C10.3016 0.458505 9.99995 0.525809 9.69379 0.605763ZM24.3237 14.9627C24.2716 15.2344 24.1982 15.5598 24.1613 15.6848L24.0934 15.9125C24.5033 16.3254 24.6506 16.4449 24.6855 16.4444C24.725 16.4439 24.8065 16.1989 24.9006 15.7987C24.9836 15.4439 25.0519 15.1251 25.0524 15.0902C25.0524 15.0553 24.9249 14.9075 24.7695 14.7613C24.6137 14.615 24.471 14.4895 24.4527 14.4819C24.434 14.4743 24.3758 14.6909 24.3237 14.9627ZM11.1866 0.328958C10.9225 0.366406 10.6659 0.39778 10.6173 0.399298C10.5687 0.401322 10.5293 0.430673 10.5298 0.46559C10.5303 0.500507 10.6558 0.65991 10.8081 0.819819L11.0854 1.11079C11.7327 1.03286 12.1082 1.01009 12.3379 1.01009C12.5676 1.00958 12.7498 0.988837 12.7427 0.963029C12.7357 0.937221 12.5879 0.766685 12.4138 0.583497C12.1173 0.27127 12.0844 0.251028 11.8825 0.256088C11.764 0.258619 11.4508 0.291511 11.1866 0.328958ZM24.5241 13.2431C24.5069 13.4866 24.4765 13.8539 24.4563 14.0599L24.4198 14.4339C24.851 14.8529 24.9993 14.9753 25.0271 14.9758C25.0549 14.9768 25.1066 14.778 25.142 14.5341C25.1769 14.2901 25.2204 13.9086 25.2386 13.6859C25.2579 13.4451 25.2523 13.2958 25.225 13.317C25.1997 13.3368 25.0534 13.228 24.9006 13.0762C24.7478 12.9238 24.6071 12.7993 24.5884 12.7999C24.5701 12.7999 24.5408 12.9997 24.5241 13.2431ZM6.85991 1.69527C6.58158 1.84961 6.34272 1.98675 6.32855 1.99991C6.31439 2.01307 6.4242 2.14312 6.57247 2.28835L6.84118 2.55301L8.02382 1.95791C7.59216 1.5389 7.44439 1.41695 7.41656 1.41594C7.38873 1.41492 7.13824 1.54093 6.85991 1.69527ZM22.9432 18.6451C23.264 18.9847 23.3971 19.1041 23.4457 19.1299C23.5216 19.1699 23.5742 19.0965 23.8176 18.6072L24.101 18.0379L23.5459 17.4812L22.9432 18.6451ZM2.74522 5.22238C2.57366 5.45213 2.43248 5.67377 2.43197 5.71577C2.43096 5.75778 2.52306 5.88277 2.63692 5.9941C2.75028 6.10543 2.87578 6.20208 2.91575 6.20916C2.95573 6.21625 3.04885 6.12516 3.12222 6.00675C3.1956 5.88833 3.33223 5.69503 3.42585 5.57661L3.59589 5.36154C3.23102 4.92989 3.11008 4.8049 3.09135 4.8049C3.07314 4.8049 2.91727 4.99264 2.74522 5.22238ZM19.7136 22.2218C19.4909 22.3899 19.3017 22.5533 19.2931 22.5852C19.285 22.6166 19.3927 22.7512 19.5334 22.8832L19.7895 23.1236C20.3188 22.7335 20.5268 22.5796 20.5926 22.53L20.713 22.4405C20.3031 22.0483 20.1695 21.9304 20.1513 21.9258C20.1331 21.9213 19.9362 22.0543 19.7136 22.2218ZM2.13289 6.11251C1.9993 6.32555 1.85204 6.57402 1.80649 6.6646L1.7235 6.82907L2.28926 7.36041C2.62174 6.77188 2.76748 6.5219 2.8277 6.42423C2.88843 6.32657 2.93751 6.22991 2.93802 6.20916C2.93802 6.18842 2.91525 6.18234 2.88742 6.19651C2.85958 6.21068 2.73307 6.10998 2.60656 5.97335L2.37681 5.72438L2.13289 6.11251ZM18.7263 22.8751C18.4621 23.0386 18.2228 23.1813 18.1949 23.1924C18.1671 23.2036 18.2698 23.3407 18.4226 23.4966L18.701 23.7805C19.0932 23.5573 19.3381 23.4095 19.498 23.3083L19.789 23.1241C19.373 22.6925 19.2419 22.57 19.2298 22.573C19.2171 22.5761 18.9909 22.7122 18.7263 22.8751ZM9.78235 10.4736L9.26365 10.9786L9.795 11.5322L10.8577 10.5338C10.4736 10.094 10.3481 9.96703 10.3314 9.96754C10.3147 9.96855 10.0678 10.1963 9.78235 10.4736ZM13.7169 13.6961C13.6471 13.7082 13.3282 13.7755 13.0084 13.8463C12.6886 13.9172 12.4103 14.0007 12.3905 14.0326C12.3693 14.0665 12.4442 14.1834 12.5676 14.3099C12.6845 14.4303 12.8207 14.5497 12.8693 14.5756C12.928 14.6064 13.1162 14.5892 13.4259 14.5239C13.6835 14.4703 14.0423 14.4116 14.2229 14.3939C14.4036 14.3757 14.5802 14.3514 14.6151 14.3397C14.6521 14.3276 14.5524 14.1975 14.3758 14.0275C14.2093 13.8676 14.0838 13.7193 14.0974 13.6986C14.1106 13.6778 14.059 13.6637 13.9826 13.6677C13.9061 13.6713 13.7867 13.6844 13.7169 13.6961ZM10.6932 15.7754C11.3961 16.4793 11.9887 17.0369 12.0105 17.0152C12.0322 16.9929 12.0489 17.0035 12.0484 17.0385C12.0474 17.0734 12.1461 17.2328 12.2671 17.3927C12.388 17.5526 12.5929 17.8375 12.7225 18.0252C12.8925 18.2722 12.9578 18.4159 12.9578 18.5439C12.9578 18.6416 12.9269 18.7949 12.8895 18.8855C12.8526 18.9761 12.6815 19.181 12.51 19.341C12.2615 19.5732 12.181 19.6223 12.1102 19.5844C12.0616 19.5585 11.2281 18.7443 10.2585 17.7753C8.72723 16.245 8.50508 16.0036 8.5653 15.9378C8.60376 15.8963 8.89018 15.7197 9.7697 15.2294L9.59258 14.9257C9.49542 14.7587 9.41546 14.5938 9.41546 14.5589C9.41546 14.5239 9.99033 15.0715 10.6932 15.7754ZM9.64318 16.1569C9.61535 16.166 10.0708 16.8143 10.6553 17.5966L11.718 19.0196L12.2073 18.5945C10.6654 16.5162 10.1907 15.9075 10.1578 15.9009C10.1254 15.8943 10.0075 15.9454 9.89621 16.0142C9.78488 16.0831 9.67102 16.1473 9.64318 16.1569ZM5.77089 15.7734C5.77038 15.7941 5.84629 15.9024 5.9394 16.0137C6.03302 16.1251 6.20406 16.29 6.31994 16.3806C6.43633 16.4712 6.54817 16.5329 6.56892 16.5182C6.58966 16.5036 6.43583 16.3214 6.22734 16.1129C6.01834 15.9049 5.8306 15.7349 5.80985 15.7349C5.78911 15.7354 5.77139 15.7526 5.77089 15.7734ZM5.67524 13.4962C5.61705 13.6146 5.53507 13.8423 5.49307 14.0022C5.45157 14.1621 5.41767 14.407 5.41868 14.5462C5.41969 14.6854 5.44398 14.9014 5.47282 15.0269C5.50218 15.1524 5.57555 15.364 5.63628 15.4971C5.697 15.6301 5.76937 15.7389 5.7972 15.7379C5.82504 15.7369 6.01329 15.9009 6.2152 16.1028C6.41711 16.3042 6.58158 16.4919 6.58006 16.5198C6.57854 16.5476 6.68684 16.6195 6.81993 16.6802C6.95302 16.7404 7.2106 16.8158 7.39126 16.8482C7.57192 16.8806 7.83405 16.8922 7.97322 16.8745C8.11238 16.8563 8.36844 16.7981 8.54252 16.7439C8.7166 16.6903 8.86994 16.6235 8.88411 16.5957C8.89828 16.5678 9.43874 17.2454 10.086 18.1011C11.1401 19.4953 11.2838 19.6648 11.465 19.7281C11.5874 19.7706 11.7377 19.7853 11.8445 19.765C11.9422 19.7468 12.05 19.7149 12.0844 19.6947C12.1259 19.6699 11.5323 19.0419 10.3284 17.8355C9.32791 16.8335 8.52532 15.9915 8.54505 15.9641C8.56783 15.9328 8.54404 15.9307 8.47927 15.9591C8.4236 15.9839 8.24142 16.0385 8.07443 16.081C7.82292 16.1448 7.72272 16.1478 7.49247 16.0972C7.33914 16.0638 7.11445 15.9859 6.993 15.9242C6.87155 15.8619 6.69089 15.7202 6.5912 15.6089C6.49201 15.4976 6.366 15.3043 6.31186 15.1788C6.2572 15.0533 6.20305 14.8144 6.19091 14.6474C6.17725 14.4566 6.1985 14.2497 6.24809 14.0908L6.32653 13.8377L5.7805 13.2811L5.67524 13.4962ZM12.7807 5.90099C12.725 5.91313 12.5935 5.96171 12.4882 6.00928C12.3834 6.05634 12.2878 6.11808 12.2767 6.14591C12.2655 6.17374 12.3581 6.29924 12.4826 6.42423C12.6947 6.63728 12.7265 6.65195 12.9801 6.65195C13.1805 6.65195 13.2797 6.67827 13.3611 6.75316C13.4219 6.80882 13.6805 7.21366 13.936 7.6524C14.1911 8.09164 14.4117 8.43777 14.4254 8.42209C14.439 8.4069 14.8322 8.77632 15.2983 9.24339C15.777 9.72363 16.1373 10.049 16.1262 9.99183C16.1156 9.93616 16.0245 9.75399 15.9238 9.58699C15.8236 9.42 15.7411 9.25503 15.7411 9.22011C15.7411 9.1852 15.7983 9.15686 15.8676 9.15686C15.9374 9.15686 16.068 9.18671 16.1586 9.22366C16.2492 9.26009 16.3787 9.36838 16.447 9.46403C16.528 9.57789 16.571 9.70743 16.5715 9.84001C16.572 9.95134 16.5331 10.1052 16.4855 10.1816L16.399 10.3208L16.8969 10.8521C17.0619 10.6952 17.1575 10.5358 17.2152 10.3967C17.281 10.2388 17.321 10.0293 17.322 9.84001C17.3225 9.63608 17.2871 9.4534 17.2127 9.28337C17.152 9.14421 17.0295 8.95444 16.9404 8.86133C16.8514 8.76822 16.6702 8.63766 16.5381 8.57036C16.406 8.50305 16.1783 8.43575 16.0321 8.42006C15.8716 8.40286 15.6758 8.41905 15.5387 8.46004L15.3109 8.52886C14.3429 6.8402 14.0382 6.3711 13.9051 6.24155C13.7609 6.10087 13.601 6.00624 13.4133 5.95007C13.2604 5.90402 13.0783 5.86961 13.0084 5.87315C12.9391 5.8767 12.8364 5.88935 12.7807 5.90099ZM18.0689 10.4726C18.0102 10.5313 17.9672 10.6431 17.9662 10.7382C17.9652 10.8425 18.0041 10.9396 18.0725 11.0039C18.1646 11.0904 18.2597 11.1066 18.7192 11.1163C19.0157 11.1228 19.2298 11.1168 19.1949 11.1036C19.16 11.0904 19.1428 11.0626 19.1559 11.0419C19.1696 11.0211 19.0481 10.8739 18.8862 10.715C18.7243 10.5561 18.6165 10.4159 18.6468 10.4027C18.6767 10.3901 18.5821 10.3774 18.4358 10.3754C18.2339 10.3724 18.1458 10.3956 18.0689 10.4726ZM11.8652 7.73994C11.8835 7.80168 11.843 7.93527 11.7615 8.08152C11.6881 8.2136 11.5515 8.43018 11.4579 8.56226L11.2878 8.80263C11.633 9.17508 11.764 9.2859 11.8015 9.28944C11.8389 9.29248 11.9781 9.13915 12.1102 8.94786L12.3506 8.60021C12.8045 9.36484 13.2427 10.1153 13.6177 10.7615C13.9922 11.4077 14.3105 11.9249 14.3241 11.9107C14.3378 11.8971 14.731 12.268 15.1971 12.7351C15.6723 13.2118 16.0356 13.5402 16.0245 13.4835C16.0133 13.4279 15.4653 12.4487 14.8064 11.3075C14.1475 10.1664 13.5717 9.19835 13.5261 9.15686C13.4512 9.08753 13.4502 9.09006 13.514 9.18216C13.5524 9.23782 13.2093 8.91345 12.7518 8.46105C12.2949 8.00916 11.9012 7.63924 11.8779 7.63873C11.8541 7.63873 11.8485 7.68428 11.8652 7.73994ZM16.8038 12.6232C16.8038 12.6374 16.9177 12.8419 17.0568 13.0787C17.2304 13.3737 17.3098 13.5645 17.3098 13.6859C17.3098 13.8135 17.2683 13.9056 17.1621 14.0149C17.0806 14.0984 16.9839 14.1657 16.947 14.1646C16.9101 14.1631 16.8514 14.1915 16.8164 14.2279C16.7653 14.2805 16.8063 14.3443 17.0315 14.5589C17.1843 14.7051 17.2926 14.8387 17.2719 14.8564C17.2511 14.8736 17.3023 14.8529 17.3857 14.8099C17.4692 14.7668 17.6104 14.656 17.699 14.5634C17.7881 14.4703 17.907 14.2922 17.9637 14.1667C18.0203 14.0412 18.0674 13.8762 18.0679 13.7998C18.0684 13.7234 18.0517 13.6708 18.031 13.6834C18.0102 13.6961 17.7425 13.4567 17.4364 13.1516C17.1302 12.8469 16.8625 12.5974 16.8417 12.5974C16.821 12.5979 16.8038 12.6091 16.8038 12.6232ZM11.0222 9.14826C10.8785 9.33397 10.6634 9.59408 10.544 9.72616L10.3264 9.96652L10.8324 10.5232C11.2049 10.1188 11.4331 9.85115 11.5793 9.66745C11.7256 9.48427 11.845 9.31677 11.845 9.29602C11.8445 9.27527 11.8217 9.2692 11.7939 9.28337C11.7661 9.29703 11.6396 9.19633 11.513 9.0597L11.2833 8.81022L11.0222 9.14826ZM14.3241 11.9279C14.3241 11.9624 14.5235 12.3404 14.7669 12.767L15.2097 13.5427C14.4254 13.5994 14.1683 13.6429 14.1329 13.6763C14.0807 13.7249 14.1293 13.7952 14.3732 14.028L14.6784 14.319H15.6399C15.9339 14.6383 16.1216 14.7785 16.2471 14.8367C16.3974 14.907 16.5781 14.9429 16.7785 14.9434C16.9455 14.944 17.1332 14.9171 17.196 14.8842C17.3078 14.826 17.3043 14.82 17.032 14.5594C16.8797 14.4131 16.7658 14.2765 16.779 14.2557C16.7927 14.2345 16.7238 14.195 16.6267 14.1672C16.485 14.1267 16.404 14.0457 16.2218 13.7623C16.0963 13.5675 15.9769 13.4071 15.9562 13.4056C15.9354 13.4046 15.9506 13.444 15.9906 13.4941C16.0305 13.5442 15.6718 13.1981 15.1935 12.725C14.7153 12.2518 14.3236 11.893 14.3241 11.9279ZM16.2021 6.78656C16.0801 6.991 15.9779 7.21973 15.9744 7.29564C15.9713 7.37762 16.0154 7.48034 16.0842 7.54866C16.1495 7.61444 16.2608 7.66403 16.3418 7.66403C16.4202 7.66403 16.5245 7.62962 16.5735 7.58813C16.6221 7.54663 16.7309 7.38723 16.8149 7.2339L16.9683 6.95558L16.4243 6.41563L16.2021 6.78656ZM17.9677 8.21157C17.87 8.27635 17.7734 8.36743 17.7526 8.41399C17.7314 8.46054 17.7147 8.55568 17.7147 8.62501C17.7147 8.70446 17.7663 8.78998 17.8538 8.85475C17.9303 8.91143 18.0386 8.95596 18.0942 8.95444C18.1499 8.95242 18.3042 8.88916 18.4373 8.81326L18.6792 8.67561C18.2825 8.28343 18.1833 8.15287 18.2025 8.13162C18.2217 8.11087 18.2167 8.09366 18.1909 8.09366C18.1656 8.09366 18.0649 8.14629 17.9677 8.21157ZM18.6382 10.4002C18.6008 10.4129 18.7005 10.5424 18.8776 10.7124C19.0441 10.8728 19.1691 11.0206 19.1559 11.0414C19.1422 11.0626 19.1939 11.094 19.2708 11.1117C19.3472 11.1294 19.5238 11.1319 19.663 11.1168C19.8492 11.097 19.9398 11.0586 20.0066 10.9705C20.0562 10.9052 20.0972 10.806 20.0967 10.7504C20.0967 10.6947 20.0501 10.5869 19.9934 10.51C19.8907 10.3719 19.8877 10.3709 19.2961 10.3749C18.9687 10.3774 18.6726 10.3886 18.6382 10.4002ZM16.817 5.80433C16.7618 5.85291 16.6469 6.00675 16.5619 6.14591L16.4076 6.39893C16.8124 6.80984 16.9475 6.92926 16.9683 6.92977C16.989 6.93027 17.0968 6.7653 17.2071 6.56339C17.3174 6.36148 17.4085 6.1454 17.4095 6.08265C17.4105 6.01991 17.3544 5.91161 17.2845 5.84228C17.2152 5.77245 17.1039 5.71577 17.0376 5.71577C16.9718 5.71577 16.8721 5.75575 16.817 5.80433ZM18.7015 7.79358C18.451 7.93477 18.2298 8.07697 18.2101 8.10986C18.1883 8.14579 18.2698 8.26724 18.4125 8.41095C18.5436 8.54354 18.6681 8.65183 18.6888 8.65132C18.7096 8.65132 18.8806 8.56277 19.0684 8.45498C19.2561 8.3477 19.4499 8.2222 19.4985 8.17666C19.5501 8.12858 19.5871 8.02029 19.5871 7.91706C19.5871 7.78245 19.5537 7.71515 19.4479 7.63721C19.3715 7.58054 19.2743 7.53499 19.2328 7.53601C19.1913 7.53702 18.952 7.6529 18.7015 7.79358ZM12.1132 6.28507C12.0272 6.37565 11.9174 6.52898 11.8688 6.62665C11.8202 6.72432 11.7701 6.92876 11.7575 7.08209C11.7448 7.23542 11.7539 7.40595 11.7777 7.46162C11.8015 7.51728 12.2139 7.94995 12.6937 8.4231C13.1749 8.89776 13.556 9.23783 13.5438 9.18216C13.5317 9.1265 13.2923 8.68219 13.012 8.19538C12.6517 7.56941 12.5019 7.26173 12.5024 7.14534C12.5024 7.04262 12.5489 6.92876 12.6263 6.84172L12.7503 6.70256C12.3652 6.31037 12.263 6.17931 12.2746 6.15856C12.2868 6.13781 12.2903 6.12061 12.2827 6.12061C12.2751 6.12061 12.1987 6.19449 12.1132 6.28507ZM14.4254 8.43575C14.4254 8.47067 14.9547 9.42101 15.6019 10.5475C16.2492 11.6739 16.8013 12.5964 16.8291 12.5974C16.8569 12.5979 17.1353 12.8545 17.447 13.1677C17.9368 13.6581 18.0193 13.7224 18.0482 13.6353C18.0669 13.5797 18.0684 13.4658 18.0512 13.3823C18.0345 13.2988 17.7349 12.7295 17.3857 12.1172C16.8286 11.139 16.7603 10.9948 16.8245 10.928C16.8893 10.8612 16.8605 10.8121 16.5852 10.5201C16.4131 10.338 16.2269 10.1315 16.1712 10.0617C16.1156 9.99233 16.0913 9.97057 16.1171 10.0141C16.1434 10.0576 15.773 9.70591 15.2947 9.23276C14.8165 8.75962 14.4248 8.40083 14.4254 8.43575ZM8.88411 11.2822C8.68928 11.4467 8.4899 11.5823 8.44131 11.5833C8.39273 11.5848 8.34213 11.6031 8.32948 11.6238C8.31683 11.6446 8.42512 11.7827 8.56985 11.931C8.72116 12.0853 8.86893 12.1931 8.9165 12.184C8.96255 12.1749 9.17306 12.0256 9.38459 11.8515L9.7697 11.5353C9.40483 11.1036 9.28541 10.9796 9.26871 10.9811C9.25201 10.9822 9.07894 11.1178 8.88411 11.2822ZM11.6694 14.2072C11.3643 14.3084 11.1193 14.4146 11.1249 14.4435C11.13 14.4718 11.2433 14.6034 11.3759 14.7355C11.5085 14.867 11.6451 14.9753 11.68 14.9758C11.715 14.9758 11.9766 14.9065 12.262 14.821C12.5474 14.7355 12.809 14.6555 12.844 14.6439C12.8814 14.6307 12.7939 14.5133 12.6294 14.3564C12.4771 14.2102 12.3632 14.0736 12.3764 14.0528C12.39 14.0321 12.3612 14.0169 12.3126 14.0194C12.264 14.0214 11.9746 14.1065 11.6694 14.2072ZM11.1487 15.9069C11.3643 16.2025 11.5591 16.4439 11.5814 16.4439C11.6036 16.4439 11.6476 16.4155 11.679 16.3806C11.722 16.3325 11.6487 16.1944 11.3678 15.7987C11.1659 15.5132 10.9797 15.2805 10.9544 15.281C10.9291 15.281 10.8739 15.3017 10.8324 15.326C10.7707 15.3619 10.8299 15.4707 11.1487 15.9069Z" stroke="#111111" stroke-width="0.5"/>
</svg>
