<svg width="28" height="25" viewBox="0 0 28 25" fill="none" xmlns="http://www.w3.org/2000/svg">
<path d="M18.4326 18.9788C18.4326 19.2076 18.3401 19.427 18.1755 19.5888C18.0109 19.7506 17.7876 19.8415 17.5549 19.8415H5.26646C5.07335 19.8415 4.88903 20.014 4.73103 20.1262L1.75549 22.4295V8.62673C1.75549 8.39793 1.84796 8.17851 2.01257 8.01672C2.17718 7.85494 2.40044 7.76405 2.63323 7.76405H6.02132V6.03871H2.63323C1.93485 6.03871 1.26508 6.31137 0.771255 6.79672C0.277429 7.28207 0 7.94034 0 8.62673V24.1548C0.00130634 24.315 0.0479836 24.4717 0.134801 24.6073C0.221618 24.743 0.345144 24.8521 0.491536 24.9226C0.632571 24.9856 0.78807 25.0109 0.942235 24.9957C1.0964 24.9806 1.24374 24.9256 1.36928 24.8363L5.88965 21.5668H17.6865C18.0192 21.5765 18.3503 21.5189 18.6595 21.3977C18.9686 21.2765 19.2491 21.0941 19.4836 20.862C19.7181 20.6299 19.9016 20.353 20.0228 20.0483C20.144 19.7437 20.2002 19.4178 20.1881 19.0909V18.1161H18.4326V18.9788Z" fill="#111111"/>
<path d="M25.4545 0H10.5329C9.83454 0 9.16477 0.272665 8.67094 0.758013C8.17711 1.24336 7.89969 1.90163 7.89969 2.58802V12.9401C7.89969 13.6265 8.17711 14.2847 8.67094 14.7701C9.16477 15.2554 9.83454 15.5281 10.5329 15.5281H22.4263L26.6219 18.7286C26.7467 18.8193 26.8936 18.8758 27.0478 18.8925C27.202 18.9091 27.3579 18.8853 27.4997 18.8235C27.6491 18.7536 27.7753 18.6436 27.8638 18.5062C27.9523 18.3689 27.9995 18.2097 28 18.0471V2.58802C28.0004 1.91632 27.735 1.27079 27.26 0.78785C26.785 0.304908 26.1376 0.0223898 25.4545 0ZM26.3323 16.339L23.2602 13.9839C23.107 13.8671 22.9187 13.8034 22.7248 13.8028H10.5329C10.3001 13.8028 10.0769 13.7119 9.91226 13.5501C9.74765 13.3883 9.65517 13.1689 9.65517 12.9401V2.58802C9.65517 2.35922 9.74765 2.1398 9.91226 1.97802C10.0769 1.81623 10.3001 1.72535 10.5329 1.72535H25.4545C25.6892 1.74627 25.9079 1.85079 26.0696 2.01922C26.2313 2.18764 26.3247 2.40835 26.3323 2.63978V16.339Z" fill="#111111"/>
</svg>
