<svg width="25" height="25" viewBox="0 0 25 25" fill="none" xmlns="http://www.w3.org/2000/svg">
<path d="M17.8571 25H7.14286C6.16071 25 5.35714 24.1964 5.35714 23.2143V20.5357H7.14286V23.2143H17.8571V20.5357H19.6429V23.2143C19.6429 24.1964 18.8393 25 17.8571 25ZM11.6071 11.4286V20.5357H13.3929V11.4286L15.7143 13.75L16.9643 12.5L12.5 8.03571L8.03572 12.5L9.28571 13.75L11.6071 11.4286Z" fill="#111111"/>
<path d="M20.3571 6.33929C19.5536 2.67857 16.3393 0 12.5 0C8.66071 0 5.44643 2.67857 4.64286 6.33929C1.96429 6.875 0 9.28571 0 12.0536C0 15.2679 2.58929 17.8571 5.80357 17.8571H8.92857V16.0714H5.80357C3.57143 16.0714 1.78571 14.2857 1.78571 12.0536C1.78571 10 3.39286 8.21428 5.44643 8.03571H6.25L6.33929 7.32143C6.69643 4.10714 9.375 1.78571 12.5 1.78571C15.625 1.78571 18.3036 4.10714 18.6607 7.23214L18.75 8.03571L19.4643 8.125C21.5179 8.30357 23.125 10.0893 23.125 12.1429C23.125 14.375 21.3393 16.1607 19.1071 16.1607H16.0714V17.9464H19.1964C22.4107 17.9464 25 15.3571 25 12.1429C25 9.28571 23.0357 6.875 20.3571 6.33929Z" fill="#111111"/>
</svg>
