<svg width="11" height="12" viewBox="0 0 11 12" fill="none"
                                xmlns="http://www.w3.org/2000/svg">
                                <path
                                    d="M2.47268 12H0.194625V3.98878H2.47268V12ZM1.33167 2.89561C1.06947 2.89689 0.812808 2.81323 0.594144 2.65522C0.37548 2.4972 0.204632 2.27192 0.103205 2.00786C0.00177831 1.74381 -0.025672 1.45283 0.0243254 1.17174C0.0743228 0.890644 0.199522 0.632053 0.384092 0.428666C0.568661 0.225279 0.804311 0.0862306 1.06124 0.0291044C1.31817 -0.0280218 1.58485 -0.00066019 1.82754 0.107729C2.07023 0.216119 2.27804 0.400668 2.42469 0.638039C2.57134 0.875411 2.65025 1.15494 2.65143 1.44129C2.6517 1.82484 2.51312 2.19296 2.2659 2.46538C2.01868 2.73781 1.68286 2.89246 1.33167 2.89561ZM10.997 11.9989H8.72393V8.09471C8.72393 7.16529 8.70705 5.97342 7.53922 5.97342C6.35451 5.97342 6.17378 6.98309 6.17378 8.02747V11.9935H3.8987V3.98878H6.08341V5.08196H6.11519C6.33341 4.67299 6.64922 4.33641 7.02893 4.10816C7.40863 3.87991 7.83797 3.76855 8.2711 3.78598C10.576 3.78598 11 5.44419 11 7.59692V11.9978L10.997 11.9989Z"
                                    fill="#111111" />
                            </svg>