<svg width="13" height="15" viewBox="0 0 13 15" fill="none" xmlns="http://www.w3.org/2000/svg">
<path d="M4.12706e-08 1.94975C0.000161107 1.60032 0.0941818 1.25735 0.272234 0.95669C0.450286 0.656029 0.705833 0.408714 1.01216 0.240599C1.31849 0.0724832 1.66435 -0.0102605 2.0136 0.00101626C2.36285 0.012293 2.70265 0.117176 2.9975 0.304703L11.7182 5.85365C11.9951 6.02983 12.223 6.27301 12.3809 6.56067C12.5388 6.84834 12.6216 7.17119 12.6216 7.49935C12.6216 7.82751 12.5388 8.15036 12.3809 8.43803C12.223 8.72569 11.9951 8.96887 11.7182 9.14505L2.9975 14.6953C2.70256 14.8829 2.36263 14.9878 2.01328 14.999C1.66392 15.0102 1.31796 14.9274 1.01159 14.7591C0.705222 14.5908 0.449696 14.3433 0.271737 14.0425C0.0937793 13.7416 -7.18494e-05 13.3985 4.12706e-08 13.049V1.94975Z" fill="#FFCC65"/>
</svg>
