<svg width="20" height="20" viewBox="0 0 20 20" fill="none" xmlns="http://www.w3.org/2000/svg">
<rect width="20" height="20" rx="10" fill="#FFCC65"/>
<path d="M14.6944 6.62954C14.6293 6.56393 14.5519 6.51186 14.4666 6.47632C14.3813 6.44078 14.2898 6.42249 14.1974 6.42249C14.105 6.42249 14.0135 6.44078 13.9282 6.47632C13.8429 6.51186 13.7655 6.56393 13.7004 6.62954L8.48538 11.8515L6.29438 9.65354C6.22681 9.58828 6.14705 9.53696 6.05965 9.50251C5.97226 9.46807 5.87893 9.45118 5.785 9.45281C5.69108 9.45443 5.59839 9.47454 5.51223 9.51199C5.42608 9.54943 5.34814 9.60348 5.28288 9.67104C5.21761 9.73861 5.16629 9.81837 5.13185 9.90577C5.0974 9.99317 5.08051 10.0865 5.08214 10.1804C5.08376 10.2743 5.10387 10.367 5.14132 10.4532C5.17876 10.5393 5.23281 10.6173 5.30038 10.6825L7.98838 13.3705C8.05345 13.4362 8.13087 13.4882 8.21617 13.5238C8.30147 13.5593 8.39297 13.5776 8.48538 13.5776C8.57779 13.5776 8.66928 13.5593 8.75458 13.5238C8.83988 13.4882 8.9173 13.4362 8.98238 13.3705L14.6944 7.65854C14.7654 7.59299 14.8221 7.51344 14.8609 7.42489C14.8997 7.33634 14.9197 7.24072 14.9197 7.14404C14.9197 7.04737 14.8997 6.95175 14.8609 6.8632C14.8221 6.77465 14.7654 6.69509 14.6944 6.62954Z" fill="#111111" fill-opacity="0.8"/>
</svg>
