<svg width="11" height="10" viewBox="0 0 11 10" fill="none"
                                xmlns="http://www.w3.org/2000/svg">
                                <path
                                    d="M9.86756 2.49357C9.87488 2.60275 9.87488 2.71193 9.87488 2.82202C9.88072 3.76645 9.71881 4.70276 9.39858 5.57656C9.07835 6.45036 8.60616 7.24423 8.00946 7.91206C7.41276 8.57988 6.70344 9.10835 5.9227 9.46676C5.14196 9.82516 4.30537 10.0064 3.46153 9.99983C2.23428 10.0034 1.03224 9.61 0 8.86707C0.180864 8.88926 0.362733 8.89959 0.544675 8.898C1.55915 8.90071 2.54486 8.5209 3.34284 7.81983C2.87255 7.81011 2.41671 7.63628 2.03895 7.32262C1.66119 7.00895 1.38037 6.5711 1.23568 6.07019C1.3766 6.09516 1.519 6.10824 1.66167 6.10931C1.86191 6.10881 2.0613 6.08008 2.25512 6.02379C1.74447 5.90857 1.28523 5.59898 0.955477 5.14765C0.625722 4.69632 0.445804 4.1311 0.446308 3.54808V3.51715C0.757868 3.7129 1.10632 3.82357 1.46331 3.84015C0.985038 3.48296 0.646565 2.93499 0.516945 2.30805C0.387326 1.6811 0.47633 1.02243 0.765797 0.466422C1.33206 1.24612 2.03842 1.88393 2.83907 2.33848C3.63973 2.79302 4.5168 3.05417 5.41342 3.10499C5.37717 2.91505 5.35837 2.72145 5.35733 2.52723C5.3569 2.02067 5.49263 1.52567 5.74687 1.10657C6.00112 0.687479 6.36212 0.363669 6.78297 0.177228C7.20381 -0.00921309 7.66503 -0.049663 8.10669 0.0611364C8.54834 0.171936 8.95001 0.428862 9.25948 0.798519C9.76436 0.689618 10.2485 0.483348 10.6903 0.188917C10.5222 0.771914 10.1698 1.26624 9.69928 1.57917C10.1478 1.52251 10.5863 1.39094 11 1.18885C10.6909 1.69201 10.308 2.13312 9.86756 2.49357Z"
                                    fill="#111111" />
                            </svg>