<svg width="34" height="31" viewBox="0 0 34 31" fill="none" xmlns="http://www.w3.org/2000/svg">
<path d="M13.3111 5.70406C13.3111 4.8 13.6732 3.93296 14.3178 3.29369C14.9624 2.65441 15.8366 2.29527 16.7482 2.29527C17.6598 2.29527 18.5341 2.65441 19.1786 3.29369C19.8232 3.93296 20.1854 4.8 20.1854 5.70406C20.1854 6.60813 19.8232 7.47517 19.1786 8.11444C18.5341 8.75371 17.6598 9.11285 16.7482 9.11285C15.8366 9.11285 14.9624 8.75371 14.3178 8.11444C13.6732 7.47517 13.3111 6.60813 13.3111 5.70406ZM16.7482 0.25C15.2897 0.25 13.8909 0.824623 12.8596 1.84746C11.8282 2.87029 11.2488 4.25756 11.2488 5.70406C11.2488 7.15057 11.8282 8.53784 12.8596 9.56067C13.8909 10.5835 15.2897 11.1581 16.7482 11.1581C18.2068 11.1581 19.6055 10.5835 20.6369 9.56067C21.6682 8.53784 22.2476 7.15057 22.2476 5.70406C22.2476 4.25756 21.6682 2.87029 20.6369 1.84746C19.6055 0.824623 18.2068 0.25 16.7482 0.25ZM5.06198 6.38582C4.33271 6.38582 3.63332 6.67313 3.11765 7.18455C2.60198 7.69597 2.31228 8.3896 2.31228 9.11285C2.31228 9.83611 2.60198 10.5297 3.11765 11.0412C3.63332 11.5526 4.33271 11.8399 5.06198 11.8399C5.79125 11.8399 6.49065 11.5526 7.00631 11.0412C7.52198 10.5297 7.81168 9.83611 7.81168 9.11285C7.81168 8.3896 7.52198 7.69597 7.00631 7.18455C6.49065 6.67313 5.79125 6.38582 5.06198 6.38582ZM0.25 9.11285C0.25 8.48615 0.374465 7.86557 0.61629 7.28657C0.858115 6.70757 1.21256 6.18147 1.6594 5.73832C2.10623 5.29517 2.6367 4.94365 3.22052 4.70382C3.80433 4.46399 4.43006 4.34055 5.06198 4.34055C5.6939 4.34055 6.31963 4.46399 6.90345 4.70382C7.48726 4.94365 8.01773 5.29517 8.46457 5.73832C8.9114 6.18147 9.26585 6.70757 9.50767 7.28657C9.7495 7.86557 9.87396 8.48615 9.87396 9.11285C9.87396 10.3785 9.36699 11.5924 8.46457 12.4874C7.56214 13.3824 6.3382 13.8852 5.06198 13.8852C3.78576 13.8852 2.56182 13.3824 1.6594 12.4874C0.756975 11.5924 0.25 10.3785 0.25 9.11285ZM28.4345 6.38582C27.7052 6.38582 27.0058 6.67313 26.4901 7.18455C25.9745 7.69597 25.6848 8.3896 25.6848 9.11285C25.6848 9.83611 25.9745 10.5297 26.4901 11.0412C27.0058 11.5526 27.7052 11.8399 28.4345 11.8399C29.1637 11.8399 29.8631 11.5526 30.3788 11.0412C30.8945 10.5297 31.1842 9.83611 31.1842 9.11285C31.1842 8.3896 30.8945 7.69597 30.3788 7.18455C29.8631 6.67313 29.1637 6.38582 28.4345 6.38582ZM23.6225 9.11285C23.6225 7.84716 24.1295 6.63331 25.0319 5.73832C25.9343 4.84334 27.1582 4.34055 28.4345 4.34055C29.7107 4.34055 30.9346 4.84334 31.837 5.73832C32.7395 6.63331 33.2464 7.84716 33.2464 9.11285C33.2464 10.3785 32.7395 11.5924 31.837 12.4874C30.9346 13.3824 29.7107 13.8852 28.4345 13.8852C27.1582 13.8852 25.9343 13.3824 25.0319 12.4874C24.1295 11.5924 23.6225 10.3785 23.6225 9.11285ZM9.87396 16.2713C9.87396 14.9542 10.9518 13.8852 12.28 13.8852H21.2165C22.5446 13.8852 23.6225 14.9542 23.6225 16.2713V23.4298C23.6225 25.2379 22.8982 26.972 21.6091 28.2505C20.3199 29.5291 18.5714 30.2474 16.7482 30.2474C14.9251 30.2474 13.1766 29.5291 11.8874 28.2505C10.5982 26.972 9.87396 25.2379 9.87396 23.4298V16.2713ZM12.28 15.9304C12.1888 15.9304 12.1014 15.9663 12.0369 16.0303C11.9725 16.0942 11.9362 16.1809 11.9362 16.2713V23.4298C11.9362 24.6955 12.4432 25.9093 13.3456 26.8043C14.2481 27.6993 15.472 28.2021 16.7482 28.2021C18.0244 28.2021 19.2484 27.6993 20.1508 26.8043C21.0532 25.9093 21.5602 24.6955 21.5602 23.4298V16.2713C21.5602 16.1809 21.524 16.0942 21.4595 16.0303C21.3951 15.9663 21.3076 15.9304 21.2165 15.9304H12.28ZM8.49911 16.274L2.03318 17.9921C1.72794 18.0732 1.44181 18.2132 1.19113 18.4041C0.940458 18.5949 0.730148 18.8329 0.572218 19.1044C0.414287 19.3758 0.311829 19.6755 0.270696 19.9863C0.229564 20.297 0.250561 20.6127 0.332491 20.9154L1.48874 25.1955C1.7532 26.1752 2.23473 27.0841 2.89823 27.8558C3.56173 28.6275 4.39049 29.2428 5.32411 29.6566C6.25773 30.0704 7.27268 30.2725 8.29501 30.248C9.31734 30.2235 10.3213 29.9732 11.2337 29.5151C10.6978 29.0377 10.2272 28.4926 9.83409 27.8939C9.68469 27.9503 9.53162 27.9994 9.37489 28.0412C8.76446 28.2035 8.12777 28.2449 7.50119 28.1631C6.8746 28.0814 6.2704 27.878 5.72308 27.5646C5.17576 27.2512 4.69604 26.834 4.31133 26.3367C3.92661 25.8395 3.64443 25.2719 3.4809 24.6665L2.32465 20.385C2.30115 20.2977 2.31358 20.2047 2.35921 20.1264C2.40485 20.0482 2.47995 19.9911 2.568 19.9678L8.49911 18.3916V16.274ZM22.2641 29.5138C22.6812 29.7229 23.1239 29.8906 23.5922 30.0169C24.4643 30.2487 25.3738 30.3078 26.2689 30.1909C27.164 30.0741 28.0271 29.7835 28.809 29.3358C29.5908 28.888 30.2761 28.292 30.8256 27.5816C31.3752 26.8712 31.7782 26.0604 32.0118 25.1955L33.1681 20.9141C33.3331 20.3029 33.2467 19.6518 32.9278 19.1039C32.6088 18.5559 32.0835 18.156 31.4674 17.9921L24.9973 16.274V18.3902L30.9339 19.9678C31.0217 19.9914 31.0965 20.0486 31.1419 20.1268C31.1872 20.205 31.1995 20.2979 31.1759 20.385L30.021 24.6665C29.8469 25.3113 29.5383 25.9128 29.1151 26.432C28.692 26.9512 28.1637 27.3765 27.5644 27.6806C26.9651 27.9846 26.3082 28.1606 25.636 28.1971C24.9639 28.2336 24.2915 28.1299 23.6623 27.8926C23.2691 28.4925 22.7976 29.0379 22.2641 29.5138Z" fill="#111111" stroke="#ECECEC" stroke-width="0.5"/>
</svg>
