<svg width="34" height="31" viewBox="0 0 34 31" fill="none" xmlns="http://www.w3.org/2000/svg">
<mask id="path-1-outside-1_13672_7981" maskUnits="userSpaceOnUse" x="-0.899902" y="-0.900024" width="35" height="32" fill="black">
<rect fill="white" x="-0.899902" y="-0.900024" width="35" height="32"/>
<path d="M20.6175 5.07197C20.7959 5.21746 20.9691 5.36694 21.1405 5.52097C21.2012 5.57442 21.2012 5.57442 21.2631 5.62896C22.5028 6.7987 23.1162 8.54048 23.2303 10.2163C23.286 12.0838 22.5725 13.7577 21.3738 15.1357C20.2692 16.3177 18.6525 17.0967 17.0458 17.1562C15.1839 17.1827 13.4623 16.7191 12.0878 15.3815C11.991 15.2848 11.8954 15.187 11.8003 15.0885C11.7509 15.0382 11.7016 14.988 11.6508 14.9362C10.6712 13.8795 10.0387 12.3173 9.98412 10.8656C9.98078 10.804 9.97744 10.7424 9.97399 10.679C9.92609 9.06293 10.4264 7.4079 11.476 6.1808C11.5199 6.12747 11.5638 6.07414 11.609 6.01919C13.8771 3.343 17.8541 2.9711 20.6175 5.07197ZM12.4489 6.37875C12.4037 6.42391 12.3586 6.46908 12.3121 6.51561C11.3058 7.58885 10.796 9.13548 10.818 10.6022C10.8947 12.2187 11.523 13.5661 12.6435 14.6926C12.6907 14.7414 12.738 14.7901 12.7866 14.8403C13.3248 15.3634 13.9805 15.7036 14.6704 15.971C14.711 15.9868 14.7515 16.0025 14.7932 16.0188C16.1626 16.5211 17.6965 16.3717 19.0091 15.7744C19.6903 15.4364 20.2191 15.0353 20.7513 14.4947C20.8224 14.4235 20.8224 14.4235 20.895 14.3508C21.8815 13.2976 22.3521 11.8736 22.3891 10.4367C22.3522 8.92629 21.8109 7.55752 20.8162 6.44473C20.7577 6.37609 20.7577 6.37609 20.6981 6.30606C19.8082 5.32245 18.4116 4.66535 17.1066 4.58887C15.2906 4.52816 13.7459 5.06162 12.4489 6.37875Z"/>
<path d="M24.9674 15.4844C25.306 15.7513 25.3978 16.0606 25.5268 16.4659C26.0092 17.888 26.633 19.2687 27.6959 20.3365C27.844 20.5285 27.8755 20.6528 27.8862 20.895C27.7889 21.0889 27.7889 21.0889 27.6267 21.2249C27.4005 21.2423 27.2572 21.2182 27.0675 21.0852C26.0581 20.1347 25.4106 18.7398 24.9025 17.4639C24.8858 17.4224 24.8692 17.3809 24.852 17.3381C24.5782 16.6516 24.5782 16.6516 24.5782 16.4082C24.0619 16.6334 23.7064 16.8622 23.4512 17.3814C23.3452 17.9424 23.4232 18.5084 23.51 19.0668C23.5201 19.1349 23.5301 19.2029 23.5405 19.273C23.5724 19.4879 23.605 19.7028 23.6377 19.9177C23.6703 20.1332 23.7028 20.3488 23.7348 20.5645C23.7547 20.698 23.7749 20.8314 23.7955 20.9648C23.9315 21.8781 23.9315 21.8781 23.8016 22.1477C23.5842 22.2585 23.3601 22.2374 23.1228 22.2312C23.0669 22.2306 23.011 22.23 22.9533 22.2294C22.6053 22.2244 22.2581 22.2098 21.9105 22.1923C21.7917 22.1867 21.7917 22.1867 21.6705 22.181C21.5154 22.1734 21.3603 22.1647 21.2052 22.1548C20.5876 22.124 19.9211 22.1652 19.4193 22.5758C19.0231 22.9961 18.9196 23.4072 18.9247 23.9756C18.9412 24.3202 19.0014 24.6513 19.0679 24.9891C19.0817 25.0614 19.0955 25.1337 19.1097 25.2082C19.1388 25.3598 19.1682 25.5113 19.198 25.6627C19.2433 25.8934 19.2869 26.1243 19.3304 26.3554C19.359 26.5034 19.3877 26.6515 19.4166 26.7995C19.4294 26.8679 19.4423 26.9363 19.4555 27.0068C19.5562 27.5099 19.6867 27.9934 20.0865 28.3388C20.1462 28.3925 20.1462 28.3925 20.2071 28.4473C20.7331 28.7926 21.2498 28.7763 21.8578 28.7733C21.9533 28.7734 22.0488 28.7736 22.1443 28.7739C22.3442 28.7742 22.5441 28.7738 22.744 28.7728C22.997 28.7717 23.2498 28.7723 23.5028 28.7735C23.7002 28.7743 23.8976 28.774 24.095 28.7735C24.188 28.7734 24.2811 28.7735 24.3741 28.774C25.2026 28.7773 25.9943 28.6727 26.7916 28.4377C27.0627 28.3585 27.2806 28.3154 27.5619 28.3511C27.6875 28.4254 27.6875 28.4254 27.7565 28.5491C27.7894 28.7741 27.7941 28.8924 27.6607 29.0787C27.4324 29.2603 27.2039 29.3131 26.9254 29.3821C26.8512 29.4023 26.8512 29.4023 26.7755 29.4228C25.9416 29.6386 25.1041 29.692 24.2473 29.693C24.1504 29.6934 24.0534 29.6938 23.9565 29.6943C23.7551 29.6951 23.5538 29.6953 23.3525 29.6952C23.0968 29.6952 22.8412 29.697 22.5856 29.6993C22.386 29.7008 22.1865 29.701 21.9869 29.701C21.8928 29.7011 21.7986 29.7017 21.7044 29.7027C20.8201 29.7115 20.0465 29.5866 19.3892 28.945C18.853 28.4045 18.689 27.8102 18.55 27.0727C18.5338 26.9889 18.5175 26.905 18.5007 26.8186C18.467 26.645 18.4338 26.4714 18.4008 26.2976C18.354 26.0552 18.3047 25.8135 18.2544 25.5718C17.8106 23.4094 17.8106 23.4094 18.3514 22.4786C18.7437 21.9071 19.304 21.4623 19.973 21.2909C20.3725 21.2472 20.7759 21.2631 21.177 21.2703C21.2847 21.2711 21.3924 21.2717 21.5001 21.2722C21.6047 21.2731 21.7092 21.2741 21.8137 21.2752C21.8848 21.2759 21.8849 21.2759 21.9575 21.2767C22.2939 21.2829 22.6226 21.3153 22.9566 21.3569C22.9498 21.3159 22.9429 21.2748 22.9359 21.2325C22.8669 20.8175 22.799 20.4024 22.7319 19.9872C22.71 19.8526 22.688 19.7181 22.6658 19.5837C22.3177 17.4727 22.3177 17.4727 22.8715 16.5608C23.3469 15.8883 24.1197 15.3766 24.9674 15.4844Z"/>
<path d="M9.23694 15.6798C9.85519 15.9392 10.3021 16.3854 10.58 17.0005C10.8542 17.695 10.778 18.3981 10.6632 19.1225C10.6531 19.1889 10.643 19.2552 10.6326 19.3235C10.6007 19.5327 10.5681 19.7417 10.5355 19.9506C10.5135 20.0936 10.4917 20.2365 10.4698 20.3794C10.4166 20.7273 10.3628 21.0751 10.3084 21.4229C10.3462 21.4124 10.384 21.4018 10.4229 21.3909C10.6484 21.338 10.8768 21.337 11.1073 21.3291C11.16 21.3272 11.2126 21.3254 11.2668 21.3235C11.3783 21.3198 11.4898 21.3162 11.6013 21.3129C11.7698 21.3075 11.9381 21.3006 12.1065 21.2938C13.0296 21.2619 13.8011 21.3586 14.5247 22C15.0735 22.5799 15.2556 23.3302 15.2484 24.1126C15.2318 24.4532 15.1716 24.7804 15.1052 25.1141C15.0914 25.1859 15.0777 25.2578 15.0635 25.3318C15.0344 25.4825 15.0049 25.6332 14.9751 25.7838C14.93 26.0123 14.8863 26.2411 14.8427 26.47C14.8141 26.6174 14.7854 26.7648 14.7566 26.9121C14.7437 26.9795 14.7309 27.0469 14.7176 27.1163C14.5271 28.0679 14.2254 28.7903 13.4391 29.378C12.9868 29.6699 12.4984 29.7445 11.9703 29.7464C11.8895 29.7468 11.8087 29.7472 11.7254 29.7476C11.6378 29.7477 11.5502 29.7478 11.4625 29.7479C11.3712 29.7481 11.2799 29.7483 11.1885 29.7485C10.997 29.7489 10.8055 29.749 10.6139 29.749C10.4197 29.749 10.2254 29.7494 10.0311 29.7503C7.54701 29.7617 7.54701 29.7617 6.35993 29.4398C6.30466 29.4258 6.24939 29.4118 6.19245 29.3973C5.95129 29.3341 5.78352 29.2854 5.57347 29.1429C5.52346 28.685 5.52346 28.685 5.67077 28.479C6.08374 28.3214 6.65522 28.5484 7.07266 28.6506C7.75107 28.8109 8.42455 28.8244 9.11887 28.8264C9.16334 28.8266 9.20782 28.8268 9.25364 28.827C9.48857 28.828 9.72349 28.8286 9.95842 28.8289C10.1993 28.8292 10.4402 28.8308 10.6811 28.8327C10.8681 28.8339 11.0551 28.8343 11.2422 28.8344C11.331 28.8346 11.4197 28.8351 11.5085 28.836C12.1107 28.8415 12.7089 28.8361 13.1827 28.4089C13.2225 28.3747 13.2624 28.3405 13.3035 28.3052C13.645 27.8663 13.7479 27.324 13.8485 26.7861C13.8625 26.7136 13.8766 26.6412 13.891 26.5666C13.9203 26.4142 13.9493 26.2619 13.978 26.1094C14.0217 25.8773 14.0668 25.6454 14.112 25.4136C14.1405 25.2649 14.1688 25.1162 14.1971 24.9674C14.2105 24.8987 14.2239 24.8301 14.2377 24.7593C14.3714 24.0394 14.38 23.4639 13.9993 22.8201C13.7286 22.4496 13.3372 22.2887 12.9029 22.2147C12.7928 22.2119 12.6826 22.2126 12.5725 22.2164C12.5085 22.2184 12.4444 22.2203 12.3784 22.2224C12.3099 22.2248 12.2415 22.2272 12.1709 22.2296C12.0254 22.2338 11.8798 22.2379 11.7343 22.242C11.5052 22.2488 11.2762 22.256 11.0472 22.2638C10.8259 22.2712 10.6045 22.2773 10.3832 22.2833C10.3146 22.2859 10.246 22.2886 10.1754 22.2914C10.0796 22.2937 10.0796 22.2937 9.98182 22.296C9.92577 22.2979 9.86971 22.2997 9.81195 22.3015C9.62007 22.2752 9.53475 22.2239 9.40036 22.0827C9.30881 21.6439 9.43052 21.1358 9.49968 20.6986C9.50976 20.632 9.51984 20.5653 9.53022 20.4967C9.56215 20.2857 9.5947 20.0749 9.62738 19.864C9.66002 19.6527 9.69252 19.4414 9.72454 19.23C9.74437 19.0991 9.76456 18.9682 9.78517 18.8374C9.88015 18.2113 9.93057 17.62 9.57392 17.0667C9.37527 16.8148 9.18344 16.6562 8.88146 16.5401C8.81725 16.5401 8.75303 16.5401 8.68687 16.5401C8.67387 16.5762 8.66087 16.6123 8.64747 16.6495C8.10585 18.1452 7.50446 19.5378 6.48155 20.7631C6.44693 20.8093 6.41232 20.8556 6.37665 20.9033C6.22267 21.1046 6.13141 21.2095 5.89373 21.3033C5.7032 21.2909 5.7032 21.2909 5.51266 21.192C5.37888 21.027 5.37888 21.027 5.35456 20.8208C5.4231 20.5097 5.65379 20.3169 5.86333 20.0929C6.16005 19.7538 6.38556 19.3713 6.61127 18.9815C6.63466 18.9415 6.65805 18.9015 6.68215 18.8603C7.16557 18.0211 7.4952 17.1171 7.8302 16.209C8.13057 15.4545 8.50988 15.4367 9.23694 15.6798Z"/>
<path d="M29.6559 19.9606C29.7118 19.96 29.7676 19.9594 29.8252 19.9587C29.8854 19.9584 29.9456 19.9582 30.0076 19.9579C30.0698 19.9575 30.1319 19.9571 30.196 19.9567C30.3275 19.9561 30.4591 19.9557 30.5906 19.9554C30.7914 19.9548 30.992 19.9527 31.1928 19.9506C31.3207 19.9502 31.4486 19.9499 31.5765 19.9496C31.6363 19.9488 31.6961 19.948 31.7577 19.9471C32.1523 19.9485 32.4406 19.9998 32.742 20.2826C32.773 20.3214 32.804 20.3602 32.836 20.4002C32.8838 20.4583 32.8838 20.4583 32.9325 20.5177C33.0781 20.7299 33.0835 20.9181 33.0843 21.1683C33.0846 21.2385 33.085 21.3087 33.0854 21.3811C33.0855 21.4966 33.0855 21.4966 33.0856 21.6145C33.0861 21.7362 33.0861 21.7362 33.0866 21.8603C33.0874 22.083 33.0879 22.3056 33.0882 22.5282C33.0883 22.6674 33.0886 22.8065 33.0889 22.9457C33.0898 23.3812 33.0904 23.8167 33.0907 24.2522C33.091 24.7547 33.0921 25.2571 33.094 25.7596C33.0954 26.1481 33.096 26.5367 33.0961 26.9252C33.0962 27.1572 33.0966 27.3892 33.0977 27.6212C33.099 27.8801 33.0987 28.139 33.0983 28.3979C33.0989 28.4745 33.0995 28.5511 33.1001 28.6301C33.0979 29.069 33.0743 29.3911 32.7691 29.7277C32.731 29.7593 32.6928 29.7909 32.6536 29.8234C32.6154 29.8558 32.5773 29.8882 32.538 29.9216C32.3507 30.0545 32.1836 30.0753 31.9621 30.0784C31.8808 30.0796 31.8808 30.0796 31.798 30.0809C31.7396 30.0814 31.6812 30.0819 31.6211 30.0824C31.5607 30.0829 31.5003 30.0835 31.4381 30.084C31.3101 30.0849 31.1821 30.0856 31.0542 30.0862C30.8595 30.0873 30.665 30.0902 30.4704 30.0931C30.3459 30.0938 30.2213 30.0943 30.0968 30.0948C30.0391 30.0959 29.9814 30.0971 29.9219 30.0983C29.4963 30.0968 29.1389 30.0104 28.8227 29.7049C28.5896 29.4326 28.5269 29.2257 28.5252 28.873C28.5248 28.8036 28.5243 28.7341 28.5238 28.6625C28.5237 28.5863 28.5235 28.5101 28.5233 28.4316C28.5229 28.3514 28.5225 28.2711 28.522 28.1884C28.5207 27.9221 28.52 27.6558 28.5193 27.3895C28.5191 27.2977 28.5188 27.2059 28.5185 27.1141C28.5173 26.6826 28.5164 26.2512 28.5158 25.8198C28.5152 25.3224 28.5135 24.8251 28.5109 24.3278C28.5089 23.943 28.508 23.5582 28.5077 23.1734C28.5076 22.9437 28.507 22.7141 28.5054 22.4845C28.5036 22.228 28.5039 21.9715 28.5043 21.715C28.5035 21.6395 28.5026 21.5639 28.5018 21.4861C28.5048 21.0106 28.5573 20.6196 28.8904 20.2647C29.1369 20.0449 29.3337 19.9636 29.6559 19.9606ZM29.378 21.027C29.3714 21.1301 29.3692 21.2334 29.3689 21.3367C29.3685 21.4037 29.3682 21.4707 29.3678 21.5397C29.3677 21.6138 29.3676 21.6879 29.3676 21.7642C29.3672 21.8418 29.3669 21.9194 29.3666 21.9993C29.3658 22.2127 29.3653 22.426 29.365 22.6394C29.3648 22.7726 29.3646 22.9058 29.3643 23.039C29.3634 23.4554 29.3628 23.8719 29.3625 24.2883C29.3622 24.7696 29.3611 25.2509 29.3592 25.7322C29.3578 26.1038 29.3571 26.4754 29.3571 26.8471C29.357 27.0692 29.3566 27.2913 29.3554 27.5134C29.3543 27.7612 29.3545 28.0089 29.3549 28.2566C29.3543 28.3305 29.3537 28.4043 29.3531 28.4804C29.3534 28.5477 29.3538 28.6151 29.3542 28.6845C29.3541 28.7431 29.354 28.8017 29.3539 28.8621C29.3674 29.0144 29.3674 29.0144 29.4615 29.1287C29.6569 29.2697 29.8928 29.237 30.1239 29.2352C30.1779 29.2354 30.2319 29.2356 30.2875 29.2358C30.4015 29.2359 30.5156 29.2355 30.6296 29.2347C30.8043 29.2337 30.9789 29.2347 31.1536 29.236C31.2644 29.2358 31.3752 29.2356 31.486 29.2352C31.5645 29.2358 31.5645 29.2358 31.6445 29.2364C31.914 29.2407 31.914 29.2407 32.1459 29.1207C32.2993 28.9251 32.305 28.7435 32.3055 28.5033C32.3058 28.4397 32.306 28.3761 32.3063 28.3105C32.3063 28.2408 32.3063 28.171 32.3062 28.0992C32.3065 28.0257 32.3067 27.9522 32.3069 27.8765C32.3075 27.6328 32.3076 27.3891 32.3077 27.1454C32.3079 26.9763 32.3081 26.8073 32.3084 26.6382C32.3088 26.2836 32.3089 25.9289 32.3088 25.5742C32.3088 25.1645 32.3095 24.7548 32.3105 24.3451C32.3115 23.9508 32.3117 23.5565 32.3117 23.1621C32.3117 22.9944 32.312 22.8267 32.3125 22.6591C32.3132 22.4246 32.313 22.1902 32.3126 21.9558C32.3129 21.8864 32.3133 21.8169 32.3137 21.7453C32.3134 21.6813 32.3131 21.6173 32.3129 21.5514C32.3129 21.496 32.3129 21.4406 32.313 21.3835C32.2942 21.1996 32.2473 21.0606 32.1671 20.895C31.8072 20.6766 31.3555 20.741 30.9493 20.7422C30.8054 20.7424 30.6616 20.7409 30.5177 20.7392C30.4256 20.7391 30.3335 20.739 30.2415 20.7391C30.1583 20.7389 30.0751 20.7387 29.9894 20.7385C29.734 20.7667 29.5609 20.841 29.378 21.027Z"/>
<path d="M1.24511 19.9596C1.30077 19.9587 1.35643 19.9579 1.41377 19.957C1.47377 19.9565 1.53377 19.956 1.59558 19.9555C1.68857 19.9547 1.68857 19.9547 1.78344 19.9539C1.91473 19.953 2.04603 19.9523 2.17732 19.9518C2.37734 19.9507 2.57729 19.9478 2.7773 19.9449C2.90499 19.9442 3.03269 19.9436 3.16039 19.9432C3.2496 19.9414 3.2496 19.9414 3.34061 19.9397C3.73078 19.941 3.95614 20.005 4.27623 20.2352C4.56115 20.5407 4.68139 20.8278 4.68231 21.2477C4.68277 21.3175 4.68323 21.3873 4.6837 21.4593C4.68354 21.5352 4.68338 21.6112 4.68322 21.6894C4.68355 21.7699 4.68388 21.8504 4.68422 21.9333C4.68497 22.1537 4.68513 22.3739 4.68496 22.5943C4.6849 22.7784 4.68521 22.9625 4.68552 23.1467C4.68624 23.5812 4.68627 24.0157 4.68588 24.4502C4.68549 24.898 4.68629 25.3458 4.68767 25.7936C4.68881 26.1785 4.6892 26.5634 4.68899 26.9484C4.68887 27.1781 4.68904 27.4077 4.68994 27.6374C4.69091 27.8936 4.6903 28.1498 4.68955 28.406C4.69005 28.4818 4.69054 28.5576 4.69105 28.6357C4.68865 29.0064 4.68423 29.2888 4.47082 29.6048C4.03905 30.0249 3.70552 30.0874 3.13151 30.0889C3.07114 30.0893 3.01076 30.0897 2.94856 30.0902C2.8211 30.0909 2.69364 30.0912 2.56618 30.0911C2.37199 30.0914 2.17791 30.0938 1.98374 30.0963C1.85959 30.0967 1.73544 30.097 1.61129 30.0971C1.55364 30.098 1.496 30.099 1.4366 30.1C1.00477 30.0968 0.726391 30.0007 0.401201 29.6973C0.184699 29.4125 0.117042 29.225 0.115919 28.8696C0.115364 28.7643 0.115364 28.7643 0.114797 28.6569C0.114725 28.5799 0.114652 28.5028 0.114577 28.4235C0.114255 28.3423 0.113933 28.2612 0.113601 28.1776C0.112816 27.955 0.112332 27.7324 0.112044 27.5097C0.111854 27.3706 0.111588 27.2314 0.111298 27.0923C0.110411 26.6568 0.109784 26.2212 0.109533 25.7857C0.109243 25.2833 0.108105 24.7808 0.106225 24.2784C0.104822 23.8898 0.104169 23.5013 0.104082 23.1127C0.104014 22.8807 0.103633 22.6488 0.102472 22.4168C0.101203 22.1579 0.101487 21.899 0.101909 21.6401C0.101311 21.5635 0.100713 21.4869 0.100098 21.4079C0.102338 20.969 0.125856 20.6468 0.431099 20.3102C0.469226 20.2787 0.507353 20.2471 0.546635 20.2146C0.584762 20.1822 0.622889 20.1498 0.662171 20.1164C0.851875 19.9817 1.02088 19.9626 1.24511 19.9596ZM1.0331 20.895C0.924582 21.1193 0.887068 21.302 0.886469 21.5505C0.88601 21.6143 0.88555 21.6781 0.885077 21.7439C0.885237 21.8131 0.885398 21.8824 0.885564 21.9537C0.885232 22.0273 0.884901 22.1008 0.884559 22.1765C0.883658 22.4195 0.88372 22.6625 0.883869 22.9055C0.883617 23.0743 0.883336 23.2432 0.883027 23.4121C0.882543 23.7659 0.882553 24.1198 0.882903 24.4737C0.883295 24.8824 0.882496 25.2911 0.881115 25.6999C0.879834 26.0936 0.879637 26.4873 0.879865 26.881C0.879832 27.0483 0.879492 27.2156 0.87884 27.3829C0.878041 27.6167 0.878477 27.8505 0.879229 28.0842C0.878734 28.1535 0.878238 28.2227 0.877727 28.2941C0.880371 28.665 0.89133 28.9327 1.16283 29.2089C1.34292 29.2172 1.52131 29.2214 1.70149 29.2223C1.78272 29.2229 1.78272 29.2229 1.8656 29.2234C1.98043 29.2241 2.09526 29.2245 2.2101 29.2248C2.38592 29.2254 2.5617 29.2274 2.73752 29.2295C2.84892 29.23 2.96031 29.2303 3.07171 29.2306C3.15077 29.2318 3.15077 29.2318 3.23143 29.233C3.50056 29.2383 3.50056 29.2383 3.73881 29.1288C3.84896 28.9731 3.84666 28.8765 3.8469 28.6854C3.84745 28.6182 3.848 28.5511 3.84856 28.4819C3.84817 28.4082 3.84777 28.3346 3.84737 28.2587C3.84771 28.1811 3.84805 28.1036 3.8484 28.0236C3.84911 27.8108 3.84895 27.598 3.84833 27.3852C3.84784 27.1626 3.84829 26.94 3.8486 26.7174C3.84895 26.3435 3.84849 25.9696 3.84756 25.5958C3.8465 25.1634 3.84684 24.7311 3.84791 24.2988C3.8488 23.9277 3.84892 23.5566 3.84841 23.1855C3.84811 22.9638 3.84807 22.7422 3.84871 22.5205C3.8492 22.2734 3.84846 22.0263 3.84737 21.7792C3.84776 21.7056 3.84816 21.632 3.84856 21.5561C3.84774 21.4554 3.84774 21.4554 3.8469 21.3526C3.84683 21.2941 3.84675 21.2357 3.84668 21.1755C3.81683 20.9945 3.7702 20.9384 3.6276 20.8291C3.28305 20.7122 2.91022 20.7508 2.54936 20.7508C2.4043 20.7507 2.25928 20.7495 2.11423 20.7482C2.02158 20.7481 1.92893 20.7479 1.83628 20.7479C1.75226 20.7476 1.66824 20.7473 1.58168 20.747C1.36245 20.7627 1.22121 20.7802 1.0331 20.895Z"/>
<path d="M19.6747 7.07982C20.0929 7.26271 20.3312 7.61783 20.5162 8.02832C20.6079 8.47633 20.5909 8.87932 20.3621 9.282C19.7249 10.0838 18.9595 10.797 18.2458 11.5276C18.0806 11.6968 17.9161 11.8665 17.752 12.0367C17.552 12.2442 17.351 12.4506 17.1494 12.6564C17.0734 12.7343 16.9977 12.8125 16.9223 12.8911C16.4514 13.3817 16.0048 13.8238 15.2947 13.8637C14.6517 13.7898 14.3241 13.4899 13.8759 13.043C13.8364 13.0044 13.7968 12.9659 13.7561 12.9261C13.6251 12.7981 13.495 12.6692 13.3651 12.5399C13.3026 12.4785 13.3026 12.4785 13.2388 12.4158C12.8318 12.0045 12.604 11.6398 12.5728 11.044C12.5881 10.5766 12.7953 10.2564 13.1059 9.92199C13.4513 9.60293 13.8214 9.5765 14.2688 9.58846C14.6737 9.63823 14.9735 9.82583 15.238 10.1398C15.4567 10.0435 15.5968 9.92151 15.7628 9.74869C15.8143 9.69538 15.8659 9.64208 15.919 9.58717C16.0018 9.50067 16.0018 9.50067 16.0863 9.41242C16.2042 9.29075 16.3222 9.16909 16.4402 9.04745C16.6257 8.85563 16.8109 8.66349 16.9957 8.471C17.1743 8.28511 17.3539 8.10028 17.5335 7.91543C17.5882 7.85803 17.6429 7.80063 17.6992 7.74149C18.275 7.15082 18.8415 6.85929 19.6747 7.07982ZM18.5142 8.17237C18.4613 8.22819 18.4084 8.28402 18.3539 8.34153C18.3244 8.37245 18.2948 8.40337 18.2643 8.43523C18.2006 8.50188 18.1371 8.56874 18.0738 8.6358C17.9734 8.74202 17.8723 8.84743 17.7709 8.95266C17.4828 9.2517 17.1957 9.55163 16.9103 9.85322C16.7351 10.0381 16.5587 10.2217 16.3815 10.4045C16.3145 10.4742 16.2479 10.5444 16.1819 10.615C15.6008 11.2362 15.6008 11.2362 15.2697 11.2473C14.9892 11.1831 14.8846 11.0869 14.6948 10.8697C14.4288 10.5519 14.4288 10.5519 14.0502 10.445C13.8048 10.4494 13.8048 10.4494 13.6245 10.6099C13.4693 10.8236 13.4165 10.9301 13.4218 11.1955C13.6406 11.6031 13.9758 11.9105 14.2975 12.2347C14.3806 12.3201 14.3806 12.3201 14.4655 12.4072C14.5191 12.4615 14.5727 12.5159 14.6279 12.5719C14.6765 12.6212 14.7251 12.6705 14.7752 12.7213C14.9898 12.9131 15.0915 12.9797 15.3831 12.9702C15.6814 12.8979 15.8333 12.7556 16.0398 12.5383C16.0783 12.4994 16.1167 12.4606 16.1564 12.4206C16.2827 12.2925 16.4076 12.163 16.5324 12.0334C16.6201 11.9439 16.7079 11.8543 16.7957 11.7649C16.9793 11.5775 17.1623 11.3895 17.3447 11.2009C17.5786 10.9593 17.8136 10.7188 18.049 10.4787C18.2301 10.294 18.4108 10.1089 18.5914 9.9236C18.6779 9.83481 18.7645 9.74607 18.8512 9.6574C18.9721 9.53344 19.0927 9.40904 19.213 9.2845C19.2668 9.22962 19.2668 9.22962 19.3216 9.17364C19.5601 8.92644 19.5601 8.92644 19.7135 8.62217C19.7079 8.35595 19.6663 8.24808 19.4986 8.0407C19.118 7.72555 18.8734 7.85204 18.5142 8.17237Z"/>
<path d="M23.5384 2.97134C23.735 3.01361 23.735 3.01361 23.8606 3.12495C23.9435 3.3084 23.9533 3.4069 23.9296 3.60746C23.8178 3.76777 23.8178 3.76777 23.6661 3.92912C23.5864 4.0146 23.5864 4.0146 23.5052 4.10181C23.4263 4.18372 23.4263 4.18372 23.3458 4.26729C23.3019 4.31373 23.258 4.36017 23.2128 4.40802C23.0461 4.58153 22.8966 4.72588 22.6972 4.86113C22.2786 4.83125 22.2786 4.83125 22.1134 4.66319C22.0718 4.46851 22.0604 4.38768 22.1134 4.2013C22.2741 3.96808 22.468 3.77616 22.6688 3.57859C22.7207 3.52402 22.7726 3.46946 22.826 3.41324C23.258 2.97884 23.258 2.97884 23.5384 2.97134Z"/>
<path d="M9.66209 2.97005C10.0436 2.98202 10.2836 3.31793 10.5314 3.57859C10.6119 3.65775 10.6119 3.65775 10.6939 3.73852C11.121 4.17795 11.121 4.17795 11.1283 4.46317C11.0868 4.66319 11.0868 4.66319 10.9773 4.79103C10.797 4.87531 10.7002 4.88528 10.503 4.86113C10.3454 4.74747 10.3454 4.74747 10.1868 4.59308C10.1028 4.51206 10.1028 4.51206 10.0171 4.42941C9.96338 4.37591 9.9097 4.32241 9.8544 4.26729C9.80874 4.22263 9.76309 4.17798 9.71606 4.13197C9.54548 3.96244 9.40359 3.81034 9.27063 3.60746C9.30922 3.04812 9.30922 3.04812 9.66209 2.97005Z"/>
<path d="M25.1721 9.96632C25.2876 9.96613 25.2876 9.96613 25.4054 9.96593C25.4856 9.96751 25.5658 9.96908 25.6484 9.9707C25.7286 9.96998 25.8088 9.96926 25.8914 9.96851C26.4794 9.97338 26.4794 9.97338 26.679 10.1272C26.7835 10.2717 26.7835 10.2717 26.7795 10.5109C26.7186 10.7336 26.7186 10.7336 26.5241 10.8656C26.3443 10.8827 26.3443 10.8827 26.1288 10.8831C26.0513 10.8833 25.9738 10.8835 25.8939 10.8836C25.8129 10.8831 25.7319 10.8826 25.6484 10.8821C25.5269 10.8829 25.5269 10.8829 25.4029 10.8836C25.2866 10.8834 25.2866 10.8834 25.168 10.8831C25.0614 10.8829 25.0614 10.8829 24.9525 10.8827C24.7728 10.8656 24.7728 10.8656 24.5782 10.7336C24.5174 10.5481 24.5174 10.5481 24.5133 10.3377C24.6975 10.0285 24.8209 9.96608 25.1721 9.96632Z"/>
<path d="M7.54772 9.97895C7.6282 9.97678 7.70868 9.97461 7.79159 9.97238C7.86889 9.97191 7.94619 9.97144 8.02583 9.97096C8.0966 9.97007 8.16738 9.96918 8.24029 9.96827C8.42742 10.0078 8.42742 10.0078 8.5825 10.1619C8.68687 10.3377 8.68687 10.3377 8.68282 10.5481C8.62201 10.7336 8.62201 10.7336 8.42742 10.8656C8.13785 10.8967 7.84683 10.89 7.55583 10.8903C7.47536 10.892 7.39488 10.8936 7.31196 10.8952C7.19602 10.8956 7.19602 10.8956 7.07772 10.896C7.00695 10.8966 6.93618 10.8971 6.86326 10.8977C6.63197 10.858 6.55408 10.7926 6.41668 10.6017C6.42074 10.3625 6.42074 10.3625 6.48155 10.1398C6.80343 9.92148 7.16948 9.98074 7.54772 9.97895Z"/>
<path d="M16.7947 0.110351C16.8589 0.153899 16.9231 0.197448 16.9893 0.242317C17.0144 0.436915 17.0144 0.436915 17.0151 0.683579C17.0154 0.748735 17.0154 0.748735 17.0157 0.815207C17.0158 0.907056 17.0155 0.998908 17.0146 1.09075C17.0136 1.23155 17.0146 1.37222 17.0159 1.51301C17.0157 1.60219 17.0155 1.69137 17.0151 1.78055C17.0149 1.86195 17.0147 1.94335 17.0144 2.02721C17.0061 2.09143 16.9978 2.15565 16.9893 2.22181C16.7642 2.37445 16.6698 2.37618 16.4055 2.35378C16.3413 2.31023 16.2771 2.26668 16.2109 2.22181C16.1857 2.02721 16.1857 2.02721 16.1851 1.78055C16.1849 1.73711 16.1847 1.69367 16.1845 1.64892C16.1844 1.55707 16.1847 1.46522 16.1856 1.37337C16.1866 1.23258 16.1856 1.09191 16.1843 0.95112C16.1844 0.861939 16.1847 0.772759 16.1851 0.683579C16.1853 0.60218 16.1855 0.520781 16.1857 0.436915C16.194 0.372698 16.2024 0.30848 16.2109 0.242317C16.436 0.0896764 16.5304 0.0879443 16.7947 0.110351Z"/>
</mask>
<path d="M20.6175 5.07197C20.7959 5.21746 20.9691 5.36694 21.1405 5.52097C21.2012 5.57442 21.2012 5.57442 21.2631 5.62896C22.5028 6.7987 23.1162 8.54048 23.2303 10.2163C23.286 12.0838 22.5725 13.7577 21.3738 15.1357C20.2692 16.3177 18.6525 17.0967 17.0458 17.1562C15.1839 17.1827 13.4623 16.7191 12.0878 15.3815C11.991 15.2848 11.8954 15.187 11.8003 15.0885C11.7509 15.0382 11.7016 14.988 11.6508 14.9362C10.6712 13.8795 10.0387 12.3173 9.98412 10.8656C9.98078 10.804 9.97744 10.7424 9.97399 10.679C9.92609 9.06293 10.4264 7.4079 11.476 6.1808C11.5199 6.12747 11.5638 6.07414 11.609 6.01919C13.8771 3.343 17.8541 2.9711 20.6175 5.07197ZM12.4489 6.37875C12.4037 6.42391 12.3586 6.46908 12.3121 6.51561C11.3058 7.58885 10.796 9.13548 10.818 10.6022C10.8947 12.2187 11.523 13.5661 12.6435 14.6926C12.6907 14.7414 12.738 14.7901 12.7866 14.8403C13.3248 15.3634 13.9805 15.7036 14.6704 15.971C14.711 15.9868 14.7515 16.0025 14.7932 16.0188C16.1626 16.5211 17.6965 16.3717 19.0091 15.7744C19.6903 15.4364 20.2191 15.0353 20.7513 14.4947C20.8224 14.4235 20.8224 14.4235 20.895 14.3508C21.8815 13.2976 22.3521 11.8736 22.3891 10.4367C22.3522 8.92629 21.8109 7.55752 20.8162 6.44473C20.7577 6.37609 20.7577 6.37609 20.6981 6.30606C19.8082 5.32245 18.4116 4.66535 17.1066 4.58887C15.2906 4.52816 13.7459 5.06162 12.4489 6.37875Z" fill="#111111"/>
<path d="M24.9674 15.4844C25.306 15.7513 25.3978 16.0606 25.5268 16.4659C26.0092 17.888 26.633 19.2687 27.6959 20.3365C27.844 20.5285 27.8755 20.6528 27.8862 20.895C27.7889 21.0889 27.7889 21.0889 27.6267 21.2249C27.4005 21.2423 27.2572 21.2182 27.0675 21.0852C26.0581 20.1347 25.4106 18.7398 24.9025 17.4639C24.8858 17.4224 24.8692 17.3809 24.852 17.3381C24.5782 16.6516 24.5782 16.6516 24.5782 16.4082C24.0619 16.6334 23.7064 16.8622 23.4512 17.3814C23.3452 17.9424 23.4232 18.5084 23.51 19.0668C23.5201 19.1349 23.5301 19.2029 23.5405 19.273C23.5724 19.4879 23.605 19.7028 23.6377 19.9177C23.6703 20.1332 23.7028 20.3488 23.7348 20.5645C23.7547 20.698 23.7749 20.8314 23.7955 20.9648C23.9315 21.8781 23.9315 21.8781 23.8016 22.1477C23.5842 22.2585 23.3601 22.2374 23.1228 22.2312C23.0669 22.2306 23.011 22.23 22.9533 22.2294C22.6053 22.2244 22.2581 22.2098 21.9105 22.1923C21.7917 22.1867 21.7917 22.1867 21.6705 22.181C21.5154 22.1734 21.3603 22.1647 21.2052 22.1548C20.5876 22.124 19.9211 22.1652 19.4193 22.5758C19.0231 22.9961 18.9196 23.4072 18.9247 23.9756C18.9412 24.3202 19.0014 24.6513 19.0679 24.9891C19.0817 25.0614 19.0955 25.1337 19.1097 25.2082C19.1388 25.3598 19.1682 25.5113 19.198 25.6627C19.2433 25.8934 19.2869 26.1243 19.3304 26.3554C19.359 26.5034 19.3877 26.6515 19.4166 26.7995C19.4294 26.8679 19.4423 26.9363 19.4555 27.0068C19.5562 27.5099 19.6867 27.9934 20.0865 28.3388C20.1462 28.3925 20.1462 28.3925 20.2071 28.4473C20.7331 28.7926 21.2498 28.7763 21.8578 28.7733C21.9533 28.7734 22.0488 28.7736 22.1443 28.7739C22.3442 28.7742 22.5441 28.7738 22.744 28.7728C22.997 28.7717 23.2498 28.7723 23.5028 28.7735C23.7002 28.7743 23.8976 28.774 24.095 28.7735C24.188 28.7734 24.2811 28.7735 24.3741 28.774C25.2026 28.7773 25.9943 28.6727 26.7916 28.4377C27.0627 28.3585 27.2806 28.3154 27.5619 28.3511C27.6875 28.4254 27.6875 28.4254 27.7565 28.5491C27.7894 28.7741 27.7941 28.8924 27.6607 29.0787C27.4324 29.2603 27.2039 29.3131 26.9254 29.3821C26.8512 29.4023 26.8512 29.4023 26.7755 29.4228C25.9416 29.6386 25.1041 29.692 24.2473 29.693C24.1504 29.6934 24.0534 29.6938 23.9565 29.6943C23.7551 29.6951 23.5538 29.6953 23.3525 29.6952C23.0968 29.6952 22.8412 29.697 22.5856 29.6993C22.386 29.7008 22.1865 29.701 21.9869 29.701C21.8928 29.7011 21.7986 29.7017 21.7044 29.7027C20.8201 29.7115 20.0465 29.5866 19.3892 28.945C18.853 28.4045 18.689 27.8102 18.55 27.0727C18.5338 26.9889 18.5175 26.905 18.5007 26.8186C18.467 26.645 18.4338 26.4714 18.4008 26.2976C18.354 26.0552 18.3047 25.8135 18.2544 25.5718C17.8106 23.4094 17.8106 23.4094 18.3514 22.4786C18.7437 21.9071 19.304 21.4623 19.973 21.2909C20.3725 21.2472 20.7759 21.2631 21.177 21.2703C21.2847 21.2711 21.3924 21.2717 21.5001 21.2722C21.6047 21.2731 21.7092 21.2741 21.8137 21.2752C21.8848 21.2759 21.8849 21.2759 21.9575 21.2767C22.2939 21.2829 22.6226 21.3153 22.9566 21.3569C22.9498 21.3159 22.9429 21.2748 22.9359 21.2325C22.8669 20.8175 22.799 20.4024 22.7319 19.9872C22.71 19.8526 22.688 19.7181 22.6658 19.5837C22.3177 17.4727 22.3177 17.4727 22.8715 16.5608C23.3469 15.8883 24.1197 15.3766 24.9674 15.4844Z" fill="#111111"/>
<path d="M9.23694 15.6798C9.85519 15.9392 10.3021 16.3854 10.58 17.0005C10.8542 17.695 10.778 18.3981 10.6632 19.1225C10.6531 19.1889 10.643 19.2552 10.6326 19.3235C10.6007 19.5327 10.5681 19.7417 10.5355 19.9506C10.5135 20.0936 10.4917 20.2365 10.4698 20.3794C10.4166 20.7273 10.3628 21.0751 10.3084 21.4229C10.3462 21.4124 10.384 21.4018 10.4229 21.3909C10.6484 21.338 10.8768 21.337 11.1073 21.3291C11.16 21.3272 11.2126 21.3254 11.2668 21.3235C11.3783 21.3198 11.4898 21.3162 11.6013 21.3129C11.7698 21.3075 11.9381 21.3006 12.1065 21.2938C13.0296 21.2619 13.8011 21.3586 14.5247 22C15.0735 22.5799 15.2556 23.3302 15.2484 24.1126C15.2318 24.4532 15.1716 24.7804 15.1052 25.1141C15.0914 25.1859 15.0777 25.2578 15.0635 25.3318C15.0344 25.4825 15.0049 25.6332 14.9751 25.7838C14.93 26.0123 14.8863 26.2411 14.8427 26.47C14.8141 26.6174 14.7854 26.7648 14.7566 26.9121C14.7437 26.9795 14.7309 27.0469 14.7176 27.1163C14.5271 28.0679 14.2254 28.7903 13.4391 29.378C12.9868 29.6699 12.4984 29.7445 11.9703 29.7464C11.8895 29.7468 11.8087 29.7472 11.7254 29.7476C11.6378 29.7477 11.5502 29.7478 11.4625 29.7479C11.3712 29.7481 11.2799 29.7483 11.1885 29.7485C10.997 29.7489 10.8055 29.749 10.6139 29.749C10.4197 29.749 10.2254 29.7494 10.0311 29.7503C7.54701 29.7617 7.54701 29.7617 6.35993 29.4398C6.30466 29.4258 6.24939 29.4118 6.19245 29.3973C5.95129 29.3341 5.78352 29.2854 5.57347 29.1429C5.52346 28.685 5.52346 28.685 5.67077 28.479C6.08374 28.3214 6.65522 28.5484 7.07266 28.6506C7.75107 28.8109 8.42455 28.8244 9.11887 28.8264C9.16334 28.8266 9.20782 28.8268 9.25364 28.827C9.48857 28.828 9.72349 28.8286 9.95842 28.8289C10.1993 28.8292 10.4402 28.8308 10.6811 28.8327C10.8681 28.8339 11.0551 28.8343 11.2422 28.8344C11.331 28.8346 11.4197 28.8351 11.5085 28.836C12.1107 28.8415 12.7089 28.8361 13.1827 28.4089C13.2225 28.3747 13.2624 28.3405 13.3035 28.3052C13.645 27.8663 13.7479 27.324 13.8485 26.7861C13.8625 26.7136 13.8766 26.6412 13.891 26.5666C13.9203 26.4142 13.9493 26.2619 13.978 26.1094C14.0217 25.8773 14.0668 25.6454 14.112 25.4136C14.1405 25.2649 14.1688 25.1162 14.1971 24.9674C14.2105 24.8987 14.2239 24.8301 14.2377 24.7593C14.3714 24.0394 14.38 23.4639 13.9993 22.8201C13.7286 22.4496 13.3372 22.2887 12.9029 22.2147C12.7928 22.2119 12.6826 22.2126 12.5725 22.2164C12.5085 22.2184 12.4444 22.2203 12.3784 22.2224C12.3099 22.2248 12.2415 22.2272 12.1709 22.2296C12.0254 22.2338 11.8798 22.2379 11.7343 22.242C11.5052 22.2488 11.2762 22.256 11.0472 22.2638C10.8259 22.2712 10.6045 22.2773 10.3832 22.2833C10.3146 22.2859 10.246 22.2886 10.1754 22.2914C10.0796 22.2937 10.0796 22.2937 9.98182 22.296C9.92577 22.2979 9.86971 22.2997 9.81195 22.3015C9.62007 22.2752 9.53475 22.2239 9.40036 22.0827C9.30881 21.6439 9.43052 21.1358 9.49968 20.6986C9.50976 20.632 9.51984 20.5653 9.53022 20.4967C9.56215 20.2857 9.5947 20.0749 9.62738 19.864C9.66002 19.6527 9.69252 19.4414 9.72454 19.23C9.74437 19.0991 9.76456 18.9682 9.78517 18.8374C9.88015 18.2113 9.93057 17.62 9.57392 17.0667C9.37527 16.8148 9.18344 16.6562 8.88146 16.5401C8.81725 16.5401 8.75303 16.5401 8.68687 16.5401C8.67387 16.5762 8.66087 16.6123 8.64747 16.6495C8.10585 18.1452 7.50446 19.5378 6.48155 20.7631C6.44693 20.8093 6.41232 20.8556 6.37665 20.9033C6.22267 21.1046 6.13141 21.2095 5.89373 21.3033C5.7032 21.2909 5.7032 21.2909 5.51266 21.192C5.37888 21.027 5.37888 21.027 5.35456 20.8208C5.4231 20.5097 5.65379 20.3169 5.86333 20.0929C6.16005 19.7538 6.38556 19.3713 6.61127 18.9815C6.63466 18.9415 6.65805 18.9015 6.68215 18.8603C7.16557 18.0211 7.4952 17.1171 7.8302 16.209C8.13057 15.4545 8.50988 15.4367 9.23694 15.6798Z" fill="#111111"/>
<path d="M29.6559 19.9606C29.7118 19.96 29.7676 19.9594 29.8252 19.9587C29.8854 19.9584 29.9456 19.9582 30.0076 19.9579C30.0698 19.9575 30.1319 19.9571 30.196 19.9567C30.3275 19.9561 30.4591 19.9557 30.5906 19.9554C30.7914 19.9548 30.992 19.9527 31.1928 19.9506C31.3207 19.9502 31.4486 19.9499 31.5765 19.9496C31.6363 19.9488 31.6961 19.948 31.7577 19.9471C32.1523 19.9485 32.4406 19.9998 32.742 20.2826C32.773 20.3214 32.804 20.3602 32.836 20.4002C32.8838 20.4583 32.8838 20.4583 32.9325 20.5177C33.0781 20.7299 33.0835 20.9181 33.0843 21.1683C33.0846 21.2385 33.085 21.3087 33.0854 21.3811C33.0855 21.4966 33.0855 21.4966 33.0856 21.6145C33.0861 21.7362 33.0861 21.7362 33.0866 21.8603C33.0874 22.083 33.0879 22.3056 33.0882 22.5282C33.0883 22.6674 33.0886 22.8065 33.0889 22.9457C33.0898 23.3812 33.0904 23.8167 33.0907 24.2522C33.091 24.7547 33.0921 25.2571 33.094 25.7596C33.0954 26.1481 33.096 26.5367 33.0961 26.9252C33.0962 27.1572 33.0966 27.3892 33.0977 27.6212C33.099 27.8801 33.0987 28.139 33.0983 28.3979C33.0989 28.4745 33.0995 28.5511 33.1001 28.6301C33.0979 29.069 33.0743 29.3911 32.7691 29.7277C32.731 29.7593 32.6928 29.7909 32.6536 29.8234C32.6154 29.8558 32.5773 29.8882 32.538 29.9216C32.3507 30.0545 32.1836 30.0753 31.9621 30.0784C31.8808 30.0796 31.8808 30.0796 31.798 30.0809C31.7396 30.0814 31.6812 30.0819 31.6211 30.0824C31.5607 30.0829 31.5003 30.0835 31.4381 30.084C31.3101 30.0849 31.1821 30.0856 31.0542 30.0862C30.8595 30.0873 30.665 30.0902 30.4704 30.0931C30.3459 30.0938 30.2213 30.0943 30.0968 30.0948C30.0391 30.0959 29.9814 30.0971 29.9219 30.0983C29.4963 30.0968 29.1389 30.0104 28.8227 29.7049C28.5896 29.4326 28.5269 29.2257 28.5252 28.873C28.5248 28.8036 28.5243 28.7341 28.5238 28.6625C28.5237 28.5863 28.5235 28.5101 28.5233 28.4316C28.5229 28.3514 28.5225 28.2711 28.522 28.1884C28.5207 27.9221 28.52 27.6558 28.5193 27.3895C28.5191 27.2977 28.5188 27.2059 28.5185 27.1141C28.5173 26.6826 28.5164 26.2512 28.5158 25.8198C28.5152 25.3224 28.5135 24.8251 28.5109 24.3278C28.5089 23.943 28.508 23.5582 28.5077 23.1734C28.5076 22.9437 28.507 22.7141 28.5054 22.4845C28.5036 22.228 28.5039 21.9715 28.5043 21.715C28.5035 21.6395 28.5026 21.5639 28.5018 21.4861C28.5048 21.0106 28.5573 20.6196 28.8904 20.2647C29.1369 20.0449 29.3337 19.9636 29.6559 19.9606ZM29.378 21.027C29.3714 21.1301 29.3692 21.2334 29.3689 21.3367C29.3685 21.4037 29.3682 21.4707 29.3678 21.5397C29.3677 21.6138 29.3676 21.6879 29.3676 21.7642C29.3672 21.8418 29.3669 21.9194 29.3666 21.9993C29.3658 22.2127 29.3653 22.426 29.365 22.6394C29.3648 22.7726 29.3646 22.9058 29.3643 23.039C29.3634 23.4554 29.3628 23.8719 29.3625 24.2883C29.3622 24.7696 29.3611 25.2509 29.3592 25.7322C29.3578 26.1038 29.3571 26.4754 29.3571 26.8471C29.357 27.0692 29.3566 27.2913 29.3554 27.5134C29.3543 27.7612 29.3545 28.0089 29.3549 28.2566C29.3543 28.3305 29.3537 28.4043 29.3531 28.4804C29.3534 28.5477 29.3538 28.6151 29.3542 28.6845C29.3541 28.7431 29.354 28.8017 29.3539 28.8621C29.3674 29.0144 29.3674 29.0144 29.4615 29.1287C29.6569 29.2697 29.8928 29.237 30.1239 29.2352C30.1779 29.2354 30.2319 29.2356 30.2875 29.2358C30.4015 29.2359 30.5156 29.2355 30.6296 29.2347C30.8043 29.2337 30.9789 29.2347 31.1536 29.236C31.2644 29.2358 31.3752 29.2356 31.486 29.2352C31.5645 29.2358 31.5645 29.2358 31.6445 29.2364C31.914 29.2407 31.914 29.2407 32.1459 29.1207C32.2993 28.9251 32.305 28.7435 32.3055 28.5033C32.3058 28.4397 32.306 28.3761 32.3063 28.3105C32.3063 28.2408 32.3063 28.171 32.3062 28.0992C32.3065 28.0257 32.3067 27.9522 32.3069 27.8765C32.3075 27.6328 32.3076 27.3891 32.3077 27.1454C32.3079 26.9763 32.3081 26.8073 32.3084 26.6382C32.3088 26.2836 32.3089 25.9289 32.3088 25.5742C32.3088 25.1645 32.3095 24.7548 32.3105 24.3451C32.3115 23.9508 32.3117 23.5565 32.3117 23.1621C32.3117 22.9944 32.312 22.8267 32.3125 22.6591C32.3132 22.4246 32.313 22.1902 32.3126 21.9558C32.3129 21.8864 32.3133 21.8169 32.3137 21.7453C32.3134 21.6813 32.3131 21.6173 32.3129 21.5514C32.3129 21.496 32.3129 21.4406 32.313 21.3835C32.2942 21.1996 32.2473 21.0606 32.1671 20.895C31.8072 20.6766 31.3555 20.741 30.9493 20.7422C30.8054 20.7424 30.6616 20.7409 30.5177 20.7392C30.4256 20.7391 30.3335 20.739 30.2415 20.7391C30.1583 20.7389 30.0751 20.7387 29.9894 20.7385C29.734 20.7667 29.5609 20.841 29.378 21.027Z" fill="#111111"/>
<path d="M1.24511 19.9596C1.30077 19.9587 1.35643 19.9579 1.41377 19.957C1.47377 19.9565 1.53377 19.956 1.59558 19.9555C1.68857 19.9547 1.68857 19.9547 1.78344 19.9539C1.91473 19.953 2.04603 19.9523 2.17732 19.9518C2.37734 19.9507 2.57729 19.9478 2.7773 19.9449C2.90499 19.9442 3.03269 19.9436 3.16039 19.9432C3.2496 19.9414 3.2496 19.9414 3.34061 19.9397C3.73078 19.941 3.95614 20.005 4.27623 20.2352C4.56115 20.5407 4.68139 20.8278 4.68231 21.2477C4.68277 21.3175 4.68323 21.3873 4.6837 21.4593C4.68354 21.5352 4.68338 21.6112 4.68322 21.6894C4.68355 21.7699 4.68388 21.8504 4.68422 21.9333C4.68497 22.1537 4.68513 22.3739 4.68496 22.5943C4.6849 22.7784 4.68521 22.9625 4.68552 23.1467C4.68624 23.5812 4.68627 24.0157 4.68588 24.4502C4.68549 24.898 4.68629 25.3458 4.68767 25.7936C4.68881 26.1785 4.6892 26.5634 4.68899 26.9484C4.68887 27.1781 4.68904 27.4077 4.68994 27.6374C4.69091 27.8936 4.6903 28.1498 4.68955 28.406C4.69005 28.4818 4.69054 28.5576 4.69105 28.6357C4.68865 29.0064 4.68423 29.2888 4.47082 29.6048C4.03905 30.0249 3.70552 30.0874 3.13151 30.0889C3.07114 30.0893 3.01076 30.0897 2.94856 30.0902C2.8211 30.0909 2.69364 30.0912 2.56618 30.0911C2.37199 30.0914 2.17791 30.0938 1.98374 30.0963C1.85959 30.0967 1.73544 30.097 1.61129 30.0971C1.55364 30.098 1.496 30.099 1.4366 30.1C1.00477 30.0968 0.726391 30.0007 0.401201 29.6973C0.184699 29.4125 0.117042 29.225 0.115919 28.8696C0.115364 28.7643 0.115364 28.7643 0.114797 28.6569C0.114725 28.5799 0.114652 28.5028 0.114577 28.4235C0.114255 28.3423 0.113933 28.2612 0.113601 28.1776C0.112816 27.955 0.112332 27.7324 0.112044 27.5097C0.111854 27.3706 0.111588 27.2314 0.111298 27.0923C0.110411 26.6568 0.109784 26.2212 0.109533 25.7857C0.109243 25.2833 0.108105 24.7808 0.106225 24.2784C0.104822 23.8898 0.104169 23.5013 0.104082 23.1127C0.104014 22.8807 0.103633 22.6488 0.102472 22.4168C0.101203 22.1579 0.101487 21.899 0.101909 21.6401C0.101311 21.5635 0.100713 21.4869 0.100098 21.4079C0.102338 20.969 0.125856 20.6468 0.431099 20.3102C0.469226 20.2787 0.507353 20.2471 0.546635 20.2146C0.584762 20.1822 0.622889 20.1498 0.662171 20.1164C0.851875 19.9817 1.02088 19.9626 1.24511 19.9596ZM1.0331 20.895C0.924582 21.1193 0.887068 21.302 0.886469 21.5505C0.88601 21.6143 0.88555 21.6781 0.885077 21.7439C0.885237 21.8131 0.885398 21.8824 0.885564 21.9537C0.885232 22.0273 0.884901 22.1008 0.884559 22.1765C0.883658 22.4195 0.88372 22.6625 0.883869 22.9055C0.883617 23.0743 0.883336 23.2432 0.883027 23.4121C0.882543 23.7659 0.882553 24.1198 0.882903 24.4737C0.883295 24.8824 0.882496 25.2911 0.881115 25.6999C0.879834 26.0936 0.879637 26.4873 0.879865 26.881C0.879832 27.0483 0.879492 27.2156 0.87884 27.3829C0.878041 27.6167 0.878477 27.8505 0.879229 28.0842C0.878734 28.1535 0.878238 28.2227 0.877727 28.2941C0.880371 28.665 0.89133 28.9327 1.16283 29.2089C1.34292 29.2172 1.52131 29.2214 1.70149 29.2223C1.78272 29.2229 1.78272 29.2229 1.8656 29.2234C1.98043 29.2241 2.09526 29.2245 2.2101 29.2248C2.38592 29.2254 2.5617 29.2274 2.73752 29.2295C2.84892 29.23 2.96031 29.2303 3.07171 29.2306C3.15077 29.2318 3.15077 29.2318 3.23143 29.233C3.50056 29.2383 3.50056 29.2383 3.73881 29.1288C3.84896 28.9731 3.84666 28.8765 3.8469 28.6854C3.84745 28.6182 3.848 28.5511 3.84856 28.4819C3.84817 28.4082 3.84777 28.3346 3.84737 28.2587C3.84771 28.1811 3.84805 28.1036 3.8484 28.0236C3.84911 27.8108 3.84895 27.598 3.84833 27.3852C3.84784 27.1626 3.84829 26.94 3.8486 26.7174C3.84895 26.3435 3.84849 25.9696 3.84756 25.5958C3.8465 25.1634 3.84684 24.7311 3.84791 24.2988C3.8488 23.9277 3.84892 23.5566 3.84841 23.1855C3.84811 22.9638 3.84807 22.7422 3.84871 22.5205C3.8492 22.2734 3.84846 22.0263 3.84737 21.7792C3.84776 21.7056 3.84816 21.632 3.84856 21.5561C3.84774 21.4554 3.84774 21.4554 3.8469 21.3526C3.84683 21.2941 3.84675 21.2357 3.84668 21.1755C3.81683 20.9945 3.7702 20.9384 3.6276 20.8291C3.28305 20.7122 2.91022 20.7508 2.54936 20.7508C2.4043 20.7507 2.25928 20.7495 2.11423 20.7482C2.02158 20.7481 1.92893 20.7479 1.83628 20.7479C1.75226 20.7476 1.66824 20.7473 1.58168 20.747C1.36245 20.7627 1.22121 20.7802 1.0331 20.895Z" fill="#111111"/>
<path d="M19.6747 7.07982C20.0929 7.26271 20.3312 7.61783 20.5162 8.02832C20.6079 8.47633 20.5909 8.87932 20.3621 9.282C19.7249 10.0838 18.9595 10.797 18.2458 11.5276C18.0806 11.6968 17.9161 11.8665 17.752 12.0367C17.552 12.2442 17.351 12.4506 17.1494 12.6564C17.0734 12.7343 16.9977 12.8125 16.9223 12.8911C16.4514 13.3817 16.0048 13.8238 15.2947 13.8637C14.6517 13.7898 14.3241 13.4899 13.8759 13.043C13.8364 13.0044 13.7968 12.9659 13.7561 12.9261C13.6251 12.7981 13.495 12.6692 13.3651 12.5399C13.3026 12.4785 13.3026 12.4785 13.2388 12.4158C12.8318 12.0045 12.604 11.6398 12.5728 11.044C12.5881 10.5766 12.7953 10.2564 13.1059 9.92199C13.4513 9.60293 13.8214 9.5765 14.2688 9.58846C14.6737 9.63823 14.9735 9.82583 15.238 10.1398C15.4567 10.0435 15.5968 9.92151 15.7628 9.74869C15.8143 9.69538 15.8659 9.64208 15.919 9.58717C16.0018 9.50067 16.0018 9.50067 16.0863 9.41242C16.2042 9.29075 16.3222 9.16909 16.4402 9.04745C16.6257 8.85563 16.8109 8.66349 16.9957 8.471C17.1743 8.28511 17.3539 8.10028 17.5335 7.91543C17.5882 7.85803 17.6429 7.80063 17.6992 7.74149C18.275 7.15082 18.8415 6.85929 19.6747 7.07982ZM18.5142 8.17237C18.4613 8.22819 18.4084 8.28402 18.3539 8.34153C18.3244 8.37245 18.2948 8.40337 18.2643 8.43523C18.2006 8.50188 18.1371 8.56874 18.0738 8.6358C17.9734 8.74202 17.8723 8.84743 17.7709 8.95266C17.4828 9.2517 17.1957 9.55163 16.9103 9.85322C16.7351 10.0381 16.5587 10.2217 16.3815 10.4045C16.3145 10.4742 16.2479 10.5444 16.1819 10.615C15.6008 11.2362 15.6008 11.2362 15.2697 11.2473C14.9892 11.1831 14.8846 11.0869 14.6948 10.8697C14.4288 10.5519 14.4288 10.5519 14.0502 10.445C13.8048 10.4494 13.8048 10.4494 13.6245 10.6099C13.4693 10.8236 13.4165 10.9301 13.4218 11.1955C13.6406 11.6031 13.9758 11.9105 14.2975 12.2347C14.3806 12.3201 14.3806 12.3201 14.4655 12.4072C14.5191 12.4615 14.5727 12.5159 14.6279 12.5719C14.6765 12.6212 14.7251 12.6705 14.7752 12.7213C14.9898 12.9131 15.0915 12.9797 15.3831 12.9702C15.6814 12.8979 15.8333 12.7556 16.0398 12.5383C16.0783 12.4994 16.1167 12.4606 16.1564 12.4206C16.2827 12.2925 16.4076 12.163 16.5324 12.0334C16.6201 11.9439 16.7079 11.8543 16.7957 11.7649C16.9793 11.5775 17.1623 11.3895 17.3447 11.2009C17.5786 10.9593 17.8136 10.7188 18.049 10.4787C18.2301 10.294 18.4108 10.1089 18.5914 9.9236C18.6779 9.83481 18.7645 9.74607 18.8512 9.6574C18.9721 9.53344 19.0927 9.40904 19.213 9.2845C19.2668 9.22962 19.2668 9.22962 19.3216 9.17364C19.5601 8.92644 19.5601 8.92644 19.7135 8.62217C19.7079 8.35595 19.6663 8.24808 19.4986 8.0407C19.118 7.72555 18.8734 7.85204 18.5142 8.17237Z" fill="#111111"/>
<path d="M23.5384 2.97134C23.735 3.01361 23.735 3.01361 23.8606 3.12495C23.9435 3.3084 23.9533 3.4069 23.9296 3.60746C23.8178 3.76777 23.8178 3.76777 23.6661 3.92912C23.5864 4.0146 23.5864 4.0146 23.5052 4.10181C23.4263 4.18372 23.4263 4.18372 23.3458 4.26729C23.3019 4.31373 23.258 4.36017 23.2128 4.40802C23.0461 4.58153 22.8966 4.72588 22.6972 4.86113C22.2786 4.83125 22.2786 4.83125 22.1134 4.66319C22.0718 4.46851 22.0604 4.38768 22.1134 4.2013C22.2741 3.96808 22.468 3.77616 22.6688 3.57859C22.7207 3.52402 22.7726 3.46946 22.826 3.41324C23.258 2.97884 23.258 2.97884 23.5384 2.97134Z" fill="#111111"/>
<path d="M9.66209 2.97005C10.0436 2.98202 10.2836 3.31793 10.5314 3.57859C10.6119 3.65775 10.6119 3.65775 10.6939 3.73852C11.121 4.17795 11.121 4.17795 11.1283 4.46317C11.0868 4.66319 11.0868 4.66319 10.9773 4.79103C10.797 4.87531 10.7002 4.88528 10.503 4.86113C10.3454 4.74747 10.3454 4.74747 10.1868 4.59308C10.1028 4.51206 10.1028 4.51206 10.0171 4.42941C9.96338 4.37591 9.9097 4.32241 9.8544 4.26729C9.80874 4.22263 9.76309 4.17798 9.71606 4.13197C9.54548 3.96244 9.40359 3.81034 9.27063 3.60746C9.30922 3.04812 9.30922 3.04812 9.66209 2.97005Z" fill="#111111"/>
<path d="M25.1721 9.96632C25.2876 9.96613 25.2876 9.96613 25.4054 9.96593C25.4856 9.96751 25.5658 9.96908 25.6484 9.9707C25.7286 9.96998 25.8088 9.96926 25.8914 9.96851C26.4794 9.97338 26.4794 9.97338 26.679 10.1272C26.7835 10.2717 26.7835 10.2717 26.7795 10.5109C26.7186 10.7336 26.7186 10.7336 26.5241 10.8656C26.3443 10.8827 26.3443 10.8827 26.1288 10.8831C26.0513 10.8833 25.9738 10.8835 25.8939 10.8836C25.8129 10.8831 25.7319 10.8826 25.6484 10.8821C25.5269 10.8829 25.5269 10.8829 25.4029 10.8836C25.2866 10.8834 25.2866 10.8834 25.168 10.8831C25.0614 10.8829 25.0614 10.8829 24.9525 10.8827C24.7728 10.8656 24.7728 10.8656 24.5782 10.7336C24.5174 10.5481 24.5174 10.5481 24.5133 10.3377C24.6975 10.0285 24.8209 9.96608 25.1721 9.96632Z" fill="#111111"/>
<path d="M7.54772 9.97895C7.6282 9.97678 7.70868 9.97461 7.79159 9.97238C7.86889 9.97191 7.94619 9.97144 8.02583 9.97096C8.0966 9.97007 8.16738 9.96918 8.24029 9.96827C8.42742 10.0078 8.42742 10.0078 8.5825 10.1619C8.68687 10.3377 8.68687 10.3377 8.68282 10.5481C8.62201 10.7336 8.62201 10.7336 8.42742 10.8656C8.13785 10.8967 7.84683 10.89 7.55583 10.8903C7.47536 10.892 7.39488 10.8936 7.31196 10.8952C7.19602 10.8956 7.19602 10.8956 7.07772 10.896C7.00695 10.8966 6.93618 10.8971 6.86326 10.8977C6.63197 10.858 6.55408 10.7926 6.41668 10.6017C6.42074 10.3625 6.42074 10.3625 6.48155 10.1398C6.80343 9.92148 7.16948 9.98074 7.54772 9.97895Z" fill="#111111"/>
<path d="M16.7947 0.110351C16.8589 0.153899 16.9231 0.197448 16.9893 0.242317C17.0144 0.436915 17.0144 0.436915 17.0151 0.683579C17.0154 0.748735 17.0154 0.748735 17.0157 0.815207C17.0158 0.907056 17.0155 0.998908 17.0146 1.09075C17.0136 1.23155 17.0146 1.37222 17.0159 1.51301C17.0157 1.60219 17.0155 1.69137 17.0151 1.78055C17.0149 1.86195 17.0147 1.94335 17.0144 2.02721C17.0061 2.09143 16.9978 2.15565 16.9893 2.22181C16.7642 2.37445 16.6698 2.37618 16.4055 2.35378C16.3413 2.31023 16.2771 2.26668 16.2109 2.22181C16.1857 2.02721 16.1857 2.02721 16.1851 1.78055C16.1849 1.73711 16.1847 1.69367 16.1845 1.64892C16.1844 1.55707 16.1847 1.46522 16.1856 1.37337C16.1866 1.23258 16.1856 1.09191 16.1843 0.95112C16.1844 0.861939 16.1847 0.772759 16.1851 0.683579C16.1853 0.60218 16.1855 0.520781 16.1857 0.436915C16.194 0.372698 16.2024 0.30848 16.2109 0.242317C16.436 0.0896764 16.5304 0.0879443 16.7947 0.110351Z" fill="#111111"/>
<path d="M20.6175 5.07197C20.7959 5.21746 20.9691 5.36694 21.1405 5.52097C21.2012 5.57442 21.2012 5.57442 21.2631 5.62896C22.5028 6.7987 23.1162 8.54048 23.2303 10.2163C23.286 12.0838 22.5725 13.7577 21.3738 15.1357C20.2692 16.3177 18.6525 17.0967 17.0458 17.1562C15.1839 17.1827 13.4623 16.7191 12.0878 15.3815C11.991 15.2848 11.8954 15.187 11.8003 15.0885C11.7509 15.0382 11.7016 14.988 11.6508 14.9362C10.6712 13.8795 10.0387 12.3173 9.98412 10.8656C9.98078 10.804 9.97744 10.7424 9.97399 10.679C9.92609 9.06293 10.4264 7.4079 11.476 6.1808C11.5199 6.12747 11.5638 6.07414 11.609 6.01919C13.8771 3.343 17.8541 2.9711 20.6175 5.07197ZM12.4489 6.37875C12.4037 6.42391 12.3586 6.46908 12.3121 6.51561C11.3058 7.58885 10.796 9.13548 10.818 10.6022C10.8947 12.2187 11.523 13.5661 12.6435 14.6926C12.6907 14.7414 12.738 14.7901 12.7866 14.8403C13.3248 15.3634 13.9805 15.7036 14.6704 15.971C14.711 15.9868 14.7515 16.0025 14.7932 16.0188C16.1626 16.5211 17.6965 16.3717 19.0091 15.7744C19.6903 15.4364 20.2191 15.0353 20.7513 14.4947C20.8224 14.4235 20.8224 14.4235 20.895 14.3508C21.8815 13.2976 22.3521 11.8736 22.3891 10.4367C22.3522 8.92629 21.8109 7.55752 20.8162 6.44473C20.7577 6.37609 20.7577 6.37609 20.6981 6.30606C19.8082 5.32245 18.4116 4.66535 17.1066 4.58887C15.2906 4.52816 13.7459 5.06162 12.4489 6.37875Z" stroke="#111111" stroke-width="0.2" mask="url(#path-1-outside-1_13672_7981)"/>
<path d="M24.9674 15.4844C25.306 15.7513 25.3978 16.0606 25.5268 16.4659C26.0092 17.888 26.633 19.2687 27.6959 20.3365C27.844 20.5285 27.8755 20.6528 27.8862 20.895C27.7889 21.0889 27.7889 21.0889 27.6267 21.2249C27.4005 21.2423 27.2572 21.2182 27.0675 21.0852C26.0581 20.1347 25.4106 18.7398 24.9025 17.4639C24.8858 17.4224 24.8692 17.3809 24.852 17.3381C24.5782 16.6516 24.5782 16.6516 24.5782 16.4082C24.0619 16.6334 23.7064 16.8622 23.4512 17.3814C23.3452 17.9424 23.4232 18.5084 23.51 19.0668C23.5201 19.1349 23.5301 19.2029 23.5405 19.273C23.5724 19.4879 23.605 19.7028 23.6377 19.9177C23.6703 20.1332 23.7028 20.3488 23.7348 20.5645C23.7547 20.698 23.7749 20.8314 23.7955 20.9648C23.9315 21.8781 23.9315 21.8781 23.8016 22.1477C23.5842 22.2585 23.3601 22.2374 23.1228 22.2312C23.0669 22.2306 23.011 22.23 22.9533 22.2294C22.6053 22.2244 22.2581 22.2098 21.9105 22.1923C21.7917 22.1867 21.7917 22.1867 21.6705 22.181C21.5154 22.1734 21.3603 22.1647 21.2052 22.1548C20.5876 22.124 19.9211 22.1652 19.4193 22.5758C19.0231 22.9961 18.9196 23.4072 18.9247 23.9756C18.9412 24.3202 19.0014 24.6513 19.0679 24.9891C19.0817 25.0614 19.0955 25.1337 19.1097 25.2082C19.1388 25.3598 19.1682 25.5113 19.198 25.6627C19.2433 25.8934 19.2869 26.1243 19.3304 26.3554C19.359 26.5034 19.3877 26.6515 19.4166 26.7995C19.4294 26.8679 19.4423 26.9363 19.4555 27.0068C19.5562 27.5099 19.6867 27.9934 20.0865 28.3388C20.1462 28.3925 20.1462 28.3925 20.2071 28.4473C20.7331 28.7926 21.2498 28.7763 21.8578 28.7733C21.9533 28.7734 22.0488 28.7736 22.1443 28.7739C22.3442 28.7742 22.5441 28.7738 22.744 28.7728C22.997 28.7717 23.2498 28.7723 23.5028 28.7735C23.7002 28.7743 23.8976 28.774 24.095 28.7735C24.188 28.7734 24.2811 28.7735 24.3741 28.774C25.2026 28.7773 25.9943 28.6727 26.7916 28.4377C27.0627 28.3585 27.2806 28.3154 27.5619 28.3511C27.6875 28.4254 27.6875 28.4254 27.7565 28.5491C27.7894 28.7741 27.7941 28.8924 27.6607 29.0787C27.4324 29.2603 27.2039 29.3131 26.9254 29.3821C26.8512 29.4023 26.8512 29.4023 26.7755 29.4228C25.9416 29.6386 25.1041 29.692 24.2473 29.693C24.1504 29.6934 24.0534 29.6938 23.9565 29.6943C23.7551 29.6951 23.5538 29.6953 23.3525 29.6952C23.0968 29.6952 22.8412 29.697 22.5856 29.6993C22.386 29.7008 22.1865 29.701 21.9869 29.701C21.8928 29.7011 21.7986 29.7017 21.7044 29.7027C20.8201 29.7115 20.0465 29.5866 19.3892 28.945C18.853 28.4045 18.689 27.8102 18.55 27.0727C18.5338 26.9889 18.5175 26.905 18.5007 26.8186C18.467 26.645 18.4338 26.4714 18.4008 26.2976C18.354 26.0552 18.3047 25.8135 18.2544 25.5718C17.8106 23.4094 17.8106 23.4094 18.3514 22.4786C18.7437 21.9071 19.304 21.4623 19.973 21.2909C20.3725 21.2472 20.7759 21.2631 21.177 21.2703C21.2847 21.2711 21.3924 21.2717 21.5001 21.2722C21.6047 21.2731 21.7092 21.2741 21.8137 21.2752C21.8848 21.2759 21.8849 21.2759 21.9575 21.2767C22.2939 21.2829 22.6226 21.3153 22.9566 21.3569C22.9498 21.3159 22.9429 21.2748 22.9359 21.2325C22.8669 20.8175 22.799 20.4024 22.7319 19.9872C22.71 19.8526 22.688 19.7181 22.6658 19.5837C22.3177 17.4727 22.3177 17.4727 22.8715 16.5608C23.3469 15.8883 24.1197 15.3766 24.9674 15.4844Z" stroke="#111111" stroke-width="0.2" mask="url(#path-1-outside-1_13672_7981)"/>
<path d="M9.23694 15.6798C9.85519 15.9392 10.3021 16.3854 10.58 17.0005C10.8542 17.695 10.778 18.3981 10.6632 19.1225C10.6531 19.1889 10.643 19.2552 10.6326 19.3235C10.6007 19.5327 10.5681 19.7417 10.5355 19.9506C10.5135 20.0936 10.4917 20.2365 10.4698 20.3794C10.4166 20.7273 10.3628 21.0751 10.3084 21.4229C10.3462 21.4124 10.384 21.4018 10.4229 21.3909C10.6484 21.338 10.8768 21.337 11.1073 21.3291C11.16 21.3272 11.2126 21.3254 11.2668 21.3235C11.3783 21.3198 11.4898 21.3162 11.6013 21.3129C11.7698 21.3075 11.9381 21.3006 12.1065 21.2938C13.0296 21.2619 13.8011 21.3586 14.5247 22C15.0735 22.5799 15.2556 23.3302 15.2484 24.1126C15.2318 24.4532 15.1716 24.7804 15.1052 25.1141C15.0914 25.1859 15.0777 25.2578 15.0635 25.3318C15.0344 25.4825 15.0049 25.6332 14.9751 25.7838C14.93 26.0123 14.8863 26.2411 14.8427 26.47C14.8141 26.6174 14.7854 26.7648 14.7566 26.9121C14.7437 26.9795 14.7309 27.0469 14.7176 27.1163C14.5271 28.0679 14.2254 28.7903 13.4391 29.378C12.9868 29.6699 12.4984 29.7445 11.9703 29.7464C11.8895 29.7468 11.8087 29.7472 11.7254 29.7476C11.6378 29.7477 11.5502 29.7478 11.4625 29.7479C11.3712 29.7481 11.2799 29.7483 11.1885 29.7485C10.997 29.7489 10.8055 29.749 10.6139 29.749C10.4197 29.749 10.2254 29.7494 10.0311 29.7503C7.54701 29.7617 7.54701 29.7617 6.35993 29.4398C6.30466 29.4258 6.24939 29.4118 6.19245 29.3973C5.95129 29.3341 5.78352 29.2854 5.57347 29.1429C5.52346 28.685 5.52346 28.685 5.67077 28.479C6.08374 28.3214 6.65522 28.5484 7.07266 28.6506C7.75107 28.8109 8.42455 28.8244 9.11887 28.8264C9.16334 28.8266 9.20782 28.8268 9.25364 28.827C9.48857 28.828 9.72349 28.8286 9.95842 28.8289C10.1993 28.8292 10.4402 28.8308 10.6811 28.8327C10.8681 28.8339 11.0551 28.8343 11.2422 28.8344C11.331 28.8346 11.4197 28.8351 11.5085 28.836C12.1107 28.8415 12.7089 28.8361 13.1827 28.4089C13.2225 28.3747 13.2624 28.3405 13.3035 28.3052C13.645 27.8663 13.7479 27.324 13.8485 26.7861C13.8625 26.7136 13.8766 26.6412 13.891 26.5666C13.9203 26.4142 13.9493 26.2619 13.978 26.1094C14.0217 25.8773 14.0668 25.6454 14.112 25.4136C14.1405 25.2649 14.1688 25.1162 14.1971 24.9674C14.2105 24.8987 14.2239 24.8301 14.2377 24.7593C14.3714 24.0394 14.38 23.4639 13.9993 22.8201C13.7286 22.4496 13.3372 22.2887 12.9029 22.2147C12.7928 22.2119 12.6826 22.2126 12.5725 22.2164C12.5085 22.2184 12.4444 22.2203 12.3784 22.2224C12.3099 22.2248 12.2415 22.2272 12.1709 22.2296C12.0254 22.2338 11.8798 22.2379 11.7343 22.242C11.5052 22.2488 11.2762 22.256 11.0472 22.2638C10.8259 22.2712 10.6045 22.2773 10.3832 22.2833C10.3146 22.2859 10.246 22.2886 10.1754 22.2914C10.0796 22.2937 10.0796 22.2937 9.98182 22.296C9.92577 22.2979 9.86971 22.2997 9.81195 22.3015C9.62007 22.2752 9.53475 22.2239 9.40036 22.0827C9.30881 21.6439 9.43052 21.1358 9.49968 20.6986C9.50976 20.632 9.51984 20.5653 9.53022 20.4967C9.56215 20.2857 9.5947 20.0749 9.62738 19.864C9.66002 19.6527 9.69252 19.4414 9.72454 19.23C9.74437 19.0991 9.76456 18.9682 9.78517 18.8374C9.88015 18.2113 9.93057 17.62 9.57392 17.0667C9.37527 16.8148 9.18344 16.6562 8.88146 16.5401C8.81725 16.5401 8.75303 16.5401 8.68687 16.5401C8.67387 16.5762 8.66087 16.6123 8.64747 16.6495C8.10585 18.1452 7.50446 19.5378 6.48155 20.7631C6.44693 20.8093 6.41232 20.8556 6.37665 20.9033C6.22267 21.1046 6.13141 21.2095 5.89373 21.3033C5.7032 21.2909 5.7032 21.2909 5.51266 21.192C5.37888 21.027 5.37888 21.027 5.35456 20.8208C5.4231 20.5097 5.65379 20.3169 5.86333 20.0929C6.16005 19.7538 6.38556 19.3713 6.61127 18.9815C6.63466 18.9415 6.65805 18.9015 6.68215 18.8603C7.16557 18.0211 7.4952 17.1171 7.8302 16.209C8.13057 15.4545 8.50988 15.4367 9.23694 15.6798Z" stroke="#111111" stroke-width="0.2" mask="url(#path-1-outside-1_13672_7981)"/>
<path d="M29.6559 19.9606C29.7118 19.96 29.7676 19.9594 29.8252 19.9587C29.8854 19.9584 29.9456 19.9582 30.0076 19.9579C30.0698 19.9575 30.1319 19.9571 30.196 19.9567C30.3275 19.9561 30.4591 19.9557 30.5906 19.9554C30.7914 19.9548 30.992 19.9527 31.1928 19.9506C31.3207 19.9502 31.4486 19.9499 31.5765 19.9496C31.6363 19.9488 31.6961 19.948 31.7577 19.9471C32.1523 19.9485 32.4406 19.9998 32.742 20.2826C32.773 20.3214 32.804 20.3602 32.836 20.4002C32.8838 20.4583 32.8838 20.4583 32.9325 20.5177C33.0781 20.7299 33.0835 20.9181 33.0843 21.1683C33.0846 21.2385 33.085 21.3087 33.0854 21.3811C33.0855 21.4966 33.0855 21.4966 33.0856 21.6145C33.0861 21.7362 33.0861 21.7362 33.0866 21.8603C33.0874 22.083 33.0879 22.3056 33.0882 22.5282C33.0883 22.6674 33.0886 22.8065 33.0889 22.9457C33.0898 23.3812 33.0904 23.8167 33.0907 24.2522C33.091 24.7547 33.0921 25.2571 33.094 25.7596C33.0954 26.1481 33.096 26.5367 33.0961 26.9252C33.0962 27.1572 33.0966 27.3892 33.0977 27.6212C33.099 27.8801 33.0987 28.139 33.0983 28.3979C33.0989 28.4745 33.0995 28.5511 33.1001 28.6301C33.0979 29.069 33.0743 29.3911 32.7691 29.7277C32.731 29.7593 32.6928 29.7909 32.6536 29.8234C32.6154 29.8558 32.5773 29.8882 32.538 29.9216C32.3507 30.0545 32.1836 30.0753 31.9621 30.0784C31.8808 30.0796 31.8808 30.0796 31.798 30.0809C31.7396 30.0814 31.6812 30.0819 31.6211 30.0824C31.5607 30.0829 31.5003 30.0835 31.4381 30.084C31.3101 30.0849 31.1821 30.0856 31.0542 30.0862C30.8595 30.0873 30.665 30.0902 30.4704 30.0931C30.3459 30.0938 30.2213 30.0943 30.0968 30.0948C30.0391 30.0959 29.9814 30.0971 29.9219 30.0983C29.4963 30.0968 29.1389 30.0104 28.8227 29.7049C28.5896 29.4326 28.5269 29.2257 28.5252 28.873C28.5248 28.8036 28.5243 28.7341 28.5238 28.6625C28.5237 28.5863 28.5235 28.5101 28.5233 28.4316C28.5229 28.3514 28.5225 28.2711 28.522 28.1884C28.5207 27.9221 28.52 27.6558 28.5193 27.3895C28.5191 27.2977 28.5188 27.2059 28.5185 27.1141C28.5173 26.6826 28.5164 26.2512 28.5158 25.8198C28.5152 25.3224 28.5135 24.8251 28.5109 24.3278C28.5089 23.943 28.508 23.5582 28.5077 23.1734C28.5076 22.9437 28.507 22.7141 28.5054 22.4845C28.5036 22.228 28.5039 21.9715 28.5043 21.715C28.5035 21.6395 28.5026 21.5639 28.5018 21.4861C28.5048 21.0106 28.5573 20.6196 28.8904 20.2647C29.1369 20.0449 29.3337 19.9636 29.6559 19.9606ZM29.378 21.027C29.3714 21.1301 29.3692 21.2334 29.3689 21.3367C29.3685 21.4037 29.3682 21.4707 29.3678 21.5397C29.3677 21.6138 29.3676 21.6879 29.3676 21.7642C29.3672 21.8418 29.3669 21.9194 29.3666 21.9993C29.3658 22.2127 29.3653 22.426 29.365 22.6394C29.3648 22.7726 29.3646 22.9058 29.3643 23.039C29.3634 23.4554 29.3628 23.8719 29.3625 24.2883C29.3622 24.7696 29.3611 25.2509 29.3592 25.7322C29.3578 26.1038 29.3571 26.4754 29.3571 26.8471C29.357 27.0692 29.3566 27.2913 29.3554 27.5134C29.3543 27.7612 29.3545 28.0089 29.3549 28.2566C29.3543 28.3305 29.3537 28.4043 29.3531 28.4804C29.3534 28.5477 29.3538 28.6151 29.3542 28.6845C29.3541 28.7431 29.354 28.8017 29.3539 28.8621C29.3674 29.0144 29.3674 29.0144 29.4615 29.1287C29.6569 29.2697 29.8928 29.237 30.1239 29.2352C30.1779 29.2354 30.2319 29.2356 30.2875 29.2358C30.4015 29.2359 30.5156 29.2355 30.6296 29.2347C30.8043 29.2337 30.9789 29.2347 31.1536 29.236C31.2644 29.2358 31.3752 29.2356 31.486 29.2352C31.5645 29.2358 31.5645 29.2358 31.6445 29.2364C31.914 29.2407 31.914 29.2407 32.1459 29.1207C32.2993 28.9251 32.305 28.7435 32.3055 28.5033C32.3058 28.4397 32.306 28.3761 32.3063 28.3105C32.3063 28.2408 32.3063 28.171 32.3062 28.0992C32.3065 28.0257 32.3067 27.9522 32.3069 27.8765C32.3075 27.6328 32.3076 27.3891 32.3077 27.1454C32.3079 26.9763 32.3081 26.8073 32.3084 26.6382C32.3088 26.2836 32.3089 25.9289 32.3088 25.5742C32.3088 25.1645 32.3095 24.7548 32.3105 24.3451C32.3115 23.9508 32.3117 23.5565 32.3117 23.1621C32.3117 22.9944 32.312 22.8267 32.3125 22.6591C32.3132 22.4246 32.313 22.1902 32.3126 21.9558C32.3129 21.8864 32.3133 21.8169 32.3137 21.7453C32.3134 21.6813 32.3131 21.6173 32.3129 21.5514C32.3129 21.496 32.3129 21.4406 32.313 21.3835C32.2942 21.1996 32.2473 21.0606 32.1671 20.895C31.8072 20.6766 31.3555 20.741 30.9493 20.7422C30.8054 20.7424 30.6616 20.7409 30.5177 20.7392C30.4256 20.7391 30.3335 20.739 30.2415 20.7391C30.1583 20.7389 30.0751 20.7387 29.9894 20.7385C29.734 20.7667 29.5609 20.841 29.378 21.027Z" stroke="#111111" stroke-width="0.2" mask="url(#path-1-outside-1_13672_7981)"/>
<path d="M1.24511 19.9596C1.30077 19.9587 1.35643 19.9579 1.41377 19.957C1.47377 19.9565 1.53377 19.956 1.59558 19.9555C1.68857 19.9547 1.68857 19.9547 1.78344 19.9539C1.91473 19.953 2.04603 19.9523 2.17732 19.9518C2.37734 19.9507 2.57729 19.9478 2.7773 19.9449C2.90499 19.9442 3.03269 19.9436 3.16039 19.9432C3.2496 19.9414 3.2496 19.9414 3.34061 19.9397C3.73078 19.941 3.95614 20.005 4.27623 20.2352C4.56115 20.5407 4.68139 20.8278 4.68231 21.2477C4.68277 21.3175 4.68323 21.3873 4.6837 21.4593C4.68354 21.5352 4.68338 21.6112 4.68322 21.6894C4.68355 21.7699 4.68388 21.8504 4.68422 21.9333C4.68497 22.1537 4.68513 22.3739 4.68496 22.5943C4.6849 22.7784 4.68521 22.9625 4.68552 23.1467C4.68624 23.5812 4.68627 24.0157 4.68588 24.4502C4.68549 24.898 4.68629 25.3458 4.68767 25.7936C4.68881 26.1785 4.6892 26.5634 4.68899 26.9484C4.68887 27.1781 4.68904 27.4077 4.68994 27.6374C4.69091 27.8936 4.6903 28.1498 4.68955 28.406C4.69005 28.4818 4.69054 28.5576 4.69105 28.6357C4.68865 29.0064 4.68423 29.2888 4.47082 29.6048C4.03905 30.0249 3.70552 30.0874 3.13151 30.0889C3.07114 30.0893 3.01076 30.0897 2.94856 30.0902C2.8211 30.0909 2.69364 30.0912 2.56618 30.0911C2.37199 30.0914 2.17791 30.0938 1.98374 30.0963C1.85959 30.0967 1.73544 30.097 1.61129 30.0971C1.55364 30.098 1.496 30.099 1.4366 30.1C1.00477 30.0968 0.726391 30.0007 0.401201 29.6973C0.184699 29.4125 0.117042 29.225 0.115919 28.8696C0.115364 28.7643 0.115364 28.7643 0.114797 28.6569C0.114725 28.5799 0.114652 28.5028 0.114577 28.4235C0.114255 28.3423 0.113933 28.2612 0.113601 28.1776C0.112816 27.955 0.112332 27.7324 0.112044 27.5097C0.111854 27.3706 0.111588 27.2314 0.111298 27.0923C0.110411 26.6568 0.109784 26.2212 0.109533 25.7857C0.109243 25.2833 0.108105 24.7808 0.106225 24.2784C0.104822 23.8898 0.104169 23.5013 0.104082 23.1127C0.104014 22.8807 0.103633 22.6488 0.102472 22.4168C0.101203 22.1579 0.101487 21.899 0.101909 21.6401C0.101311 21.5635 0.100713 21.4869 0.100098 21.4079C0.102338 20.969 0.125856 20.6468 0.431099 20.3102C0.469226 20.2787 0.507353 20.2471 0.546635 20.2146C0.584762 20.1822 0.622889 20.1498 0.662171 20.1164C0.851875 19.9817 1.02088 19.9626 1.24511 19.9596ZM1.0331 20.895C0.924582 21.1193 0.887068 21.302 0.886469 21.5505C0.88601 21.6143 0.88555 21.6781 0.885077 21.7439C0.885237 21.8131 0.885398 21.8824 0.885564 21.9537C0.885232 22.0273 0.884901 22.1008 0.884559 22.1765C0.883658 22.4195 0.88372 22.6625 0.883869 22.9055C0.883617 23.0743 0.883336 23.2432 0.883027 23.4121C0.882543 23.7659 0.882553 24.1198 0.882903 24.4737C0.883295 24.8824 0.882496 25.2911 0.881115 25.6999C0.879834 26.0936 0.879637 26.4873 0.879865 26.881C0.879832 27.0483 0.879492 27.2156 0.87884 27.3829C0.878041 27.6167 0.878477 27.8505 0.879229 28.0842C0.878734 28.1535 0.878238 28.2227 0.877727 28.2941C0.880371 28.665 0.89133 28.9327 1.16283 29.2089C1.34292 29.2172 1.52131 29.2214 1.70149 29.2223C1.78272 29.2229 1.78272 29.2229 1.8656 29.2234C1.98043 29.2241 2.09526 29.2245 2.2101 29.2248C2.38592 29.2254 2.5617 29.2274 2.73752 29.2295C2.84892 29.23 2.96031 29.2303 3.07171 29.2306C3.15077 29.2318 3.15077 29.2318 3.23143 29.233C3.50056 29.2383 3.50056 29.2383 3.73881 29.1288C3.84896 28.9731 3.84666 28.8765 3.8469 28.6854C3.84745 28.6182 3.848 28.5511 3.84856 28.4819C3.84817 28.4082 3.84777 28.3346 3.84737 28.2587C3.84771 28.1811 3.84805 28.1036 3.8484 28.0236C3.84911 27.8108 3.84895 27.598 3.84833 27.3852C3.84784 27.1626 3.84829 26.94 3.8486 26.7174C3.84895 26.3435 3.84849 25.9696 3.84756 25.5958C3.8465 25.1634 3.84684 24.7311 3.84791 24.2988C3.8488 23.9277 3.84892 23.5566 3.84841 23.1855C3.84811 22.9638 3.84807 22.7422 3.84871 22.5205C3.8492 22.2734 3.84846 22.0263 3.84737 21.7792C3.84776 21.7056 3.84816 21.632 3.84856 21.5561C3.84774 21.4554 3.84774 21.4554 3.8469 21.3526C3.84683 21.2941 3.84675 21.2357 3.84668 21.1755C3.81683 20.9945 3.7702 20.9384 3.6276 20.8291C3.28305 20.7122 2.91022 20.7508 2.54936 20.7508C2.4043 20.7507 2.25928 20.7495 2.11423 20.7482C2.02158 20.7481 1.92893 20.7479 1.83628 20.7479C1.75226 20.7476 1.66824 20.7473 1.58168 20.747C1.36245 20.7627 1.22121 20.7802 1.0331 20.895Z" stroke="#111111" stroke-width="0.2" mask="url(#path-1-outside-1_13672_7981)"/>
<path d="M19.6747 7.07982C20.0929 7.26271 20.3312 7.61783 20.5162 8.02832C20.6079 8.47633 20.5909 8.87932 20.3621 9.282C19.7249 10.0838 18.9595 10.797 18.2458 11.5276C18.0806 11.6968 17.9161 11.8665 17.752 12.0367C17.552 12.2442 17.351 12.4506 17.1494 12.6564C17.0734 12.7343 16.9977 12.8125 16.9223 12.8911C16.4514 13.3817 16.0048 13.8238 15.2947 13.8637C14.6517 13.7898 14.3241 13.4899 13.8759 13.043C13.8364 13.0044 13.7968 12.9659 13.7561 12.9261C13.6251 12.7981 13.495 12.6692 13.3651 12.5399C13.3026 12.4785 13.3026 12.4785 13.2388 12.4158C12.8318 12.0045 12.604 11.6398 12.5728 11.044C12.5881 10.5766 12.7953 10.2564 13.1059 9.92199C13.4513 9.60293 13.8214 9.5765 14.2688 9.58846C14.6737 9.63823 14.9735 9.82583 15.238 10.1398C15.4567 10.0435 15.5968 9.92151 15.7628 9.74869C15.8143 9.69538 15.8659 9.64208 15.919 9.58717C16.0018 9.50067 16.0018 9.50067 16.0863 9.41242C16.2042 9.29075 16.3222 9.16909 16.4402 9.04745C16.6257 8.85563 16.8109 8.66349 16.9957 8.471C17.1743 8.28511 17.3539 8.10028 17.5335 7.91543C17.5882 7.85803 17.6429 7.80063 17.6992 7.74149C18.275 7.15082 18.8415 6.85929 19.6747 7.07982ZM18.5142 8.17237C18.4613 8.22819 18.4084 8.28402 18.3539 8.34153C18.3244 8.37245 18.2948 8.40337 18.2643 8.43523C18.2006 8.50188 18.1371 8.56874 18.0738 8.6358C17.9734 8.74202 17.8723 8.84743 17.7709 8.95266C17.4828 9.2517 17.1957 9.55163 16.9103 9.85322C16.7351 10.0381 16.5587 10.2217 16.3815 10.4045C16.3145 10.4742 16.2479 10.5444 16.1819 10.615C15.6008 11.2362 15.6008 11.2362 15.2697 11.2473C14.9892 11.1831 14.8846 11.0869 14.6948 10.8697C14.4288 10.5519 14.4288 10.5519 14.0502 10.445C13.8048 10.4494 13.8048 10.4494 13.6245 10.6099C13.4693 10.8236 13.4165 10.9301 13.4218 11.1955C13.6406 11.6031 13.9758 11.9105 14.2975 12.2347C14.3806 12.3201 14.3806 12.3201 14.4655 12.4072C14.5191 12.4615 14.5727 12.5159 14.6279 12.5719C14.6765 12.6212 14.7251 12.6705 14.7752 12.7213C14.9898 12.9131 15.0915 12.9797 15.3831 12.9702C15.6814 12.8979 15.8333 12.7556 16.0398 12.5383C16.0783 12.4994 16.1167 12.4606 16.1564 12.4206C16.2827 12.2925 16.4076 12.163 16.5324 12.0334C16.6201 11.9439 16.7079 11.8543 16.7957 11.7649C16.9793 11.5775 17.1623 11.3895 17.3447 11.2009C17.5786 10.9593 17.8136 10.7188 18.049 10.4787C18.2301 10.294 18.4108 10.1089 18.5914 9.9236C18.6779 9.83481 18.7645 9.74607 18.8512 9.6574C18.9721 9.53344 19.0927 9.40904 19.213 9.2845C19.2668 9.22962 19.2668 9.22962 19.3216 9.17364C19.5601 8.92644 19.5601 8.92644 19.7135 8.62217C19.7079 8.35595 19.6663 8.24808 19.4986 8.0407C19.118 7.72555 18.8734 7.85204 18.5142 8.17237Z" stroke="#111111" stroke-width="0.2" mask="url(#path-1-outside-1_13672_7981)"/>
<path d="M23.5384 2.97134C23.735 3.01361 23.735 3.01361 23.8606 3.12495C23.9435 3.3084 23.9533 3.4069 23.9296 3.60746C23.8178 3.76777 23.8178 3.76777 23.6661 3.92912C23.5864 4.0146 23.5864 4.0146 23.5052 4.10181C23.4263 4.18372 23.4263 4.18372 23.3458 4.26729C23.3019 4.31373 23.258 4.36017 23.2128 4.40802C23.0461 4.58153 22.8966 4.72588 22.6972 4.86113C22.2786 4.83125 22.2786 4.83125 22.1134 4.66319C22.0718 4.46851 22.0604 4.38768 22.1134 4.2013C22.2741 3.96808 22.468 3.77616 22.6688 3.57859C22.7207 3.52402 22.7726 3.46946 22.826 3.41324C23.258 2.97884 23.258 2.97884 23.5384 2.97134Z" stroke="#111111" stroke-width="0.2" mask="url(#path-1-outside-1_13672_7981)"/>
<path d="M9.66209 2.97005C10.0436 2.98202 10.2836 3.31793 10.5314 3.57859C10.6119 3.65775 10.6119 3.65775 10.6939 3.73852C11.121 4.17795 11.121 4.17795 11.1283 4.46317C11.0868 4.66319 11.0868 4.66319 10.9773 4.79103C10.797 4.87531 10.7002 4.88528 10.503 4.86113C10.3454 4.74747 10.3454 4.74747 10.1868 4.59308C10.1028 4.51206 10.1028 4.51206 10.0171 4.42941C9.96338 4.37591 9.9097 4.32241 9.8544 4.26729C9.80874 4.22263 9.76309 4.17798 9.71606 4.13197C9.54548 3.96244 9.40359 3.81034 9.27063 3.60746C9.30922 3.04812 9.30922 3.04812 9.66209 2.97005Z" stroke="#111111" stroke-width="0.2" mask="url(#path-1-outside-1_13672_7981)"/>
<path d="M25.1721 9.96632C25.2876 9.96613 25.2876 9.96613 25.4054 9.96593C25.4856 9.96751 25.5658 9.96908 25.6484 9.9707C25.7286 9.96998 25.8088 9.96926 25.8914 9.96851C26.4794 9.97338 26.4794 9.97338 26.679 10.1272C26.7835 10.2717 26.7835 10.2717 26.7795 10.5109C26.7186 10.7336 26.7186 10.7336 26.5241 10.8656C26.3443 10.8827 26.3443 10.8827 26.1288 10.8831C26.0513 10.8833 25.9738 10.8835 25.8939 10.8836C25.8129 10.8831 25.7319 10.8826 25.6484 10.8821C25.5269 10.8829 25.5269 10.8829 25.4029 10.8836C25.2866 10.8834 25.2866 10.8834 25.168 10.8831C25.0614 10.8829 25.0614 10.8829 24.9525 10.8827C24.7728 10.8656 24.7728 10.8656 24.5782 10.7336C24.5174 10.5481 24.5174 10.5481 24.5133 10.3377C24.6975 10.0285 24.8209 9.96608 25.1721 9.96632Z" stroke="#111111" stroke-width="0.2" mask="url(#path-1-outside-1_13672_7981)"/>
<path d="M7.54772 9.97895C7.6282 9.97678 7.70868 9.97461 7.79159 9.97238C7.86889 9.97191 7.94619 9.97144 8.02583 9.97096C8.0966 9.97007 8.16738 9.96918 8.24029 9.96827C8.42742 10.0078 8.42742 10.0078 8.5825 10.1619C8.68687 10.3377 8.68687 10.3377 8.68282 10.5481C8.62201 10.7336 8.62201 10.7336 8.42742 10.8656C8.13785 10.8967 7.84683 10.89 7.55583 10.8903C7.47536 10.892 7.39488 10.8936 7.31196 10.8952C7.19602 10.8956 7.19602 10.8956 7.07772 10.896C7.00695 10.8966 6.93618 10.8971 6.86326 10.8977C6.63197 10.858 6.55408 10.7926 6.41668 10.6017C6.42074 10.3625 6.42074 10.3625 6.48155 10.1398C6.80343 9.92148 7.16948 9.98074 7.54772 9.97895Z" stroke="#111111" stroke-width="0.2" mask="url(#path-1-outside-1_13672_7981)"/>
<path d="M16.7947 0.110351C16.8589 0.153899 16.9231 0.197448 16.9893 0.242317C17.0144 0.436915 17.0144 0.436915 17.0151 0.683579C17.0154 0.748735 17.0154 0.748735 17.0157 0.815207C17.0158 0.907056 17.0155 0.998908 17.0146 1.09075C17.0136 1.23155 17.0146 1.37222 17.0159 1.51301C17.0157 1.60219 17.0155 1.69137 17.0151 1.78055C17.0149 1.86195 17.0147 1.94335 17.0144 2.02721C17.0061 2.09143 16.9978 2.15565 16.9893 2.22181C16.7642 2.37445 16.6698 2.37618 16.4055 2.35378C16.3413 2.31023 16.2771 2.26668 16.2109 2.22181C16.1857 2.02721 16.1857 2.02721 16.1851 1.78055C16.1849 1.73711 16.1847 1.69367 16.1845 1.64892C16.1844 1.55707 16.1847 1.46522 16.1856 1.37337C16.1866 1.23258 16.1856 1.09191 16.1843 0.95112C16.1844 0.861939 16.1847 0.772759 16.1851 0.683579C16.1853 0.60218 16.1855 0.520781 16.1857 0.436915C16.194 0.372698 16.2024 0.30848 16.2109 0.242317C16.436 0.0896764 16.5304 0.0879443 16.7947 0.110351Z" stroke="#111111" stroke-width="0.2" mask="url(#path-1-outside-1_13672_7981)"/>
</svg>
