<svg width="23" height="30" viewBox="0 0 23 30" fill="none" xmlns="http://www.w3.org/2000/svg">
<path d="M15.4398 28.2166L8.89661 29.9698C8.43043 30.0947 7.9469 29.8155 7.82197 29.3493C7.69711 28.8832 7.97627 28.3996 8.44238 28.2748L14.9855 26.5215C15.4517 26.3967 15.9353 26.6758 16.0602 27.1419C16.1852 27.6081 15.9059 28.0916 15.4398 28.2166ZM12.4102 8.10866C12.3516 8.90629 11.9005 9.35587 11.2 9.34448C10.5026 9.33323 9.995 8.85525 10.0117 8.12741C10.028 7.41923 10.472 6.95403 11.2273 6.96229C11.9822 6.97042 12.3564 7.41645 12.4102 8.10866ZM20.7987 5.42051C18.1957 1.1214 13.0402 -0.967389 8.25064 0.431966C4.05911 1.65667 1.32616 4.42427 0.332423 8.68067C-0.651174 12.8935 0.573114 16.5171 3.67161 19.5517C4.39827 20.2634 5.06638 21.1255 5.47603 22.0454C5.88672 22.9675 6.01838 23.2558 7.01872 23.0137C8.408 22.6776 9.77868 22.2646 11.1677 21.9272C11.8798 21.7542 12.1503 21.3567 12.1456 20.6388C12.1266 17.7417 12.133 14.8443 12.1435 11.947C12.1458 11.2912 11.9397 10.7512 11.2341 10.7348C10.5198 10.7182 10.3011 11.2401 10.3071 11.9087C10.3236 13.7871 10.3121 15.6656 10.3119 17.5441C10.3119 20.5659 10.3119 20.5659 7.34066 21.0001C6.21109 19.7058 5.18249 18.5423 4.17035 17.3646C0.537767 13.1379 1.20206 6.88965 5.73582 3.65352C8.993 1.32848 12.492 1.19911 15.9805 3.16221C19.2196 4.9851 20.9818 8.7406 20.5147 12.3735C20.2027 14.8004 19.0438 16.7377 17.325 18.403C16.2876 19.4081 15.3424 20.4902 15.0021 21.9434C14.8429 22.6231 14.4618 22.9603 13.8033 23.1225C13.9264 23.0082 6.70608 25.0313 6.70608 25.0313C6.24928 25.1536 5.97575 25.6275 6.09818 26.0842L6.11699 26.1549C6.23942 26.6116 6.71324 26.8852 7.17003 26.7628C7.17003 26.7628 15.4546 24.5366 15.5632 24.5059C16.3305 24.2941 16.748 23.7479 16.7655 22.9683C16.7916 21.8045 17.2973 20.8987 18.1202 20.1254C18.5608 19.7114 18.9994 19.2937 19.414 18.8542C22.8359 15.2249 23.4006 9.71815 20.7987 5.42051Z" fill="#111111"/>
</svg>
