<svg width="31" height="40" viewBox="0 0 31 40" fill="none" xmlns="http://www.w3.org/2000/svg">
<path d="M21.3431 8.30983C18.5627 5.56587 15.9101 2.95014 15.1205 0C14.3309 2.95014 11.6778 5.56587 8.89787 8.30983C4.72784 12.4244 8.1073e-05 17.0876 8.1073e-05 24.0817C-0.00643475 26.0464 0.379867 27.993 1.13684 29.81C1.89381 31.627 3.00657 33.2786 4.41131 34.6702C5.81606 36.0617 7.48516 37.1658 9.32294 37.9191C11.1607 38.6725 13.131 39.0603 15.1209 39.0603C17.1108 39.0603 19.0811 38.6725 20.9188 37.9191C22.7566 37.1658 24.4257 36.0617 25.8305 34.6702C27.2352 33.2786 28.348 31.627 29.1049 29.81C29.8619 27.993 30.2482 26.0464 30.2417 24.0817C30.2417 17.0881 25.5143 12.4244 21.3431 8.30983ZM6.42698 27.5606C5.49975 27.5295 2.07796 21.7062 8.4259 15.506L12.6266 20.0363C12.6626 20.0715 12.6908 20.1138 12.7091 20.1605C12.7274 20.2071 12.7355 20.2571 12.7329 20.3071C12.7302 20.3571 12.7169 20.406 12.6937 20.4505C12.6706 20.495 12.6381 20.5342 12.5985 20.5655C11.5961 21.5804 7.32373 25.8106 6.79259 27.2732C6.68315 27.5752 6.52312 27.5638 6.42698 27.5606ZM15.121 35.2354C14.438 35.2354 13.7618 35.1026 13.1308 34.8446C12.4999 34.5865 11.9266 34.2083 11.4436 33.7315C10.9607 33.2547 10.5777 32.6887 10.3163 32.0657C10.0549 31.4428 9.92043 30.7751 9.92043 30.1008C9.93963 28.8557 10.398 27.6563 11.2167 26.7091C12.1544 25.577 15.1203 22.3928 15.1203 22.3928C15.1203 22.3928 18.0406 25.6238 19.0168 26.6984C19.8671 27.6316 20.3325 28.8455 20.3213 30.1008C20.3213 31.4625 19.7734 32.7685 18.7981 33.7314C17.8229 34.6943 16.5002 35.2353 15.121 35.2354ZM25.0746 26.9087C24.9625 27.1508 24.7081 27.5548 24.3651 27.5671C23.7533 27.5892 23.688 27.2796 23.2358 26.619C22.2432 25.1686 13.5807 16.2297 11.9604 14.501C10.5352 12.9805 11.7597 11.9085 12.3278 11.3467C13.0403 10.6419 15.1203 8.58933 15.1203 8.58933C15.1203 8.58933 21.3227 14.3996 23.9062 18.3697C26.4898 22.3397 25.5995 25.775 25.0746 26.9087Z" fill="#009CDE"/>
</svg>
