<svg width="28" height="32" viewBox="0 0 28 32" fill="none" xmlns="http://www.w3.org/2000/svg">
<path d="M16.2393 0.718006C17.1146 1.33991 17.694 2.31103 17.8706 3.35608C17.9968 4.53225 17.7315 5.6129 16.9926 6.56134C16.3295 7.31804 15.3901 7.88624 14.3625 7.96566C13.0491 8.01256 12.0329 7.79037 11.0102 6.92386C10.1785 6.12734 9.76521 5.1335 9.74916 4.00415C9.75602 2.92207 10.1444 1.94154 10.9108 1.1546C12.3706 -0.245982 14.5591 -0.348693 16.2393 0.718006ZM11.5335 2.0156C10.9003 2.76803 10.7722 3.54784 10.8312 4.49903C10.9179 5.29507 11.4294 5.90517 12.0281 6.40687C12.704 6.90498 13.4432 7.02537 14.2729 6.95505C15.0519 6.80186 15.7385 6.44656 16.2393 5.83238C16.626 5.24961 16.8474 4.6741 16.842 3.97686C16.8414 3.8953 16.8414 3.8953 16.8409 3.81209C16.8162 2.92736 16.4146 2.29919 15.7794 1.70034C15.1161 1.14355 14.3432 0.997015 13.4936 1.01037C12.7442 1.07234 12.0428 1.48346 11.5335 2.0156Z" fill="#111111"/>
<path d="M9.07119 3.8989C9.22581 4.00025 9.22581 4.00025 9.32493 4.14838C9.36061 4.36278 9.36061 4.36278 9.32493 4.58497C9.05435 4.93508 8.66551 5.06801 8.26636 5.24376C7.64363 5.52666 7.07726 5.8433 6.51744 6.23194C5.92322 6.6432 5.92322 6.6432 5.63381 6.6432C5.42205 6.56917 5.32899 6.51433 5.20166 6.33134C5.16602 6.09045 5.16271 5.95446 5.2978 5.74735C5.50259 5.53365 5.7291 5.38359 5.97873 5.22427C6.02934 5.19165 6.07995 5.15904 6.13209 5.12543C6.78317 4.71026 7.45028 4.33533 8.15535 4.01584C8.19612 3.99664 8.23689 3.97744 8.2789 3.95766C8.56693 3.83264 8.76703 3.8256 9.07119 3.8989Z" fill="#111111"/>
<path fill-rule="evenodd" clip-rule="evenodd" d="M2.93585 5.38353C3.17392 5.00188 3.47321 4.97719 3.86953 5.1463C4.02901 5.32364 4.12185 5.5134 4.21719 5.72956L4.30205 5.92154L4.38891 6.12083L4.47799 6.32159C4.69418 6.81371 4.69419 6.81374 4.69419 6.95504C4.73765 6.95816 4.78111 6.96132 4.82589 6.96454C5.02519 6.97913 5.22444 6.99435 5.42369 7.00961L5.63084 7.02447C6.54334 7.09559 6.54335 7.0956 6.84701 7.27858C6.95614 7.46162 6.97047 7.61787 6.97784 7.82822C6.89254 8.05189 6.74804 8.18064 6.56948 8.33498L6.43815 8.45071C6.28006 8.57667 6.28006 8.57667 6.06646 8.70458C5.83188 8.8568 5.6244 8.99839 5.51884 9.26274C5.51159 9.71877 5.66575 10.1563 5.79364 10.5899C5.87019 10.8965 5.88754 11.1573 5.74086 11.4457C5.56289 11.5857 5.45489 11.6056 5.22948 11.5999C4.89475 11.5362 4.61 11.34 4.32151 11.1689L4.12079 11.0533C3.99893 10.9831 3.87734 10.9124 3.7561 10.8411C3.66869 10.7903 3.57974 10.7419 3.48892 10.6973C3.32704 10.772 3.32703 10.772 3.14523 10.8822L2.93572 11.0022C2.79001 11.0866 2.64478 11.1717 2.49961 11.257L2.28886 11.3772C2.22556 11.4142 2.16223 11.4512 2.09701 11.4893C1.86776 11.5852 1.70592 11.593 1.459 11.5704C1.2687 11.4574 1.2687 11.4574 1.14183 11.2586C1.09058 10.7803 1.26678 10.2598 1.37748 9.79606C1.38885 9.74687 1.40021 9.69764 1.41192 9.64696C1.42248 9.60299 1.43307 9.55899 1.44395 9.51369C1.46107 9.37037 1.4434 9.27387 1.39557 9.138C1.30488 9.03747 1.30487 9.03747 1.18544 8.94699C0.94754 8.75087 0.713957 8.55138 0.483692 8.34668C0.450472 8.31777 0.417252 8.28887 0.383026 8.25909C0.214131 8.10872 0.0756613 7.98001 0 7.76585C0.00505357 7.52738 0.0262889 7.42723 0.201827 7.25915C0.402211 7.12804 0.525633 7.10122 0.76345 7.07905L0.982374 7.05676L1.20923 7.0369C1.358 7.02249 1.50676 7.00796 1.6555 6.99329C1.72125 6.98736 1.78699 6.98142 1.85473 6.97532C1.91254 6.96862 1.97036 6.96194 2.02992 6.95504C2.07583 6.95155 2.12175 6.94804 2.16905 6.94444C2.35763 6.85922 2.38641 6.70918 2.46157 6.52478L2.55796 6.29771C2.60733 6.17824 2.65631 6.05861 2.70491 5.93884C2.75224 5.82317 2.80115 5.70813 2.85011 5.59312C2.87839 5.52395 2.90671 5.4548 2.93585 5.38353ZM3.48892 6.8303C3.38016 7.03682 3.27227 7.24347 3.17175 7.454C3.13353 7.58 3.09288 7.7055 3.04488 7.82822C2.73119 7.90583 2.73119 7.90583 2.40805 7.94042L2.2678 7.95686C2.17496 7.968 2.08212 7.97912 1.98928 7.99024L1.77618 8.01534V8.14008L1.86216 8.22316C1.9389 8.28412 2.01555 8.34519 2.09211 8.40637L2.22022 8.5143L2.39467 8.6444C2.56898 8.93408 2.56898 8.9341 2.54273 9.2748L2.5255 9.43816C2.51675 9.54642 2.50792 9.65468 2.49899 9.76293L2.47396 10.0112L2.62487 9.93152L2.82682 9.82798C3.03607 9.71933 3.22658 9.63925 3.45522 9.57849C3.69203 9.57437 3.81364 9.62093 4.01139 9.74648L4.11931 9.82018C4.19261 9.86747 4.26588 9.91481 4.3391 9.96222L4.50388 10.0736C4.56914 9.87075 4.56394 9.8108 4.50785 9.59019C4.43396 9.32398 4.41666 9.10208 4.44045 8.82615C4.65381 8.61089 4.65382 8.61088 4.89242 8.42074C5.06386 8.27996 5.12969 8.22765 5.20167 8.01534C5.07592 8.00289 4.95019 7.99032 4.82453 7.97709L4.6704 7.96076C4.4859 7.9428 4.30665 7.91974 4.12327 7.89059C3.98744 7.76926 3.98743 7.76926 3.90521 7.59653C3.77545 7.33339 3.65408 7.07388 3.48892 6.8303Z" fill="#111111"/>
<path d="M15.605 2.77623C15.7711 2.91407 15.7907 2.99897 15.827 3.20892C15.7655 3.57949 15.3525 3.82536 15.0698 4.06262C15.0126 4.11072 15.0126 4.11072 14.9542 4.1598C13.648 5.25065 13.648 5.25065 13.3293 5.29833C13.0025 5.25336 12.8408 4.99866 12.6464 4.75308C12.5909 4.67908 12.5357 4.60485 12.4808 4.5304C12.4525 4.49382 12.4242 4.45723 12.3951 4.41954C12.2096 4.16808 12.1235 3.96904 12.1161 3.64942C12.2688 3.43562 12.3608 3.35091 12.6236 3.30248C12.9496 3.36259 13.0898 3.53 13.2777 3.78975C13.3131 3.84635 13.3484 3.90295 13.3848 3.96127C13.5884 3.87049 13.7477 3.75768 13.92 3.61823C13.9754 3.57457 14.0307 3.53092 14.0878 3.48594C14.22 3.37996 14.3501 3.27277 14.4798 3.16385C14.5509 3.10607 14.622 3.04833 14.6931 2.99063C14.7257 2.96233 14.7583 2.93403 14.7919 2.90487C15.0826 2.67292 15.259 2.69563 15.605 2.77623Z" fill="#111111"/>
<path d="M19.3965 4.25095C19.4824 4.29515 19.5679 4.34027 19.6529 4.38617C19.6987 4.4105 19.7445 4.43484 19.7917 4.45991C20.1595 4.65959 20.5149 4.87693 20.8661 5.10343C20.9153 5.13481 20.9645 5.16619 21.0151 5.19852C21.0607 5.22865 21.1063 5.25877 21.1533 5.28981C21.1936 5.31628 21.2339 5.34276 21.2755 5.37004C21.3963 5.47428 21.4483 5.55995 21.5044 5.70764C21.4932 5.91701 21.4804 6.07963 21.3696 6.26118C21.178 6.37423 21.0302 6.38622 20.8067 6.39372C20.6172 6.31905 20.4556 6.2099 20.2873 6.09746C20.1875 6.03374 20.0874 5.97033 19.9872 5.90718C19.9351 5.87424 19.883 5.84131 19.8293 5.80738C19.4963 5.60543 19.1479 5.4292 18.8005 5.25271C18.7495 5.22604 18.6985 5.19937 18.6459 5.17189C18.6007 5.14882 18.5555 5.12575 18.5089 5.10198C18.3721 5.00443 18.326 4.92775 18.2693 4.77208C18.2895 4.39336 18.2895 4.39336 18.4199 4.21855C18.7344 4.00451 19.0738 4.09939 19.3965 4.25095Z" fill="#111111"/>
<path fill-rule="evenodd" clip-rule="evenodd" d="M22.8747 4.89438C24.2577 3.97354 25.9379 4.13183 27.1437 5.25885C27.844 5.98351 28.0194 6.84571 27.9984 7.80849C27.9637 8.492 27.6931 9.00355 27.2679 9.53781C27.1204 9.74021 27.0368 9.94335 26.9509 10.1761C26.8474 10.4553 26.7386 10.7336 26.5158 10.9389C26.3767 11.0843 26.3458 11.1807 26.2819 11.3677C26.1163 11.8027 25.7971 12.072 25.3859 12.2877C24.8176 12.3754 24.3347 12.3711 23.8478 12.0441C23.4984 11.7768 23.3351 11.4888 23.2172 11.0715V10.9467L23.1022 10.9C22.8907 10.7811 22.7958 10.6393 22.7191 10.4129L22.6701 10.2334C22.5702 9.92097 22.4296 9.67332 22.2339 9.41087C21.7066 8.69986 21.4682 7.88343 21.5974 7.00377C21.7597 6.13476 22.1619 5.44372 22.8747 4.89438ZM24.359 11.0091V11.1339C24.4661 11.2352 24.4661 11.2352 24.6128 11.321C24.7911 11.3429 24.9038 11.3302 25.0727 11.2703C25.1837 11.1962 25.1837 11.1962 25.2471 11.0091H24.359ZM26.0163 5.68814C25.2096 5.25987 24.3807 5.14133 23.5817 5.67912C23.1261 6.05055 22.7552 6.49723 22.6463 7.07978C22.5991 7.59833 22.6042 8.13484 22.9248 8.57228C23.2615 8.99815 23.5109 9.43613 23.6848 9.9476L23.7247 10.0736H24.2956C24.2992 9.81793 24.3035 9.56232 24.3088 9.30672C24.3111 9.20241 24.3133 9.09809 24.3154 8.99377C24.3175 8.83998 24.3197 8.68622 24.3231 8.53245C24.3243 8.4828 24.3254 8.43458 24.3266 8.38639C24.328 8.21646 24.338 8.06025 24.359 7.89059C24.4328 7.76358 24.4328 7.76357 24.5493 7.70348C24.7892 7.67346 24.9312 7.66009 25.1319 7.80027C25.26 7.97 25.2792 8.08604 25.2855 8.29503C25.2856 8.34008 25.2857 8.38384 25.2858 8.42757C25.289 8.56878 25.292 8.70994 25.2934 8.85118C25.2943 8.94931 25.2956 9.04745 25.2974 9.14556C25.3021 9.37244 25.3062 9.5993 25.3087 9.82621L25.3105 10.0112H25.8815C25.9992 9.66382 26.1388 9.30729 26.3565 9.00839C26.804 8.46722 27.0166 7.92877 26.9859 7.22474C26.9022 6.55791 26.5399 6.10229 26.0163 5.68814Z" fill="#111111"/>
<path d="M9.83242 10.0112C9.87428 10.0318 9.91615 10.0524 9.95929 10.0736C9.56155 10.4646 9.16381 10.8557 8.75402 11.2586C8.75402 10.9959 8.90472 10.8859 9.07913 10.7051C9.12427 10.6567 9.12427 10.6567 9.17031 10.6074C9.37714 10.3892 9.59605 10.1981 9.83242 10.0112Z" fill="#111111"/>
<path d="M22.9635 4.83446C23.0053 4.85504 23.0472 4.87562 23.0903 4.89683C22.7763 5.20556 22.4623 5.51429 22.1388 5.83238C22.1388 5.57894 22.2358 5.5173 22.4084 5.33342C22.4584 5.27939 22.5085 5.22536 22.56 5.1697C22.6884 5.04261 22.8144 4.93664 22.9635 4.83446Z" fill="#111111"/>
<path fill-rule="evenodd" clip-rule="evenodd" d="M12.3874 8.85153C14.2004 8.44343 16.107 8.87302 17.5995 9.93424C18.6208 10.7075 19.5189 11.7539 19.8551 13.005C19.8725 13.1748 19.8822 13.3342 19.8829 13.504C19.8834 13.5536 19.8838 13.6031 19.8843 13.6542C19.8755 14.2453 19.7518 14.8253 19.623 15.401C19.5296 15.8655 19.5139 16.1476 19.7747 16.5557C19.9828 16.8897 19.9663 17.2965 19.8774 17.6672C19.7124 18.1664 19.4505 18.4864 19.0503 18.825C18.8413 18.9296 18.6883 18.9576 18.4596 18.9965C18.227 19.0483 18.1135 19.0749 17.963 19.2596C17.9018 19.3773 17.8437 19.4967 17.7885 19.6173C17.5687 20.0709 17.1874 20.4659 16.8103 20.8013H16.6834V22.2982L17.3812 22.4853C17.5386 22.533 17.6956 22.5819 17.8521 22.6323C17.8939 22.6457 17.9357 22.6591 17.9787 22.6729C18.1141 22.7165 18.2493 22.7603 18.3845 22.8042C18.4313 22.8194 18.4782 22.8346 18.5265 22.8502C18.7741 22.9305 19.0216 23.011 19.269 23.0917C19.5225 23.1743 19.7763 23.2561 20.0301 23.3377C20.2274 23.4012 20.4244 23.4654 20.6214 23.5298C20.7148 23.5602 20.8082 23.5904 20.9018 23.6203C22.0068 23.9738 22.9193 24.4937 23.4709 25.5415C23.7663 26.2176 23.7621 26.8731 23.7584 27.596C23.7585 27.7145 23.7588 27.833 23.7591 27.9515C23.7595 28.1981 23.7589 28.4448 23.7578 28.6914C23.7563 29.0075 23.7572 29.3235 23.7587 29.6395C23.7596 29.8835 23.7593 30.1274 23.7586 30.3713C23.7584 30.4879 23.7586 30.6045 23.7592 30.7211C23.7599 30.8835 23.7589 31.0459 23.7575 31.2083C23.758 31.2563 23.7585 31.3042 23.7591 31.3537C23.7557 31.5604 23.7474 31.6873 23.6165 31.8531C23.4413 31.9885 23.3598 31.9968 23.1393 31.997C23.0717 31.9976 23.0042 31.9983 22.9346 31.9989C22.8235 31.9981 22.8234 31.9981 22.71 31.9973C22.6312 31.9977 22.5524 31.9981 22.4713 31.9985C22.2525 31.9993 22.0337 31.999 21.8149 31.9982C21.5789 31.9976 21.343 31.9985 21.107 31.9992C20.6448 32.0003 20.1826 32.0001 19.7204 31.9994C19.3448 31.9988 18.9692 31.9987 18.5936 31.999C18.5135 31.9991 18.5135 31.9991 18.4318 31.9991C18.3233 31.9992 18.2147 31.9993 18.1062 31.9994C17.0883 32.0001 16.0704 31.9992 15.0525 31.9979C14.1787 31.9968 13.3048 31.997 12.431 31.9981C11.4168 31.9995 10.4026 32 9.38837 31.9992C9.28027 31.9991 9.17212 31.9991 9.06401 31.999C9.01083 31.999 8.95762 31.9989 8.90282 31.9989C8.5276 31.9987 8.15238 31.999 7.77716 31.9996C7.32001 32.0003 6.86284 32.0001 6.40569 31.9988C6.17235 31.9981 5.93902 31.9979 5.70568 31.9987C5.45298 31.9996 5.20031 31.9985 4.94762 31.9973C4.87349 31.9979 4.79936 31.9984 4.72299 31.9989C4.65547 31.9983 4.58794 31.9977 4.51838 31.997C4.46003 31.997 4.40169 31.9969 4.34158 31.9969C4.13602 31.9554 4.06024 31.8774 3.93297 31.7161C3.90792 31.5388 3.89824 31.3856 3.90013 31.2083C3.89969 31.1572 3.89923 31.1062 3.89877 31.0536C3.89765 30.8847 3.89841 30.7158 3.89927 30.5469C3.8991 30.429 3.89884 30.311 3.89852 30.1931C3.89815 29.9454 3.8987 29.6978 3.89989 29.4502C3.90132 29.1348 3.90048 28.8194 3.89896 28.504C3.89803 28.26 3.89837 28.0161 3.89902 27.7721C3.89919 27.656 3.899 27.5399 3.8984 27.4237C3.89407 26.3406 4.05637 25.4497 4.83692 24.6215C4.91249 24.5547 4.98944 24.4924 5.06749 24.434C5.0195 24.476 4.9725 24.52 4.92513 24.5669L4.77348 24.7307C4.60094 24.9145 4.50388 24.9762 4.50388 25.2296L5.45541 24.2941C5.41948 24.2764 5.38444 24.2591 5.34954 24.242C5.90757 23.8976 6.52099 23.7095 7.17608 23.4988C7.30902 23.4554 7.44195 23.4118 7.57484 23.3681C7.84108 23.2808 8.10747 23.194 8.37403 23.1077C8.72013 22.9955 9.06565 22.8816 9.41092 22.767C9.6003 22.7042 9.78971 22.6415 9.97911 22.5789C10.0456 22.5569 10.0456 22.5568 10.1134 22.5343C10.2361 22.4938 10.359 22.4535 10.4819 22.4132C10.584 22.3796 10.584 22.3796 10.6881 22.3454C10.8474 22.2982 10.8474 22.2982 10.9742 22.2982V20.8637L10.7205 20.7389C10.2265 20.3317 9.63211 19.7065 9.51524 19.0549L9.39878 19.0545C8.88469 19.0311 8.49182 18.8646 8.12884 18.5002C7.75092 18.035 7.63974 17.6058 7.65234 17.013C7.6816 16.7575 7.75683 16.5498 7.86767 16.3182C8.00636 16.0208 7.98892 15.8783 7.87783 15.5661C7.5221 14.4817 7.4516 13.3562 7.97298 12.3228C8.06169 12.1538 8.15322 11.9865 8.24654 11.82L8.35186 11.6319C9.23957 10.165 10.7411 9.27324 12.3874 8.85153ZM9.64211 23.8575C9.38838 23.8575 9.38836 23.8574 9.25289 23.8913C9.20281 23.9076 9.15419 23.9235 9.10558 23.9394C9.02067 23.9668 9.02063 23.9668 8.93739 23.9937C8.8463 24.0238 8.8463 24.0238 8.757 24.0534C8.63003 24.0948 8.50307 24.1363 8.37614 24.1778C8.17679 24.2437 7.97743 24.3095 7.77778 24.3745C7.64743 24.4168 7.51712 24.4594 7.38689 24.5021C7.32297 24.5232 7.26092 24.5436 7.19888 24.564C6.55428 24.7734 6.00321 24.9969 5.51884 25.4791C4.96722 26.068 4.91973 26.7022 4.92779 27.4762C4.92883 27.5714 4.92955 27.6667 4.9299 27.7619C4.93039 28.0126 4.93147 28.2634 4.93355 28.5141C4.93615 28.8248 4.9375 29.1355 4.93863 29.4462C4.94029 29.9031 4.94029 29.9031 4.94793 30.9677H7.16815C7.17205 30.7047 7.17586 30.4417 7.18141 30.1787C7.18368 30.0714 7.18587 29.964 7.18797 29.8567C7.19009 29.6985 7.19222 29.5402 7.19565 29.382C7.19683 29.3309 7.19799 29.2814 7.19912 29.2318C7.20059 29.0574 7.21058 28.8965 7.23158 28.7224C7.30509 28.5944 7.30511 28.5944 7.42189 28.5352C7.66082 28.5054 7.80351 28.4924 8.00451 28.6303C8.13576 28.8063 8.15202 28.932 8.15814 29.1476C8.15825 29.2178 8.15822 29.2178 8.15833 29.2866C8.1604 29.3755 8.16235 29.4644 8.16421 29.5533C8.16725 29.8918 8.16725 29.8918 8.18311 30.9677H11.4183L11.6681 29.5839C11.8176 28.7622 12.0892 27.842 11.9538 27.004L11.898 26.7694C11.8661 26.6301 11.8334 26.491 11.7989 26.3523C11.672 26.3523 11.672 26.3522 11.5472 26.4314C11.4956 26.4687 11.4456 26.5049 11.3955 26.5411C11.2813 26.6221 11.1673 26.7034 11.0535 26.785L10.8816 26.9096L10.7136 27.0284C10.5466 27.1486 10.41 27.2233 10.2135 27.2885C10.0148 27.304 10.0148 27.304 9.84313 27.1803C9.67336 26.9282 9.66589 26.7623 9.65995 26.4651C9.66021 26.3965 9.66045 26.3299 9.6607 26.2634C9.65771 26.0489 9.65509 25.8345 9.6545 25.62C9.65416 25.4709 9.65325 25.3218 9.65178 25.1727C9.64706 24.773 9.64361 24.3734 9.64236 23.9737C9.64227 23.9342 9.6422 23.8958 9.64211 23.8575ZM13.0042 27.7244C12.9318 27.9378 12.9318 27.9378 12.832 28.4573C12.8108 28.5695 12.8108 28.5695 12.7901 28.6795C12.6463 29.44 12.5328 30.2004 12.4333 30.9677H15.2244C15.2244 30.7707 15.1941 30.5871 15.16 30.3934C15.1504 30.34 15.141 30.2881 15.1317 30.2363C15.1121 30.1258 15.0924 30.0152 15.0727 29.9047C15.0416 29.7311 15.0104 29.5574 14.9796 29.3837C14.9595 29.2704 14.9394 29.1571 14.9192 29.0438C14.9092 28.988 14.8995 28.9339 14.8899 28.8797C14.8805 28.8271 14.8715 28.776 14.8624 28.7249C14.8533 28.6741 14.8444 28.6248 14.8355 28.5755C14.7963 28.3561 14.7962 28.3561 14.6535 27.7244H13.0042ZM18.0155 23.8575C18.012 24.2229 18.0077 24.5884 18.0023 24.9538C18 25.1029 17.9978 25.252 17.9957 25.4011C17.9936 25.621 17.9915 25.8409 17.988 26.0607C17.9868 26.1317 17.9857 26.2006 17.9846 26.2694C17.9839 26.3718 17.9839 26.3718 17.9833 26.4722C17.982 26.5365 17.9808 26.599 17.9795 26.6614C17.9771 26.8515 17.966 26.9521 17.8697 27.118C17.7596 27.2486 17.7596 27.2486 17.5306 27.264C17.2449 27.2494 17.0674 27.1298 16.8419 26.9655C16.5335 26.7287 16.2375 26.4683 15.8587 26.3523C15.8359 26.4623 15.8132 26.5725 15.7911 26.6827L15.7636 26.8201C15.6817 27.2117 15.6219 27.5911 15.6937 27.9892C15.7606 28.3006 15.822 28.6124 15.8778 28.9259C15.887 28.9781 15.8959 29.0289 15.9048 29.0795C15.9227 29.1803 15.9406 29.281 15.9585 29.3818C16.0252 29.7592 16.0253 29.7593 16.2393 30.9677H19.4745L19.4944 29.8918C19.4966 29.7332 19.4986 29.5745 19.5023 29.4159C19.5034 29.3719 19.5044 29.3293 19.5055 29.2866C19.5063 29.1956 19.5079 29.1045 19.5105 29.0134C19.5379 28.7853 19.5569 28.6883 19.7283 28.5352C19.9689 28.5008 20.1084 28.4913 20.3109 28.6306C20.4422 28.8064 20.4583 28.9321 20.4645 29.1476C20.4646 29.2178 20.4646 29.2178 20.4647 29.2866C20.4668 29.3755 20.4687 29.4644 20.4706 29.5533C20.4736 29.8918 20.4736 29.8918 20.4895 30.9677H22.7097C22.7119 30.4957 22.7144 30.0236 22.7156 29.5516C22.7163 29.2403 22.7169 28.9291 22.7184 28.6178C22.7199 28.3588 22.7211 28.0998 22.7215 27.8408C22.7217 27.7421 22.7219 27.6434 22.7221 27.5446C22.7231 27.4029 22.7241 27.2612 22.7241 27.1194C22.7241 27.0749 22.7241 27.0316 22.7241 26.9884C22.7249 26.7501 22.7162 26.5612 22.6485 26.3322C22.6262 26.2754 22.6045 26.2203 22.5828 26.1652C22.551 26.0836 22.5168 26.0029 22.4798 25.9235C22.1307 25.2612 21.4889 24.9203 20.7945 24.6901C20.7393 24.6725 20.6858 24.6554 20.6322 24.6383C20.5153 24.6 20.3983 24.5618 20.2813 24.5237C20.0996 24.4653 19.9179 24.4069 19.7364 24.3475C19.6169 24.3083 19.4973 24.2693 19.3776 24.2304C19.3189 24.2113 19.2619 24.1929 19.2049 24.1744C18.8113 24.0459 18.4218 23.9404 18.0155 23.8575ZM13.8581 24.909C13.6545 24.9204 13.5275 25.0065 13.3646 25.1218L13.246 25.2101C13.0523 25.3459 12.8693 25.4749 12.718 25.6567C12.6793 25.8243 12.7047 25.9664 12.7406 26.1332C12.7521 26.1812 12.7631 26.2278 12.7742 26.2743L12.8773 26.7265H14.7803C14.8438 26.477 14.8438 26.477 14.8777 26.2753L14.9706 25.6662C14.8633 25.5856 14.7559 25.5052 14.6479 25.4254L14.5147 25.3271C14.3036 25.1679 14.1015 25.0165 13.8581 24.909ZM11.6086 23.2961C11.2914 23.2338 11.2914 23.2338 10.6571 23.4832V25.8533C10.7279 25.8533 10.728 25.8533 11.0517 25.6283C11.0995 25.5948 11.1459 25.5623 11.1923 25.5298C11.7778 25.1216 12.3597 24.7084 12.9407 24.2941C12.7468 24.0851 12.5296 23.9236 12.2968 23.7596L12.1518 23.6587L12.0074 23.5555L11.8665 23.4572C11.7396 23.368 11.7396 23.368 11.6086 23.2961ZM16.1125 23.2338C16.0477 23.3012 16.0476 23.3012 15.9537 23.3612L15.832 23.4413C15.7405 23.5021 15.649 23.5629 15.5574 23.6236C15.248 23.8266 14.9704 24.0252 14.7169 24.2941C14.9096 24.4289 15.1021 24.5639 15.2934 24.7006L15.4296 24.7984C15.525 24.8668 15.6205 24.9351 15.716 25.0035C16.1345 25.3053 16.5613 25.5785 17.0006 25.8533V23.4832C16.6834 23.3585 16.6834 23.3585 16.5298 23.3168L16.3821 23.2844C16.2324 23.2506 16.2324 23.2506 16.1125 23.2338ZM15.6684 21.425C15.5416 21.425 15.5416 21.425 15.3909 21.4757L15.161 21.5498C14.739 21.6927 14.3367 21.7492 13.8923 21.7558C13.8022 21.7561 13.8022 21.7561 13.7138 21.7564C13.4054 21.7582 13.1272 21.7515 12.8267 21.6777C12.6236 21.6121 12.6236 21.6121 12.4414 21.5727L11.9892 21.4874C11.9557 21.807 11.9425 22.1039 11.9892 22.4229C12.0784 22.5421 12.0784 22.5421 12.2073 22.6218C12.5377 22.7824 12.8192 22.9765 13.1152 23.1909C13.3395 23.3537 13.5499 23.5116 13.8107 23.6116C13.9557 23.608 13.9557 23.608 14.1036 23.529C14.3251 23.3548 14.5392 23.1744 14.7847 23.0339C15.0992 22.8632 15.4381 22.7007 15.6684 22.4229C15.7832 22.096 15.7297 21.7583 15.6684 21.425ZM15.8258 13.5159C15.6161 13.5 15.5246 13.5726 15.3941 13.7303C15.1893 14.0159 14.9721 14.2868 14.7333 14.5458C13.5809 15.6984 12.0684 16.1071 10.465 16.1788L10.2765 16.1859C10.1115 16.7636 10.0631 17.4078 10.213 17.9946C10.5271 19.0564 11.0845 19.8562 12.0685 20.4193C12.9433 20.8544 13.9772 20.9379 14.9191 20.6688C15.8361 20.3473 16.5768 19.7258 17.0362 18.881C17.4137 18.0521 17.5754 17.0211 17.2481 16.1477C17.1871 15.9955 17.1871 15.9954 17.1396 15.8207C16.9787 15.2546 16.7587 14.7129 16.495 14.1858C16.3353 13.8913 16.1577 13.6207 15.8258 13.5159ZM9.19807 16.4978C9.02302 16.4978 9.02302 16.4978 8.82093 16.7441C8.68922 16.9959 8.70358 17.2844 8.75402 17.5581C8.88246 17.776 8.95743 17.814 9.19807 17.9323V16.4978ZM18.3961 17.9323C18.5864 17.8699 18.5865 17.8699 18.7252 17.714C18.8693 17.4404 18.8867 17.2365 18.8402 16.9343C18.7287 16.669 18.7287 16.669 18.3327 16.4354L18.3961 17.9323ZM17.0501 10.8184C15.8658 10.0055 14.4219 9.5589 12.9682 9.78733L12.8139 9.82412C11.3756 10.1376 10.1675 10.8534 9.32246 12.0641L9.19807 12.2566C9.12384 12.37 9.05165 12.4839 8.98218 12.6003C8.56518 13.3442 8.56714 14.2297 8.80185 15.0416L8.85314 15.1841C8.88316 15.2687 8.91343 15.3532 8.94433 15.4375L9.0764 15.4282L9.24961 15.4141C9.42132 15.4009 9.42135 15.4009 9.57868 15.3751C9.75135 15.2418 9.75137 15.2418 9.91345 15.2324L10.0822 15.2289L10.2703 15.2233C10.6533 15.2152 11.0357 15.2136 11.4159 15.1629C12.5166 14.9749 13.5951 14.5133 14.2597 13.5966C14.4868 13.2673 14.6914 12.9761 15.0341 12.7555C15.4313 12.5446 15.8361 12.5088 16.275 12.6035C16.99 13.0181 17.3504 13.6903 17.6457 14.4304L17.7261 14.6383C17.8059 14.8397 17.8857 15.041 17.9644 15.2428C17.9818 15.2878 17.9986 15.3314 18.0155 15.3751L18.5864 15.4375C18.617 15.264 18.6471 15.0904 18.6766 14.9167L18.7133 14.7007C18.802 14.1979 18.8839 13.7037 18.8402 13.1921C18.5801 12.2587 17.8167 11.3941 17.0501 10.8184Z" fill="#111111"/>
<path d="M5.70915 5.39579C5.75102 5.41637 5.79289 5.43695 5.83602 5.45816C5.80012 5.48984 5.76423 5.52151 5.72724 5.55415C5.42886 5.82159 5.42886 5.82159 5.26511 6.17542C5.26511 6.22687 5.26511 6.27833 5.26511 6.33135C5.24417 6.33135 5.22322 6.33134 5.20166 6.33134C5.18169 6.08101 5.17341 5.93841 5.31268 5.72323C5.43873 5.59931 5.56186 5.49406 5.70915 5.39579Z" fill="#111111"/>
</svg>
