
<svg  
  viewBox="0 0 100 100" 
  xmlns="http://www.w3.org/2000/svg"
  fill="none"
>
  <!-- Outer outline -->
  <!-- Inner camera-like icon -->
  <g transform="translate(50,50) scale(3) translate(-20,-20)">
    <path 
      d="M23.7546 16.2453H23.7614M16.5867 13.1733H23.4133C25.2984 13.1733 26.8266 14.7015 26.8266 16.5867V23.4133C26.8266 25.2984 25.2984 26.8266 23.4133 26.8266H16.5867C14.7015 26.8266 13.1733 25.2984 13.1733 23.4133V16.5867C13.1733 14.7015 14.7015 13.1733 16.5867 13.1733ZM22.7307 19.5699C22.815 20.138 22.718 20.7183 22.4534 21.2281C22.1889 21.7379 21.7703 22.1513 21.2573 22.4095C20.7443 22.6678 20.1629 22.7576 19.5958 22.6664C19.0288 22.5751 18.5049 22.3074 18.0988 21.9013C17.6926 21.4952 17.4249 20.9713 17.3337 20.4042C17.2424 19.8372 17.3323 19.2558 17.5905 18.7428C17.8487 18.2297 18.2622 17.8112 18.772 17.5466C19.2818 17.2821 19.862 17.1851 20.4302 17.2693C21.0097 17.3552 21.5462 17.6253 21.9605 18.0396C22.3748 18.4538 22.6448 18.9904 22.7307 19.5699Z"
      stroke="currentColor"
      stroke-width="1.3"
      stroke-linecap="round"
      stroke-linejoin="round"
    />
  </g>
</svg>
