<svg width="30" height="31" viewBox="0 0 30 31" fill="none" xmlns="http://www.w3.org/2000/svg">
<path d="M20.9548 18.3743V20.1709C20.9554 20.3377 20.9213 20.5028 20.8545 20.6556C20.7877 20.8084 20.6897 20.9456 20.5668 21.0583C20.4439 21.1711 20.2988 21.2569 20.1408 21.3103C19.9828 21.3638 19.8154 21.3836 19.6493 21.3686C17.8065 21.1684 16.0365 20.5387 14.4812 19.5301C13.0343 18.6107 11.8076 17.384 10.8882 15.937C9.87612 14.3748 9.24629 12.596 9.04972 10.745C9.03476 10.5794 9.05444 10.4125 9.10751 10.2549C9.16058 10.0973 9.24589 9.95254 9.35799 9.82973C9.47009 9.70693 9.60653 9.60881 9.75863 9.54163C9.91073 9.47444 10.0751 9.43967 10.2414 9.43951H12.038C12.3286 9.43665 12.6103 9.53957 12.8307 9.72907C13.051 9.91858 13.195 10.1818 13.2357 10.4695C13.3115 11.0445 13.4521 11.609 13.6548 12.1523C13.7354 12.3666 13.7529 12.5996 13.7051 12.8235C13.6573 13.0475 13.5464 13.2531 13.3854 13.4159L12.6248 14.1764C13.4773 15.6757 14.7187 16.917 16.2179 17.7695L16.9784 17.009C17.1413 16.848 17.3468 16.737 17.5708 16.6892C17.7947 16.6415 18.0277 16.6589 18.242 16.7395C18.7853 16.9422 19.3498 17.0829 19.9248 17.1587C20.2157 17.1997 20.4813 17.3462 20.6712 17.5704C20.8611 17.7945 20.9621 18.0807 20.9548 18.3743Z" stroke="url(#paint0_linear_29_734)" stroke-width="1.2" stroke-linecap="round" stroke-linejoin="round"/>
<defs>
<linearGradient id="paint0_linear_29_734" x1="9.8427" y1="18.39" x2="20.1676" y2="12.4407" gradientUnits="userSpaceOnUse">
<stop stop-color="#2AF598"/>
<stop offset="1" stop-color="#009EFD"/>
</linearGradient>
</defs>
</svg>
