<svg width="100" height="100" viewBox="0 0 100 100" fill="none" xmlns="http://www.w3.org/2000/svg">
  <path fill-rule="evenodd" clip-rule="evenodd" d="M52.0182 46.0178L62.4208 34.9927H65.8693L65.8543 35.009L53.5512 48.0522L64.8152 63.0027C65.1015 63.3826 65.1482 63.8916 64.936 64.3174C64.7375 64.7155 64.344 64.9767 63.9044 65.0085H56.8508C56.4913 64.9825 56.1585 64.8024 55.9398 64.5122L48.0135 53.992L37.6718 65.0085H34.1314L46.4806 51.9573L35.2166 36.0069C34.9303 35.627 34.8836 35.118 35.0958 34.6922C35.308 34.2664 35.7426 33.9977 36.2183 33.9977H43.0901C43.484 33.9977 43.855 34.1827 44.0921 34.4972L52.0182 46.0178ZM51.0025 48.7853C50.927 48.744 50.8695 48.7008 50.8653 48.656L42.4647 37.5065H38.7337L57.567 62.5033H61.298L51.0025 48.7853Z" fill="currentColor"/>
</svg>
