<svg width="188" height="50" viewBox="0 0 188 50" fill="none" xmlns="http://www.w3.org/2000/svg">
<path d="M0.421036 48.3516V2.0688H11.6001V36.285C11.6001 36.7731 11.9995 37.1725 12.4877 37.1725H32.3561C32.8088 38.0024 33.3103 38.8012 33.8472 39.5557C36.5943 43.3945 40.2245 46.3501 44.6446 48.3516H0.421036Z" fill="#2292FA"/>
<path d="M61.2157 49.896C56.0323 49.896 51.2172 49.0439 46.908 47.3619L46.6106 47.251C46.4331 47.1844 46.26 47.1179 46.087 47.0469C41.6313 45.1741 37.9967 42.3072 35.2896 38.5217C34.6993 37.6962 34.1535 36.8042 33.6786 35.8811C32.0543 32.7302 31.2289 29.14 31.2289 25.2124C31.2289 20.1887 32.5958 15.7331 35.2896 11.9697C37.9967 8.18422 41.6313 5.30403 46.0914 3.40904C50.5914 1.49631 55.6817 0.524414 61.2157 0.524414C66.7498 0.524414 71.84 1.49631 76.3401 3.40904C79.7351 4.85136 82.6685 6.88835 85.0694 9.46233C81.6123 13.7271 79.8593 19.0216 79.8593 25.2124C79.8593 31.4033 81.5679 36.8974 84.9407 41.1666C82.562 43.6696 79.6729 45.6489 76.3445 47.0469C71.8445 48.9374 66.7542 49.896 61.2157 49.896ZM61.2157 10.2256C55.3888 10.2256 50.8577 11.5615 47.7556 14.1931C44.6091 16.8647 43.0115 20.5704 43.0115 25.208C43.0115 29.8456 44.6091 33.5512 47.7556 36.2228C50.8577 38.8545 55.3888 40.1903 61.2157 40.1903C67.0427 40.1903 71.5738 38.8545 74.6759 36.2228C77.8223 33.5512 79.42 29.8456 79.42 25.208C79.42 20.5704 77.8223 16.8647 74.6759 14.1931C71.5693 11.557 67.0427 10.2212 61.2157 10.2212V10.2256Z" fill="#2292FA"/>
<path d="M109.478 49.896C101.41 49.896 94.6686 47.6637 89.4452 43.2569C88.4777 42.4403 87.5857 41.5527 86.7958 40.6252C83.3741 36.5912 81.6389 31.4033 81.6389 25.2124C81.6389 19.0216 83.4141 14.0556 86.92 10.0215C87.781 9.03186 88.7529 8.09546 89.8002 7.23895C95.2721 2.7833 102.142 0.524414 110.215 0.524414C115.926 0.524414 121.465 1.2256 126.666 2.61022C130.292 3.57325 133.172 4.59396 135.258 5.64574C133.345 7.17238 131.654 8.94754 130.234 10.9357C129.431 12.0585 128.725 13.2567 128.135 14.5038C122.357 11.668 116.33 10.2301 110.215 10.2301C104.96 10.2301 100.766 11.5792 97.7485 14.2464C94.6996 16.9402 93.1508 20.6281 93.1508 25.2124C93.1508 29.7968 94.6863 33.5468 97.713 36.214C100.709 38.8545 105.004 40.1947 110.481 40.1947C118.433 40.1947 123.306 39.285 125.374 37.4122C125.561 37.2435 125.667 37.0039 125.667 36.7554V33.4669C125.667 32.9787 125.268 32.5793 124.78 32.5793H115.465V23.7479H125.876C125.849 24.2405 125.836 24.7331 125.836 25.208C125.836 30.6533 127.314 35.4773 130.229 39.5513C131.889 41.8678 133.882 43.8782 136.163 45.5335C130.491 48.427 121.522 49.8915 109.469 49.8915L109.478 49.896Z" fill="#2292FA"/>
<path d="M157.602 49.896C152.064 49.896 146.974 48.9374 142.474 47.0469C140.845 46.3634 139.305 45.5335 137.894 44.5794C135.479 42.9462 133.385 40.9092 131.676 38.5217C128.982 34.7583 127.615 30.2805 127.615 25.2124C127.615 24.4757 127.651 23.708 127.713 22.9402C127.922 20.4949 128.481 18.1828 129.382 16.0615C129.994 14.6192 130.766 13.2434 131.676 11.9697C133.256 9.76411 135.182 7.8425 137.401 6.25373C138.968 5.13095 140.676 4.1768 142.478 3.40904C146.978 1.49631 152.068 0.524414 157.602 0.524414C163.136 0.524414 168.227 1.49631 172.727 3.40904C177.182 5.30403 180.817 8.18422 183.529 11.9697C186.227 15.7331 187.594 20.1887 187.594 25.2124C187.594 30.2361 186.227 34.7583 183.529 38.5217C180.821 42.3072 177.187 45.1741 172.731 47.0469C168.231 48.9374 163.141 49.896 157.602 49.896ZM157.602 10.2256C151.775 10.2256 147.244 11.5615 144.142 14.1931C140.996 16.8647 139.398 20.5704 139.398 25.208C139.398 29.8456 140.996 33.5512 144.142 36.2228C147.244 38.8545 151.775 40.1903 157.602 40.1903C163.429 40.1903 167.96 38.8545 171.062 36.2184C174.209 33.5468 175.807 29.8411 175.807 25.2035C175.807 20.5659 174.209 16.8603 171.062 14.1887C167.956 11.5526 163.429 10.2168 157.602 10.2168V10.2256Z" fill="#2292FA"/>
</svg>
