<svg width="99" height="30" viewBox="0 0 99 30" fill="none" xmlns="http://www.w3.org/2000/svg">
<path fill-rule="evenodd" clip-rule="evenodd" d="M8.11765 23.8486C9.25692 23.8486 9.92223 23.7338 10.8914 23.2307C12.857 22.2124 13.9264 19.6261 13.9264 17.3627C13.9264 16.068 13.8109 15.3508 13.1881 14.2455C13.0817 14.0592 13.0089 13.9288 12.8904 13.7488C12.5926 13.3016 11.9607 12.572 11.5567 12.2491L10.8853 11.7119C10.3354 11.2959 9.91617 11.1127 9.35409 10.8333C8.89842 10.6067 7.94752 10.2434 7.4584 10.2434C7.06346 10.2434 6.81131 10.5849 6.69282 10.8923L5.61128 14.1213C5.13432 15.5899 4.66039 16.9931 4.18039 18.4681C4.0376 18.9089 3.16872 21.3927 3.12619 21.7311C3.0715 22.169 3.43302 22.2994 3.77936 22.467C4.64216 22.8893 7.16068 23.8424 8.12072 23.8424L8.11765 23.8486Z" fill="#FCB32C"/>
<path fill-rule="evenodd" clip-rule="evenodd" d="M5.39849 8.4365C5.76913 8.25641 6.87802 8.75318 7.25777 8.8929L9.91299 9.88333C11.3652 10.4484 12.5591 11.1346 13.7501 12.1529C13.8655 12.2523 13.9292 12.3486 14.0447 12.4417L14.6462 13.0906C14.7465 13.2272 14.8164 13.3234 14.9105 13.4508C15.0988 13.7054 15.2144 13.9227 15.3723 14.199C15.7095 14.7982 15.9527 15.2391 16.0711 15.9688C16.1289 16.3165 16.1926 16.7077 16.1926 17.1051C16.1926 20.6631 14.3394 24.1094 11.0827 24.9788C7.86538 25.8388 4.74229 24.3052 1.683 23.1718C1.51287 23.1097 1.42477 23.0415 1.19388 23.0415C1.21515 23.2991 1.77414 24.035 1.9868 24.2524C2.0506 24.3176 2.0901 24.3516 2.15389 24.42L2.482 24.7584C3.05011 25.2645 2.94378 25.2645 3.78836 25.7829C4.73013 26.3574 6.36763 27 7.86841 27C9.54841 27 10.4386 26.8914 11.912 26.2922C12.5622 26.0251 13.267 25.5874 13.7895 25.1372L14.5551 24.361C14.8529 24.0009 14.9105 23.976 15.2266 23.4885C16.1349 22.0944 16.7273 20.5514 16.7273 18.8313C16.7273 17.9403 16.5481 17.0306 16.3232 16.2109C16.22 15.8351 16.0862 15.4067 15.9435 15.0838C15.7946 14.7485 15.6244 14.3791 15.4513 14.0717C15.1171 13.4786 14.9258 13.2303 14.5673 12.7025C13.2245 10.7154 10.7576 8.06392 9.69429 6.22898C9.49987 5.89367 9.33579 5.62044 9.15957 5.26029C8.77986 4.48099 8.56109 3.86624 8.36359 3L8.28462 3.17076C8.25728 3.2577 8.25728 3.27322 8.22993 3.36947C7.98993 4.26365 7.60412 5.13921 7.09373 5.91229C6.76257 6.41528 6.17927 7.27841 5.79648 7.74414C5.65066 7.91799 5.40458 8.14775 5.39849 8.43028V8.4365Z" fill="#FCB32C"/>
<path fill-rule="evenodd" clip-rule="evenodd" d="M3.05627e-06 18.3314C3.05627e-06 19.2566 -0.00303312 19.5143 0.182287 20.4613L0.443552 21.4983C0.49216 21.6938 0.458747 21.7404 0.619763 21.7839C0.644068 21.5045 3.96463 11.774 4.43552 10.3148C4.46893 10.2061 4.77882 9.34609 4.74843 9.284C4.63299 9.03252 3.85221 10.1751 3.61828 10.4483C3.16259 10.9792 2.3879 12.0628 1.99598 12.6652C1.48561 13.4475 1.04205 14.2175 0.677486 15.152C0.355455 15.9779 3.05627e-06 17.2105 3.05627e-06 18.3345V18.3314Z" fill="#FCB32C"/>
<path d="M32.3516 22H28.3118V8.90909H32.5305C33.8004 8.90909 34.8871 9.17116 35.7905 9.69531C36.6939 10.2152 37.3864 10.9631 37.8679 11.9389C38.3494 12.9105 38.5902 14.0739 38.5902 15.429C38.5902 16.7926 38.3473 17.9666 37.8615 18.951C37.3757 19.9311 36.6683 20.6854 35.7393 21.2138C34.8104 21.7379 33.6811 22 32.3516 22ZM29.897 20.5938H32.2493C33.3317 20.5938 34.2287 20.3849 34.9403 19.9673C35.652 19.5497 36.1825 18.9553 36.532 18.1839C36.8814 17.4126 37.0561 16.4943 37.0561 15.429C37.0561 14.3722 36.8835 13.4624 36.5384 12.6996C36.1932 11.9325 35.6776 11.3445 34.9915 10.9354C34.3054 10.522 33.451 10.3153 32.4283 10.3153H29.897V20.5938ZM41.2493 22V8.90909H45.6726C46.6953 8.90909 47.5348 9.08381 48.1911 9.43324C48.8473 9.77841 49.3331 10.2536 49.6484 10.8587C49.9638 11.4638 50.1214 12.152 50.1214 12.9233C50.1214 13.6946 49.9638 14.3786 49.6484 14.9751C49.3331 15.5717 48.8494 16.0405 48.1974 16.3814C47.5455 16.718 46.7124 16.8864 45.6982 16.8864H42.1186V15.4545H45.647C46.3459 15.4545 46.9084 15.3523 47.3345 15.1477C47.7649 14.9432 48.076 14.6534 48.2678 14.2784C48.4638 13.8991 48.5618 13.4474 48.5618 12.9233C48.5618 12.3991 48.4638 11.9411 48.2678 11.549C48.0717 11.157 47.7585 10.8544 47.3281 10.6413C46.8977 10.424 46.3288 10.3153 45.6214 10.3153H42.8345V22H41.2493ZM47.4112 16.1193L50.6328 22H48.7919L45.6214 16.1193H47.4112ZM61.3539 8.90909H62.9391V17.5767C62.9391 18.4716 62.7282 19.2706 62.3063 19.9737C61.8887 20.6726 61.2985 21.2244 60.5357 21.6293C59.7729 22.0298 58.878 22.2301 57.851 22.2301C56.824 22.2301 55.9292 22.0298 55.1664 21.6293C54.4036 21.2244 53.8113 20.6726 53.3894 19.9737C52.9718 19.2706 52.763 18.4716 52.763 17.5767V8.90909H54.3482V17.4489C54.3482 18.0881 54.4888 18.657 54.7701 19.1555C55.0513 19.6499 55.4519 20.0398 55.9718 20.3253C56.4959 20.6065 57.1223 20.7472 57.851 20.7472C58.5797 20.7472 59.2061 20.6065 59.7303 20.3253C60.2544 20.0398 60.655 19.6499 60.932 19.1555C61.2132 18.657 61.3539 18.0881 61.3539 17.4489V8.90909ZM66.1048 22V8.90909H70.5281C71.555 8.90909 72.3945 9.09446 73.0465 9.4652C73.7028 9.83168 74.1886 10.3281 74.5039 10.9545C74.8192 11.581 74.9769 12.2798 74.9769 13.0511C74.9769 13.8224 74.8192 14.5234 74.5039 15.1541C74.1928 15.7848 73.7113 16.2876 73.0593 16.6626C72.4073 17.0334 71.5721 17.2188 70.5536 17.2188H67.3832V15.8125H70.5025C71.2056 15.8125 71.7702 15.6911 72.1964 15.4482C72.6225 15.2053 72.9315 14.8771 73.1232 14.4638C73.3192 14.0462 73.4173 13.5753 73.4173 13.0511C73.4173 12.527 73.3192 12.0582 73.1232 11.6449C72.9315 11.2315 72.6204 10.9077 72.19 10.6733C71.7596 10.4347 71.1886 10.3153 70.4769 10.3153H67.69V22H66.1048ZM76.7315 22H75.0696L79.8764 8.90909H81.5128L86.3196 22H84.6577L80.7457 10.9801H80.6435L76.7315 22ZM77.3452 16.8864H84.044V18.2926H77.3452V16.8864ZM88.3587 22V8.90909H89.9439V15.4034H90.0973L95.978 8.90909H98.049L92.5518 14.8153L98.049 22H96.1314L91.5803 15.9148L89.9439 17.7557V22H88.3587Z" fill="#FEFEFE"/>
</svg>
