<svg  
  viewBox="0 0 100 100" 
  xmlns="http://www.w3.org/2000/svg"
  fill="none"
  stroke="currentColor"
  stroke-width="2"
  stroke-linecap="round"
  stroke-linejoin="round">

  <!-- Centered Play Button Icon -->
  <g transform="translate(50,50) scale(3) translate(-20,-20)">
    <path d="M27.4949 16.2238C27.4104 15.8863 27.2384 15.5771 26.9962 15.3274C26.7539 15.0777 26.4501 14.8963 26.1153 14.8016C24.8922 14.5029 19.9998 14.5029 19.9998 14.5029C19.9998 14.5029 15.1074 14.5029 13.8843 14.83C13.5496 14.9247 13.2457 15.1061 13.0035 15.3558C12.7613 15.6056 12.5892 15.9148 12.5048 16.2523C12.2809 17.4935 12.1714 18.7527 12.1777 20.014C12.1697 21.2848 12.2792 22.5536 12.5048 23.8042C12.5979 24.1312 12.7738 24.4287 13.0154 24.6678C13.2571 24.907 13.5564 25.0798 13.8843 25.1695C15.1074 25.4966 19.9998 25.4966 19.9998 25.4966C19.9998 25.4966 24.8922 25.4966 26.1153 25.1695C26.4501 25.0748 26.7539 24.8934 26.9962 24.6437C27.2384 24.394 27.4104 24.0848 27.4949 23.7473C27.717 22.5154 27.8265 21.2658 27.822 20.014C27.83 18.7432 27.7205 17.4744 27.4949 16.2238Z" stroke = "currentColor" />
    <path d="M18.3998 22.3393L22.4887 20.014L18.3998 17.6887V22.3393Z" stroke = "currentColor" />
  </g>
</svg>
