<svg  
  viewBox="0 0 100 100" 
  xmlns="http://www.w3.org/2000/svg"
  fill="none">
  
  <!-- Centered icon group -->
  <g transform="translate(50,50) scale(3) translate(-20,-20)">
    <path 
      d="M23.2336 17.1703C24.52 17.1703 25.7538 17.6814 26.6634 18.591C27.5731 19.5006 28.0841 20.7344 28.0841 22.0208V27.6797H24.8504V22.0208C24.8504 21.592 24.6801 21.1808 24.3769 20.8775C24.0736 20.5743 23.6624 20.404 23.2336 20.404C22.8048 20.404 22.3935 20.5743 22.0903 20.8775C21.7871 21.1808 21.6168 21.592 21.6168 22.0208V27.6797H18.3831V22.0208C18.3831 20.7344 18.8941 19.5006 19.8038 18.591C20.7134 17.6814 21.9472 17.1703 23.2336 17.1703Z" 
      stroke="currentColor" 
      stroke-width="1.28" 
      stroke-linecap="round" 
      stroke-linejoin="round"
    />
    <path 
      d="M15.1494 17.9787H11.9158V27.6797H15.1494V17.9787Z" 
      stroke="currentColor" 
      stroke-width="1.28" 
      stroke-linecap="round" 
      stroke-linejoin="round"
    />
    <path 
      d="M13.5326 15.5535C14.4256 15.5535 15.1494 14.8296 15.1494 13.9367C15.1494 13.0437 14.4256 12.3198 13.5326 12.3198C12.6397 12.3198 11.9158 13.0437 11.9158 13.9367C11.9158 14.8296 12.6397 15.5535 13.5326 15.5535Z" 
      stroke="currentColor" 
      stroke-width="1.28" 
      stroke-linecap="round" 
      stroke-linejoin="round"
    />
  </g>
</svg>
