<svg width="168" height="37" viewBox="0 0 168 37" fill="none" xmlns="http://www.w3.org/2000/svg">
<path fill-rule="evenodd" clip-rule="evenodd" d="M11.477 8.07214L14.5165 11.0984L11.477 14.1247L8.43756 11.0984L11.477 8.07214Z" fill="#00B6D3"/>
<path fill-rule="evenodd" clip-rule="evenodd" d="M3.79641 7.33617L10.0977 13.6098H4.01867L0.756918 10.3624L3.79641 7.33617Z" fill="#00B6D3"/>
<path d="M16.0329 6.10393C14.2381 4.3099 12.514 2.58791 11.6882 0.714554C11.5621 0.428482 11.1549 0.428482 11.0289 0.714554C10.203 2.58791 8.47875 4.3099 6.68414 6.10393C6.09916 6.68853 5.49943 7.28788 4.911 7.91042L7.07694 10.0764C7.34653 9.80121 7.61632 9.53143 7.88208 9.26586C9.16126 7.98706 10.3923 6.75751 11.0333 5.431C11.1651 5.15834 11.5522 5.15834 11.6838 5.431C12.3247 6.75751 13.5556 7.98706 14.835 9.26586C17.1653 11.5941 19.8065 14.2329 19.8065 18.19C19.8065 18.2086 19.8065 18.227 19.8065 18.2456C19.8053 18.5907 19.7833 18.9308 19.7421 19.2648C20.9847 19.7219 21.5685 20.556 22.2918 21.232C22.5658 20.2608 22.7141 19.2368 22.7176 18.1783C22.7176 18.1534 22.7176 18.1285 22.7176 18.1036C22.7176 12.7826 19.1663 9.23444 16.0329 6.10393Z" fill="#18B580"/>
<path d="M17.4627 24.0575C18.2786 24.6649 18.8333 25.4246 19.6152 25.9416C20.0508 25.4808 20.4482 24.9837 20.8023 24.4551C19.5357 24.0772 18.8593 23.5369 18.3227 23.0011C18.0644 23.3763 17.7766 23.7294 17.4627 24.0575Z" fill="#18B580"/>
<path d="M11.331 26.6655C6.66556 26.6501 2.89585 22.8555 2.91118 18.19C2.91118 16.638 3.31739 15.2889 3.9518 14.0818L1.77647 11.9064C0.71074 13.6983 6.31376e-05 15.7236 6.31376e-05 18.1038C-0.0206306 24.3771 5.04819 29.4792 11.3215 29.4999C13.1872 29.5061 14.949 29.0619 16.5047 28.2698C15.3859 27.7172 14.684 26.8703 13.9676 26.2548C13.1375 26.5242 12.2511 26.6685 11.331 26.6657V26.6655Z" fill="#18B580"/>
<path d="M13.8618 22.543C14.4012 20.3855 15.7497 19.3065 17.9072 19.3065C21.1437 19.3065 21.5482 21.7338 23.1663 22.1383C24.2451 22.4081 25.1891 22.0034 25.9981 20.9247C25.4587 23.0822 24.1102 24.1611 21.9527 24.1611C18.7162 24.1611 18.3117 21.7338 16.6936 21.3294C15.6148 21.0596 14.6708 21.4642 13.8618 22.543ZM10.4859 26.7281C11.0252 24.5706 12.3738 23.4917 14.5313 23.4917C17.7678 23.4917 18.1722 25.919 19.7904 26.3234C20.8691 26.5932 21.8132 26.1885 22.6222 25.1098C22.0828 27.2673 20.7342 28.3463 18.5767 28.3463C15.3403 28.3463 14.9358 25.919 13.3176 25.5145C12.2389 25.2447 11.2948 25.6494 10.4859 26.7281Z" fill="#00B6D3"/>
<path d="M93.4184 36.4992V8.75756H98.7589V12.0017H98.9959C99.2751 11.4303 99.6582 10.8751 100.144 10.3338C100.631 9.79321 101.253 9.34681 102.013 8.99374C102.772 8.6415 103.693 8.46537 104.774 8.46537C106.317 8.46537 107.711 8.86389 108.957 9.65929C110.202 10.4555 111.196 11.6218 111.937 13.1591C112.678 14.6963 113.049 16.589 113.049 18.8372C113.049 21.0855 112.687 22.9262 111.965 24.4692C111.242 26.0121 110.254 27.1914 109.003 28.0054C107.752 28.8195 106.33 29.227 104.738 29.227C103.693 29.227 102.794 29.0541 102.04 28.7075C101.287 28.3609 100.664 27.921 100.172 27.3862C99.6802 26.8513 99.2881 26.2929 98.9968 25.7093H98.8507V36.5H93.4192L93.4184 36.4992ZM103.115 24.8514C104.063 24.8514 104.858 24.599 105.503 24.095C106.146 23.591 106.636 22.8857 106.97 21.9807C107.305 21.0757 107.472 20.0214 107.472 18.8186C107.472 17.6157 107.305 16.5825 106.97 15.6832C106.636 14.7839 106.147 14.0851 105.503 13.5868C104.858 13.0884 104.063 12.8393 103.115 12.8393C102.167 12.8393 101.398 13.0852 100.736 13.577C100.074 14.0689 99.5698 14.762 99.2232 15.6548C98.8766 16.5476 98.7038 17.6019 98.7038 18.8169C98.7038 20.032 98.8799 21.0895 99.2321 21.9888C99.5844 22.8881 100.092 23.5902 100.754 24.0942C101.416 24.5982 102.203 24.8506 103.114 24.8506L103.115 24.8514Z" fill="#18B580"/>
<path d="M119.392 6.15059C118.554 6.15059 117.84 5.87707 117.25 5.33003C116.661 4.78299 116.367 4.11502 116.367 3.3253C116.367 2.53558 116.661 1.8668 117.25 1.32057C117.84 0.773529 118.547 0.5 119.374 0.5C120.2 0.5 120.941 0.773529 121.524 1.32057C122.108 1.86761 122.399 2.53558 122.399 3.3253C122.399 4.11502 122.108 4.7838 121.524 5.33003C120.941 5.87707 120.231 6.15059 119.391 6.15059H119.392ZM116.676 28.8804V8.75756H122.107V28.8804H116.676Z" fill="#18B580"/>
<path d="M132.023 28.8804H126.591V8.75756H131.768L131.841 13.8246H131.386C131.933 12.1234 132.756 10.8053 133.856 9.8695C134.955 8.93369 136.368 8.46618 138.093 8.46618C139.49 8.46618 140.711 8.76973 141.757 9.37765C142.802 9.98556 143.61 10.8605 144.181 12.0025C144.753 13.1444 145.037 14.5177 145.037 16.1215V28.8804H139.606V17.0874C139.606 15.8115 139.284 14.818 138.64 14.107C137.996 13.396 137.096 13.0405 135.942 13.0405C135.177 13.0405 134.499 13.2077 133.91 13.5413C133.321 13.8757 132.859 14.3586 132.525 14.9901C132.19 15.6224 132.023 16.3999 132.023 17.3235V28.8804Z" fill="#18B580"/>
<path d="M158.635 29.2813C156.581 29.2813 154.81 28.856 153.322 28.0054C151.833 27.1549 150.685 25.952 149.877 24.3961C149.069 22.841 148.665 21.0124 148.665 18.9095C148.665 16.8065 149.066 15.012 149.868 13.4504C150.67 11.8888 151.8 10.6681 153.259 9.78671C154.717 8.90609 156.424 8.46537 158.381 8.46537C159.73 8.46537 160.981 8.68452 162.135 9.12118C163.289 9.55865 164.302 10.2055 165.17 11.0626C166.038 11.9189 166.713 12.9886 167.193 14.2702C167.673 15.5526 167.913 17.0314 167.913 18.7082V20.2211H150.835V16.7944H165.271L162.737 17.6871C162.737 16.6426 162.573 15.7368 162.245 14.9714C161.917 14.2061 161.434 13.6136 160.796 13.1939C160.158 12.7743 159.371 12.5649 158.436 12.5649C157.501 12.5649 156.705 12.7776 156.048 13.2029C155.392 13.6282 154.891 14.2117 154.544 14.9528C154.198 15.6938 154.025 16.5444 154.025 17.5045V19.9102C154.025 21.04 154.219 22.0002 154.608 22.7899C154.997 23.5796 155.547 24.1786 156.257 24.5852C156.968 24.9927 157.798 25.1956 158.745 25.1956C159.389 25.1956 159.976 25.1014 160.504 24.9131C161.032 24.7248 161.482 24.4513 161.853 24.0926C162.224 23.7338 162.506 23.2939 162.7 22.7712L167.64 23.4822C167.323 24.6485 166.756 25.6663 165.935 26.5356C165.115 27.4048 164.088 28.0785 162.855 28.559C161.622 29.0387 160.215 29.2789 158.636 29.2789L158.635 29.2813Z" fill="#18B580"/>
<path d="M31.998 6.36974L32.7821 1.72151H54.9283L54.1629 6.36974H45.8697L42.1516 28.8804H36.5732L40.2913 6.36974H31.998Z" fill="#00B6D3"/>
<path d="M54.7798 29.2261C53.2003 29.2261 51.8482 28.8195 50.7241 28.0046C49.5999 27.1906 48.807 26.0088 48.3452 24.4594C47.8833 22.91 47.8281 21.036 48.1812 18.8364C48.57 16.5882 49.2599 14.6963 50.2501 13.1591C51.2403 11.6218 52.4309 10.4555 53.8229 9.65929C55.214 8.86389 56.6758 8.46537 58.2065 8.46537C59.2876 8.46537 60.1747 8.63825 60.8678 8.98482C61.5602 9.33139 62.1105 9.77778 62.5171 10.3248C62.9237 10.8719 63.2191 11.4303 63.401 12.0017H63.5649L64.0933 8.75756H69.4882L66.1711 28.8804H60.8127L61.3232 25.7085H61.1227C60.7461 26.3043 60.2599 26.8692 59.6642 27.4032C59.0685 27.9381 58.3704 28.3756 57.5677 28.7156C56.7658 29.0557 55.8365 29.2261 54.779 29.2261H54.7798ZM57.1311 24.8523C58.0669 24.8523 58.9053 24.5998 59.6463 24.0958C60.3874 23.5918 61.0074 22.8865 61.5058 21.9815C62.0041 21.0765 62.3499 20.0222 62.5447 18.8194C62.7508 17.6044 62.7541 16.55 62.5536 15.6573C62.3531 14.7645 61.9644 14.0713 61.3873 13.5795C60.8102 13.0876 60.0538 12.8409 59.118 12.8409C58.1822 12.8409 57.347 13.0933 56.6116 13.5973C55.8763 14.1014 55.266 14.8002 54.7798 15.6938C54.2936 16.5866 53.9535 17.6287 53.7587 18.8194C53.564 20.01 53.5607 21.0611 53.7498 21.9726C53.9381 22.884 54.318 23.5918 54.8894 24.0958C55.4607 24.5998 56.2074 24.8523 57.1311 24.8523Z" fill="#00B6D3"/>
<path d="M70.6553 28.8804L73.9725 8.75756H79.4226L76.0868 28.8804H70.6553ZM77.1265 6.15059C76.2881 6.15059 75.6225 5.87707 75.1307 5.33003C74.6388 4.78299 74.453 4.11502 74.5747 3.3253C74.7086 2.53558 75.1153 1.8668 75.7962 1.32057C76.4764 0.773529 77.2296 0.5 78.0566 0.5C78.8837 0.5 79.5784 0.773529 80.0711 1.32057C80.5638 1.86761 80.7423 2.53558 80.6084 3.3253C80.4866 4.11502 80.0857 4.7838 79.4055 5.33003C78.7246 5.87707 77.9657 6.15059 77.1273 6.15059H77.1265Z" fill="#00B6D3"/>
<path d="M90.5233 1.72151L86.0212 28.8796H80.5711L85.0732 1.72151H90.5233Z" fill="#00B6D3"/>
</svg>
